<svg width="59" height="86" viewBox="0 0 59 86" fill="none" xmlns="http://www.w3.org/2000/svg">
<path d="M58.7267 74.3156L44.8225 48.5455C49.4655 45.2833 52.9484 40.6266 54.7659 35.251C56.5834 29.8755 56.641 24.0607 54.9302 18.6502C53.2195 13.2397 49.8295 8.51498 45.252 5.16144C40.6744 1.80791 35.1475 0 29.473 0C23.7985 0 18.2716 1.80791 13.6941 5.16144C9.11657 8.51498 5.72654 13.2397 4.01581 18.6502C2.30509 24.0607 2.36265 29.8755 4.18015 35.251C5.99764 40.6266 9.48053 45.2833 14.1235 48.5455L0.228043 74.3156C0.0459176 74.6534 -0.0298641 75.0385 0.0106297 75.4202C0.0511235 75.8018 0.206003 76.1624 0.454967 76.4545C0.703931 76.7467 1.03536 76.9568 1.4058 77.0573C1.77624 77.1578 2.16842 77.1441 2.5309 77.0178L12.7174 73.4645L15.3435 83.9297C15.437 84.3021 15.6408 84.6375 15.9282 84.8921C16.2157 85.1467 16.5733 85.3086 16.9542 85.3564C17.0329 85.366 17.1122 85.3707 17.1915 85.3706C17.5349 85.3706 17.872 85.2776 18.1669 85.1015C18.4618 84.9254 18.7035 84.6728 18.8664 84.3704L29.4774 64.7036L40.0873 84.3704C40.2502 84.6728 40.4919 84.9254 40.7868 85.1015C41.0817 85.2776 41.4187 85.3706 41.7622 85.3706C41.8415 85.3707 41.9207 85.366 41.9994 85.3564C42.3804 85.3086 42.738 85.1467 43.0254 84.8921C43.3128 84.6375 43.5166 84.3021 43.6101 83.9297L46.2373 73.4645L56.4249 77.0178C56.7874 77.1441 57.1796 77.1578 57.55 77.0573C57.9205 76.9568 58.2519 76.7467 58.5009 76.4545C58.7498 76.1624 58.9047 75.8018 58.9452 75.4202C58.9857 75.0385 58.9088 74.6534 58.7267 74.3156ZM6.58702 26.7196C6.58702 22.1923 7.92951 17.7667 10.4447 14.0024C12.96 10.2381 16.535 7.30414 20.7176 5.57163C24.9003 3.83911 29.5028 3.38581 33.9431 4.26903C38.3834 5.15226 42.462 7.33236 45.6633 10.5336C48.8646 13.7349 51.0447 17.8136 51.9279 22.2539C52.8111 26.6942 52.3578 31.2966 50.6253 35.4793C48.8928 39.662 45.9589 43.237 42.1946 45.7522C38.4303 48.2674 34.0047 49.6099 29.4774 49.6099C23.4085 49.6033 17.5901 47.1895 13.2988 42.8982C9.00743 38.6068 6.59364 32.7884 6.58702 26.7196ZM17.8456 78.2443L15.9062 70.5174C15.8417 70.2608 15.7246 70.0205 15.5622 69.8117C15.3998 69.6029 15.1957 69.4302 14.9629 69.3046C14.7301 69.179 14.4737 69.1032 14.21 69.0821C13.9464 69.061 13.6812 69.095 13.4314 69.182L5.90901 71.8059L17.3972 50.5154C19.1662 51.4196 21.0313 52.122 22.9573 52.6093L27.3182 60.6921L17.8456 78.2443ZM45.5234 69.182C45.2736 69.095 45.0084 69.061 44.7447 69.0821C44.481 69.1032 44.2246 69.179 43.9918 69.3046C43.7591 69.4302 43.555 69.6029 43.3926 69.8117C43.2302 70.0205 43.113 70.2608 43.0486 70.5174L41.1092 78.2443L27.6817 53.3515C28.2759 53.3907 28.8734 53.419 29.4774 53.419C33.6772 53.421 37.8175 52.4259 41.5576 50.5154L53.0457 71.8059L45.5234 69.182Z" fill="#B98C25"/>
<path d="M37.6537 41.2024C37.9681 41.3681 38.3227 41.4425 38.6772 41.4171C39.0317 41.3916 39.372 41.2675 39.6596 41.0586C39.9472 40.8497 40.1705 40.5645 40.3044 40.2353C40.4382 39.906 40.4772 39.5459 40.4169 39.1956L38.8552 30.0908L45.4699 23.6437C45.7244 23.3956 45.9044 23.0813 45.9896 22.7363C46.0747 22.3913 46.0617 22.0293 45.9518 21.6913C45.842 21.3533 45.6398 21.0528 45.3681 20.8237C45.0963 20.5947 44.7659 20.4462 44.4142 20.3951L35.2725 19.0663L31.1837 10.7832C31.0264 10.4647 30.7831 10.1965 30.4813 10.009C30.1796 9.82153 29.8314 9.72217 29.4762 9.72217C29.1209 9.72217 28.7727 9.82153 28.471 10.009C28.1692 10.1965 27.9259 10.4647 27.7686 10.7832L23.6798 19.0663L14.538 20.3951C14.1863 20.4462 13.856 20.5947 13.5842 20.8237C13.3125 21.0528 13.1103 21.3533 13.0005 21.6913C12.8906 22.0293 12.8776 22.3913 12.9627 22.7363C13.0479 23.0813 13.2279 23.3956 13.4824 23.6437L20.0971 30.0908L18.5354 39.1956C18.4751 39.5459 18.5141 39.906 18.6479 40.2353C18.7818 40.5645 19.0051 40.8497 19.2927 41.0586C19.5803 41.2675 19.9206 41.3916 20.2751 41.4171C20.6296 41.4425 20.9842 41.3681 21.2986 41.2024L29.4772 36.9047L37.6537 41.2024ZM22.9474 36.0352L24.0259 29.748C24.0784 29.444 24.0563 29.1317 23.9615 28.8381C23.8667 28.5445 23.7021 28.2782 23.4818 28.0622L18.9109 23.6089L25.223 22.6925C25.5287 22.648 25.819 22.5299 26.0689 22.3482C26.3188 22.1666 26.5208 21.927 26.6574 21.6499L29.4772 15.9298L32.3003 21.6499C32.437 21.927 32.639 22.1666 32.8888 22.3482C33.1387 22.5299 33.429 22.648 33.7347 22.6925L40.0469 23.6089L35.476 28.0622C35.2557 28.2782 35.091 28.5445 34.9963 28.8381C34.9015 29.1317 34.8794 29.444 34.9318 29.748L36.0071 36.0352L30.3599 33.0674C30.0867 32.9237 29.7826 32.8486 29.474 32.8486C29.1653 32.8486 28.8613 32.9237 28.5881 33.0674L22.9474 36.0352Z" fill="#B98C25"/>
</svg>
