<svg width="104" height="104" viewBox="0 0 104 104" fill="none" xmlns="http://www.w3.org/2000/svg">
<g clip-path="url(#clip0_523_880)">
<path d="M59.2372 42.6021H44.6307C43.5103 42.6021 42.6021 43.5105 42.6021 44.6307V59.2372C42.6021 60.3575 43.5103 61.2659 44.6307 61.2659H59.2372C60.3577 61.2659 61.2659 60.3575 61.2659 59.2372V44.6307C61.2659 43.5105 60.3577 42.6021 59.2372 42.6021ZM57.2085 57.2085H46.6594V46.6594H57.2085V57.2085Z" fill="#B98C25"/>
<path d="M96.9708 10.9551C93.1674 10.9551 90.0732 14.0492 90.0732 17.8526C90.0732 21.656 93.1674 24.7501 96.9708 24.7501C100.774 24.7501 103.868 21.656 103.868 17.8526C103.868 14.0492 100.774 10.9551 96.9708 10.9551ZM96.9708 20.6927C95.4046 20.6927 94.1306 19.4187 94.1306 17.8526C94.1306 16.2865 95.4046 15.0124 96.9708 15.0124C98.5369 15.0124 99.8109 16.2865 99.8109 17.8526C99.8109 19.4187 98.5369 20.6927 96.9708 20.6927Z" fill="#B98C25"/>
<path d="M86.5416 16.4118C86.1642 16.0347 85.6408 15.8174 85.1073 15.8174C84.5717 15.8174 84.0483 16.0345 83.671 16.4118C83.2937 16.7891 83.0786 17.3125 83.0786 17.8461C83.0786 18.3796 83.2937 18.903 83.671 19.2803C84.0504 19.6575 84.5717 19.8747 85.1073 19.8747C85.6408 19.8747 86.1642 19.6577 86.5416 19.2803C86.9189 18.903 87.136 18.3796 87.136 17.8461C87.136 17.3125 86.9189 16.7891 86.5416 16.4118Z" fill="#B98C25"/>
<path d="M84.2984 53.9629C85.1669 56.7793 87.7936 58.8317 90.891 58.8317C94.6944 58.8317 97.7885 55.7376 97.7885 51.9342C97.7885 48.1308 94.6942 45.0367 90.891 45.0367C87.7934 45.0367 85.1667 47.0891 84.2984 49.9055H71.8151V34.0818C71.8151 32.9616 70.9069 32.0532 69.7864 32.0532H66.5406V19.875H77.9056C79.0261 19.875 79.9343 18.9665 79.9343 17.8463C79.9343 16.7261 79.0261 15.8176 77.9056 15.8176H64.5119C63.3914 15.8176 62.4832 16.7261 62.4832 17.8463V32.0532H53.9627V19.5701C56.779 18.7016 58.8316 16.0751 58.8316 12.9775C58.8316 9.1741 55.7374 6.07996 51.9341 6.07996C48.1307 6.07996 45.0365 9.1741 45.0365 12.9775C45.0365 16.0751 47.0892 18.7018 49.9054 19.5701V32.0532H34.0817C32.9612 32.0532 32.053 32.9616 32.053 34.0818V37.3277H19.8746V13.4919C22.6941 12.6255 24.7497 9.99734 24.7497 6.89751C24.7497 3.09414 21.6556 0 17.8522 0C14.0489 0 10.9547 3.09414 10.9547 6.89751C10.9547 9.99287 13.0043 12.618 15.8173 13.4883V39.3564C15.8173 40.4766 16.7255 41.3851 17.8459 41.3851H32.053V49.9055H19.5697C18.7012 47.0891 16.0745 45.0367 12.9771 45.0367C9.17373 45.0367 6.07959 48.1308 6.07959 51.9342C6.07959 55.7376 9.17373 58.8317 12.9771 58.8317C16.0747 58.8317 18.7014 56.7793 19.5697 53.9629H32.053V69.7866C32.053 70.9068 32.9612 71.8153 34.0817 71.8153H37.3276V83.9935H25.9625C24.842 83.9935 23.9338 84.9019 23.9338 86.0221C23.9338 87.1424 24.842 88.0508 25.9625 88.0508H39.3562C40.4767 88.0508 41.3849 87.1424 41.3849 86.0221V71.8153H49.9054V84.2984C47.0892 85.1668 45.0365 87.7934 45.0365 90.891C45.0365 94.6943 48.1307 97.7885 51.9341 97.7885C55.7374 97.7885 58.8316 94.6943 58.8316 90.891C58.8316 87.7934 56.779 85.1666 53.9627 84.2984V71.8153H69.7864C70.9069 71.8153 71.8151 70.9068 71.8151 69.7866V66.5407H83.9935V90.3765C81.174 91.2429 79.1184 93.8711 79.1184 96.9709C79.1184 100.774 82.2125 103.868 86.0159 103.868C89.8193 103.868 92.9134 100.774 92.9134 96.9709C92.9134 93.8756 90.8638 91.2505 88.0509 90.3801V64.512C88.0509 63.3918 87.1426 62.4834 86.0222 62.4834H71.8151V53.9629H84.2984ZM90.891 49.0941C92.4572 49.0941 93.7312 50.3681 93.7312 51.9342C93.7312 53.5004 92.4569 54.7744 90.891 54.7744C89.3249 54.7744 88.0509 53.5004 88.0509 51.9342C88.0509 50.3681 89.3249 49.0941 90.891 49.0941ZM17.8522 9.73767C16.2861 9.73767 15.0121 8.46365 15.0121 6.89751C15.0121 5.33137 16.2861 4.05736 17.8522 4.05736C19.4184 4.05736 20.6924 5.33137 20.6924 6.89751C20.6924 8.46365 19.4184 9.73767 17.8522 9.73767ZM12.9771 54.7744C11.411 54.7744 10.137 53.5004 10.137 51.9342C10.137 50.3681 11.411 49.0941 12.9771 49.0941C14.5432 49.0941 15.8173 50.3681 15.8173 51.9342C15.8173 53.5004 14.5432 54.7744 12.9771 54.7744ZM49.0939 12.9775C49.0939 11.4113 50.3679 10.1373 51.9341 10.1373C53.5002 10.1373 54.7742 11.4113 54.7742 12.9775C54.7742 14.5436 53.5002 15.8176 51.9341 15.8176C50.3679 15.8176 49.0939 14.5436 49.0939 12.9775ZM54.7742 90.891C54.7742 92.4571 53.5002 93.7311 51.9341 93.7311C50.3679 93.7311 49.0939 92.4571 49.0939 90.891C49.0939 89.3248 50.3679 88.0508 51.9341 88.0508C53.5002 88.0508 54.7742 89.3248 54.7742 90.891ZM67.7578 67.7579H36.1103V36.1105H67.7578V67.7579ZM86.0159 94.1308C87.582 94.1308 88.856 95.4048 88.856 96.9709C88.856 98.5371 87.582 99.8111 86.0159 99.8111C84.4497 99.8111 83.1757 98.5371 83.1757 96.9709C83.1757 95.4048 84.4497 94.1308 86.0159 94.1308Z" fill="#B98C25"/>
<path d="M6.89751 79.1187C3.09414 79.1187 0 82.2128 0 86.0162C0 89.8195 3.09414 92.9137 6.89751 92.9137C10.7009 92.9137 13.795 89.8195 13.795 86.0162C13.795 82.2128 10.7009 79.1187 6.89751 79.1187ZM6.89751 88.8563C5.33137 88.8563 4.05736 87.5823 4.05736 86.0162C4.05736 84.45 5.33137 83.176 6.89751 83.176C8.46365 83.176 9.73767 84.45 9.73767 86.0162C9.73767 87.5823 8.46365 88.8563 6.89751 88.8563Z" fill="#B98C25"/>
<path d="M20.1998 84.5881C19.8224 84.2107 19.299 83.9937 18.7655 83.9937C18.232 83.9937 17.7086 84.2105 17.3312 84.5881C16.9539 84.9652 16.7368 85.4886 16.7368 86.0223C16.7368 86.5559 16.9539 87.0793 17.3312 87.4564C17.7086 87.8337 18.232 88.051 18.7655 88.051C19.299 88.051 19.8224 87.8339 20.1998 87.4564C20.5771 87.0793 20.7942 86.5559 20.7942 86.0223C20.7942 85.4886 20.5771 84.9652 20.1998 84.5881Z" fill="#B98C25"/>
</g>
<defs>
<clipPath id="clip0_523_880">
<rect width="103.868" height="103.868" fill="white"/>
</clipPath>
</defs>
</svg>
