<svg width="104" height="104" viewBox="0 0 104 104" fill="none" xmlns="http://www.w3.org/2000/svg">
<g clip-path="url(#clip0_523_913)">
<path d="M103.675 62.0527C102.298 58.5192 96.522 55.1573 89.6343 53.878C84.6771 52.9536 72.0912 51.9689 62.3602 62.6378C55.8157 69.8141 54.2596 79.2915 58.5771 85.684C58.6363 85.7719 58.7104 85.8479 58.7713 85.9345C50.5758 89.9778 41.0457 91.0034 32.0314 88.566C36.7318 85.1803 38.1342 81.7008 38.4131 79.1745C38.8402 75.3095 36.8979 72.1815 35.1038 70.6761C32.9802 68.8937 30.2383 68.7026 28.0367 68.5505C25.7025 68.3905 24.5538 68.2268 24.1189 67.4194C23.7348 66.7135 23.8147 66.4054 24.429 65.013C25.2383 63.1799 26.4609 60.4108 24.9204 55.6564C24.3256 53.8195 24.8775 52.9829 25.7921 51.5964C26.7204 50.1903 27.9938 48.2656 27.3834 45.3171C27.0675 43.7882 26.0379 41.6996 22.9352 40.4321C18.3822 38.57 11.303 39.3195 5.33023 41.9835C6.26316 38.5716 7.67603 35.2693 9.57341 32.1672C17.0285 19.9345 30.3554 13.4255 43.7485 14.0327C43.1871 16.4556 44.2237 18.9613 45.0512 20.9604C45.7006 22.5341 46.3753 24.1605 46.1627 25.2857C45.9541 26.3836 44.708 27.3157 43.3878 28.3025C41.5508 29.6792 39.2634 31.3895 39.2264 34.3516C39.2069 35.8825 39.6592 37.1267 40.568 38.051C42.2977 39.8061 45.1214 39.8119 47.8516 39.8178C49.3668 39.8217 50.9327 39.8256 52.2081 40.12C53.4016 40.3813 54.2284 41.452 55.1918 42.6903C56.3189 44.1411 57.5981 45.7851 59.7589 46.0932C60.1722 46.1517 60.5623 46.179 60.9289 46.179C64.2012 46.179 65.6988 43.9851 66.9235 42.1852C67.6294 41.1478 68.3626 40.0751 69.4664 39.2328C69.4664 39.2308 69.4664 39.2308 69.4664 39.2308C70.2699 38.6145 71.7557 38.3045 73.1911 38.0042C74.4044 37.7503 75.6989 37.4699 76.8412 36.9515C78.1376 39.9735 79.0582 43.1801 79.54 46.5143C79.7023 47.6016 80.7085 48.3645 81.796 48.2022C82.8833 48.0399 83.6461 47.0336 83.4838 45.9463C81.6986 33.5304 74.525 22.6564 63.8296 16.1321C44.0617 4.07344 18.2076 10.3381 6.14886 30.0897C0.322404 39.6491 -1.44669 50.9126 1.19878 61.8027C3.828 72.6929 10.5471 81.9115 20.1065 87.7542C26.923 91.8928 34.4536 93.8728 41.9031 93.8728C48.7322 93.8728 55.4876 92.1957 61.5344 89.0176C64.8537 91.9137 69.2496 93.5935 73.6864 93.5935C74.4625 93.5935 75.2387 93.5428 76.0109 93.4375C80.6989 92.7979 89.2872 89.5724 94.1428 75.1067C96.3465 68.5465 99.7123 66.733 101.522 65.7618C102.489 65.2431 104.498 64.1588 103.675 62.0527ZM72.372 34.0943C70.5896 34.4687 68.5655 34.8918 67.0405 36.058C65.4258 37.2924 64.4274 38.7589 63.6239 39.9368C62.3095 41.8693 61.9 42.3705 60.3204 42.1384C59.7589 42.0584 59.0412 41.1341 58.347 40.239C57.1535 38.7043 55.6675 36.7913 53.0857 36.2238C51.393 35.8338 49.5969 35.8299 47.8613 35.824C46.2193 35.8201 43.9729 35.8162 43.4132 35.2487C43.2474 35.079 43.2163 34.6949 43.2201 34.4024C43.2318 33.4742 44.1951 32.6882 45.7806 31.5006C47.4791 30.2311 49.5911 28.6516 50.0864 26.0268C50.5193 23.7334 49.5736 21.448 48.7409 19.4335C47.6983 16.9145 47.2532 15.5361 47.8501 14.4453C52.6355 15.1901 57.3536 16.8632 61.7359 19.5404C67.3836 22.9839 71.9343 27.7681 75.0783 33.3791C74.3454 33.681 73.2878 33.9042 72.372 34.0943ZM4.36253 46.9415C10.1329 43.4137 17.705 42.6026 21.4239 44.1295C22.6096 44.6131 23.2979 45.2839 23.4714 46.1244C23.7348 47.3919 23.3291 48.0803 22.4594 49.3967C21.3947 51.0113 19.9341 53.2227 21.1217 56.8889C22.1922 60.1924 21.5038 61.7485 20.7765 63.3984C20.0998 64.9311 19.2593 66.8344 20.6049 69.3227C22.1338 72.1464 25.2558 72.361 27.7617 72.5364C29.6376 72.6652 31.4083 72.7861 32.5375 73.7339C33.3721 74.4359 34.7157 76.2807 34.4447 78.7378C34.1249 81.631 31.6259 84.4422 27.1992 86.899C25.4967 86.1791 23.8241 85.3364 22.2001 84.3459C13.5334 79.055 7.46342 70.7291 5.0777 60.8615C3.98161 56.3354 3.73495 51.7389 4.29078 47.2515C4.31894 47.1481 4.3333 47.045 4.36253 46.9415ZM90.3597 73.8352C87.2669 83.0396 81.9821 88.5936 75.4766 89.4789C71.5363 90.0086 67.3712 88.6854 64.3425 86.1459C67.9296 79.1295 72.3532 73.6849 77.5281 69.9975C78.4251 69.3578 78.6357 68.1098 77.9961 67.2127C77.3564 66.3156 76.1084 66.109 75.2113 66.7447C69.8723 70.5494 65.2854 75.9671 61.539 82.8705C58.7863 78.0661 60.2985 70.8226 65.3088 65.3289C71.28 58.7844 78.5344 57.3375 83.7684 57.3375C85.8822 57.3375 87.6686 57.5754 88.9049 57.8055C93.9479 58.7415 97.6648 60.8281 99.2248 62.4622C96.9783 63.6947 92.9026 66.2572 90.3597 73.8352Z" fill="#B98C25"/>
</g>
<defs>
<clipPath id="clip0_523_913">
<rect width="103.868" height="103.868" fill="white"/>
</clipPath>
</defs>
</svg>
