<svg width="103" height="103" viewBox="0 0 103 103" fill="none" xmlns="http://www.w3.org/2000/svg">
<path d="M30.7944 43.4214C30.7943 43.6321 30.8358 43.8408 30.9164 44.0355C30.997 44.2302 31.1152 44.4072 31.2643 44.5562C31.4133 44.7052 31.5902 44.8234 31.7849 44.904C31.9796 44.9847 32.1883 45.0261 32.3991 45.0261H41.7907C42.0015 45.0261 42.2102 44.9847 42.4049 44.904C42.5996 44.8234 42.7765 44.7052 42.9255 44.5562C43.0746 44.4072 43.1928 44.2302 43.2734 44.0355C43.354 43.8408 43.3955 43.6321 43.3954 43.4214V35.4919C45.4964 35.1151 47.398 34.0117 48.7676 32.3747C50.1373 30.7376 50.8877 28.6711 50.8877 26.5367C50.8877 24.4022 50.1373 22.3357 48.7676 20.6986C47.398 19.0616 45.4964 17.9582 43.3954 17.5815V9.65354C43.3955 9.44279 43.354 9.23409 43.2734 9.03937C43.1928 8.84466 43.0746 8.66773 42.9255 8.51871C42.7765 8.36969 42.5996 8.25149 42.4049 8.17086C42.2102 8.09024 42.0015 8.04877 41.7907 8.04883H13.4811C11.6088 8.05071 9.81374 8.79525 8.48976 10.1191C7.16579 11.4429 6.42104 13.2379 6.41895 15.1101V43.4214C6.41889 43.6321 6.46036 43.8408 6.54098 44.0355C6.6216 44.2302 6.7398 44.4072 6.88883 44.5562C7.03785 44.7052 7.21477 44.8234 7.40949 44.904C7.60421 44.9847 7.8129 45.0261 8.02365 45.0261H17.4153C17.626 45.0261 17.8347 44.9847 18.0294 44.904C18.2242 44.8234 18.4011 44.7052 18.5501 44.5562C18.6991 44.4072 18.8173 44.2302 18.898 44.0355C18.9786 43.8408 19.02 43.6321 19.02 43.4214C19.037 41.8712 19.6647 40.3902 20.7669 39.3C21.8691 38.2098 23.3569 37.5983 24.9072 37.5983C26.4575 37.5983 27.9452 38.2098 29.0475 39.3C30.1497 40.3902 30.7774 41.8712 30.7944 43.4214ZM15.9524 41.8167H9.62836V15.1101C9.62975 14.0888 10.0361 13.1098 10.7584 12.3877C11.4806 11.6656 12.4598 11.2594 13.4811 11.2582H40.186V19.0451C40.1859 19.2559 40.2274 19.4646 40.308 19.6593C40.3887 19.854 40.5069 20.0309 40.6559 20.18C40.8049 20.329 40.9818 20.4472 41.1765 20.5278C41.3713 20.6084 41.58 20.6499 41.7907 20.6499C43.3406 20.6672 44.8211 21.2951 45.9109 22.3972C47.0007 23.4994 47.6119 24.9868 47.6119 26.5368C47.6119 28.0867 47.0006 29.5741 45.9107 30.6762C44.8209 31.7783 43.3404 32.4061 41.7905 32.4235C41.5798 32.4234 41.3711 32.4649 41.1764 32.5456C40.9817 32.6262 40.8048 32.7444 40.6558 32.8934C40.5068 33.0424 40.3886 33.2193 40.308 33.4141C40.2274 33.6088 40.1859 33.8174 40.186 34.0282V41.8167H33.862C33.4703 39.7281 32.3608 37.8421 30.7256 36.485C29.0903 35.128 27.0322 34.3852 24.9072 34.3852C22.7822 34.3852 20.724 35.128 19.0888 36.485C17.4535 37.8421 16.3441 39.7281 15.9524 41.8167Z" fill="#B98C25"/>
<path d="M89.2203 24.9326H60.9106C60.6999 24.9326 60.4912 24.974 60.2965 25.0547C60.1018 25.1353 59.9248 25.2535 59.7758 25.4025C59.6268 25.5515 59.5086 25.7284 59.428 25.9232C59.3473 26.1179 59.3059 26.3266 59.3059 26.5373V35.929C59.3059 36.1397 59.3473 36.3484 59.428 36.5431C59.5086 36.7378 59.6268 36.9147 59.7758 37.0638C59.9248 37.2128 60.1018 37.331 60.2965 37.4116C60.4912 37.4922 60.6999 37.5337 60.9106 37.5337C62.4606 37.5508 63.9413 38.1786 65.0313 39.2808C66.1212 40.3829 66.7325 41.8705 66.7325 43.4205C66.7325 44.9706 66.1211 46.4582 65.0311 47.5603C63.9411 48.6624 62.4604 49.2901 60.9105 49.3073C60.6997 49.3072 60.4911 49.3487 60.2963 49.4293C60.1017 49.51 59.9247 49.6282 59.7757 49.7772C59.6267 49.9262 59.5086 50.1031 59.4279 50.2978C59.3473 50.4926 59.3059 50.7012 59.3059 50.912V57.6756H52.9811C52.6042 55.575 51.5008 53.6738 49.8639 52.3045C48.227 50.9352 46.1608 50.1849 44.0267 50.1849C41.8926 50.1849 39.8264 50.9352 38.1895 52.3045C36.5526 53.6738 35.4492 55.575 35.0723 57.6756H27.1428C26.932 57.6755 26.7233 57.717 26.5286 57.7976C26.3339 57.8782 26.157 57.9964 26.008 58.1455C25.8589 58.2945 25.7407 58.4714 25.6601 58.6661C25.5795 58.8608 25.538 59.0695 25.5381 59.2803V87.5915C25.5402 89.4638 26.2849 91.2588 27.6089 92.5826C28.9329 93.9064 30.7279 94.651 32.6002 94.6529H89.2203C91.0926 94.651 92.8876 93.9064 94.2116 92.5826C95.5356 91.2588 96.2803 89.4638 96.2824 87.5915V31.994C96.2803 30.1217 95.5356 28.3267 94.2116 27.0029C92.8876 25.679 91.0926 24.9345 89.2203 24.9326ZM70.0069 43.4212C70.0044 41.2875 69.2531 39.2223 67.8841 37.5857C66.5151 35.9491 64.6151 34.8448 62.5154 34.4654V28.142H89.2203C90.2416 28.1432 91.2207 28.5494 91.943 29.2715C92.6652 29.9936 93.0716 30.9727 93.073 31.994V57.6756H85.2861C85.0753 57.6755 84.8666 57.717 84.6719 57.7976C84.4772 57.8782 84.3003 57.9964 84.1512 58.1455C84.0022 58.2945 83.884 58.4714 83.8034 58.6661C83.7228 58.8608 83.6813 59.0695 83.6814 59.2803C83.664 60.8303 83.0361 62.3108 81.9339 63.4007C80.8317 64.4906 79.3441 65.1019 77.7941 65.1018C76.244 65.1018 74.7565 64.4905 73.6543 63.4006C72.5522 62.3107 71.9243 60.8301 71.907 59.2801C71.907 59.0694 71.8655 58.8607 71.7849 58.666C71.7043 58.4713 71.5861 58.2944 71.437 58.1454C71.288 57.9964 71.1111 57.8782 70.9164 57.7976C70.7217 57.717 70.513 57.6755 70.3023 57.6756H62.5154V52.3756C64.6149 51.9963 66.5147 50.8923 67.8837 49.2559C69.2527 47.6196 70.0041 45.5547 70.0069 43.4212ZM28.7475 87.5915V60.885H36.5352C36.7459 60.8851 36.9546 60.8436 37.1493 60.763C37.344 60.6823 37.521 60.5641 37.67 60.4151C37.819 60.2661 37.9372 60.0892 38.0178 59.8945C38.0985 59.6997 38.1399 59.491 38.1399 59.2803C38.1424 57.7207 38.7638 56.2259 39.8675 55.124C40.9712 54.0221 42.4671 53.4032 44.0267 53.4032C45.5863 53.4032 47.0821 54.0221 48.1858 55.124C49.2895 56.2259 49.9109 57.7207 49.9135 59.2803C49.9134 59.491 49.9549 59.6997 50.0355 59.8945C50.1161 60.0892 50.2343 60.2661 50.3834 60.4151C50.5324 60.5641 50.7093 60.6823 50.904 60.763C51.0987 60.8436 51.3074 60.8851 51.5182 60.885H59.3058V67.2098C57.2049 67.5865 55.3033 68.6899 53.9336 70.327C52.564 71.964 51.8135 74.0305 51.8135 76.165C51.8135 78.2994 52.564 80.3659 53.9336 82.003C55.3033 83.6401 57.2049 84.7435 59.3058 85.1202V91.4434H32.6002C31.5789 91.4422 30.5998 91.0361 29.8775 90.314C29.1553 89.5919 28.7489 88.6128 28.7475 87.5915ZM89.2203 91.4435H62.5154V83.6565C62.5154 83.4458 62.4739 83.2371 62.3933 83.0424C62.3127 82.8476 62.1945 82.6707 62.0455 82.5217C61.8964 82.3727 61.7195 82.2545 61.5248 82.1738C61.3301 82.0932 61.1214 82.0517 60.9106 82.0518C59.3494 82.0518 57.852 81.4316 56.748 80.3276C55.644 79.2236 55.0238 77.7263 55.0238 76.165C55.0238 74.6037 55.644 73.1064 56.748 72.0024C57.852 70.8984 59.3494 70.2782 60.9106 70.2782C61.1214 70.2782 61.3301 70.2368 61.5248 70.1561C61.7195 70.0755 61.8964 69.9573 62.0455 69.8083C62.1945 69.6593 62.3127 69.4824 62.3933 69.2876C62.4739 69.0929 62.5154 68.8842 62.5154 68.6735V61.9083H68.8394C69.216 64.0092 70.3193 65.9108 71.9563 67.2805C73.5933 68.6501 75.6598 69.4006 77.7942 69.4006C79.9286 69.4006 81.995 68.6501 83.632 67.2805C85.269 65.9108 86.3723 64.0092 86.749 61.9083H93.073V87.5915C93.0716 88.6128 92.6652 89.5919 91.943 90.314C91.2207 91.0361 90.2416 91.4423 89.2203 91.4435Z" fill="#B98C25"/>
</svg>
