<svg width="106" height="104" viewBox="0 0 106 104" fill="none" xmlns="http://www.w3.org/2000/svg">
<g clip-path="url(#clip0_523_902)">
<path d="M24.5081 70.9766C21.6077 70.9766 19.2563 73.3018 19.2563 76.17C19.2563 79.0381 21.6075 81.3634 24.5081 81.3634C27.4087 81.3634 29.7599 79.0383 29.7599 76.17C29.7566 73.3031 27.4073 70.9796 24.5081 70.9766ZM24.5081 77.9011C23.5413 77.9011 22.7576 77.1261 22.7576 76.17C22.7576 75.2139 23.5413 74.4389 24.5081 74.4389C25.475 74.4389 26.2586 75.2139 26.2586 76.17C26.2576 77.1257 25.4746 77.9 24.5081 77.9011Z" fill="#B98C25"/>
<path d="M80.5272 70.9766C77.6268 70.9766 75.2754 73.3018 75.2754 76.17C75.2754 79.0381 77.6268 81.3634 80.5272 81.3634C83.4275 81.3634 85.7789 79.0383 85.7789 76.17C85.7759 73.3031 83.4263 70.9796 80.5272 70.9766ZM80.5272 77.9011C79.5603 77.9011 78.7766 77.1261 78.7766 76.17C78.7766 75.2139 79.5605 74.4389 80.5272 74.4389C81.494 74.4389 82.2777 75.2139 82.2777 76.17C82.2769 77.1257 81.4936 77.9 80.5272 77.9011Z" fill="#B98C25"/>
<path d="M103.701 46.3349L91.642 32.905C90.643 31.7925 89.2094 31.1573 87.7048 31.1603H71.7743V20.7735C71.7712 17.9066 69.4217 15.5831 66.5226 15.5801H5.25178C2.35263 15.5831 0.00307738 17.9066 1.70963e-07 20.7735V65.7832C-0.000204977 66.2423 0.184223 66.6827 0.512664 67.0075C0.8409 67.3321 1.28627 67.5145 1.75073 67.5145H3.50125V72.7079C3.50433 75.5749 5.85388 77.8983 8.75303 77.9013H12.394C13.2568 83.8616 18.4196 88.2882 24.5084 88.2882C30.5971 88.2882 35.7599 83.8616 36.6227 77.9013H68.4132C69.276 83.8616 74.4388 88.2882 80.5276 88.2882C86.6163 88.2882 91.7791 83.8616 92.6419 77.9013H99.7837C102.683 77.8983 105.032 75.5749 105.035 72.7079V49.7871C105.034 48.5133 104.559 47.2847 103.701 46.3349ZM3.50125 64.052V20.7735C3.50228 19.8178 4.28533 19.0432 5.25178 19.0424H66.5226C67.489 19.0434 68.2723 19.8178 68.2731 20.7735V64.052H3.50125ZM12.394 74.4388H8.75303C7.78658 74.4378 7.00332 73.6634 7.0025 72.7077V67.5143H15.949C14.0259 69.373 12.7764 71.8068 12.394 74.4388ZM24.5084 84.8256C19.6743 84.8256 15.7553 80.9503 15.7553 76.1699C15.7553 71.3895 19.6743 67.5143 24.5084 67.5143C29.3424 67.5143 33.2614 71.3897 33.2614 76.1701C33.2556 80.948 29.34 84.8202 24.5084 84.8256ZM42.0142 74.4388H36.6225C36.2401 71.8068 34.9908 69.3728 33.0677 67.5143H42.0142V74.4388ZM57.7695 74.4388H45.5155V67.5143H57.7695V74.4388ZM68.413 74.4388H61.2708V67.5143H71.9678C70.0447 69.373 68.7954 71.8068 68.413 74.4388ZM80.5271 84.8256C75.6931 84.8256 71.7741 80.9503 71.7741 76.1699C71.7741 71.3895 75.6928 67.5141 80.5271 67.5141C85.3612 67.5141 89.2802 71.3895 89.2802 76.1699C89.2744 80.948 85.359 84.8202 80.5271 84.8256ZM101.534 72.7077C101.533 73.6634 100.75 74.438 99.7837 74.4388H92.6415C91.7686 68.484 86.612 64.0627 80.5271 64.052H71.7741V34.6227H78.7766V51.934C78.7797 54.801 81.1293 57.1244 84.0284 57.1275H101.534V72.7077ZM101.534 53.6651H84.0284C83.062 53.6641 82.2787 52.8897 82.2779 51.934V34.6227H87.7048C88.2075 34.6199 88.6871 34.8304 89.0221 35.2009L101.086 48.6358C101.373 48.9523 101.532 49.3619 101.534 49.7871L101.534 53.6651Z" fill="#B98C25"/>
</g>
<defs>
<clipPath id="clip0_523_902">
<rect width="105.035" height="103.868" fill="white"/>
</clipPath>
</defs>
</svg>
