<svg width="80" height="80" viewBox="0 0 80 80" fill="none" xmlns="http://www.w3.org/2000/svg">
<path d="M53.3556 52.857C61.8686 39.4988 60.7984 41.1653 61.0437 40.817C64.1431 36.4455 65.7812 31.3003 65.7812 25.9375C65.7812 11.7156 54.2405 0 40 0C25.8059 0 14.2188 11.6925 14.2188 25.9375C14.2188 31.2969 15.8913 36.5767 19.0922 41.0072L26.6441 52.8572C18.5698 54.098 4.84375 57.7956 4.84375 65.9375C4.84375 68.9055 6.78094 73.1352 16.0097 76.4311C22.4538 78.7325 30.9736 80 40 80C56.8789 80 75.1562 75.2387 75.1562 65.9375C75.1562 57.7942 61.4463 54.1005 53.3556 52.857ZM23.0077 38.4289C22.9819 38.3886 22.955 38.3492 22.9269 38.3105C20.2633 34.6461 18.9062 30.3033 18.9062 25.9375C18.9062 14.2159 28.3447 4.6875 40 4.6875C51.6311 4.6875 61.0938 14.2202 61.0938 25.9375C61.0938 30.3103 59.7623 34.5058 57.2428 38.0736C57.017 38.3714 58.195 36.5414 40 65.092L23.0077 38.4289ZM40 75.3125C21.5634 75.3125 9.53125 69.8933 9.53125 65.9375C9.53125 63.2788 15.7137 58.907 29.4137 57.203L38.0234 70.7128C38.4538 71.3881 39.1991 71.7969 39.9998 71.7969C40.8006 71.7969 41.5461 71.388 41.9762 70.7128L50.5858 57.203C64.2861 58.907 70.4688 63.2788 70.4688 65.9375C70.4688 69.8597 58.5448 75.3125 40 75.3125Z" fill="#A37100"/>
<path d="M40 14.2188C33.5383 14.2188 28.2812 19.4758 28.2812 25.9375C28.2812 32.3992 33.5383 37.6562 40 37.6562C46.4617 37.6562 51.7188 32.3992 51.7188 25.9375C51.7188 19.4758 46.4617 14.2188 40 14.2188ZM40 32.9688C36.123 32.9688 32.9688 29.8145 32.9688 25.9375C32.9688 22.0605 36.123 18.9062 40 18.9062C43.877 18.9062 47.0312 22.0605 47.0312 25.9375C47.0312 29.8145 43.877 32.9688 40 32.9688Z" fill="#A37100"/>
</svg>
