<svg width="121" height="94" viewBox="0 0 121 94" fill="none" xmlns="http://www.w3.org/2000/svg">
<path d="M119.743 31.7322L116.604 26.2956C115.954 25.1702 114.516 24.7845 113.389 25.4343C112.263 26.084 111.878 27.5234 112.528 28.649L115.666 34.0857C115.832 34.3723 115.795 34.6453 115.758 34.7825C115.722 34.9197 115.617 35.1748 115.33 35.3403L107.03 40.1323C106.591 40.385 106.029 40.2342 105.775 39.796L89.078 10.8758C88.8248 10.4371 88.9756 9.87419 89.4143 9.62073L97.7141 4.82894C98.1528 4.57618 98.7162 4.72633 98.9692 5.16501L101.937 10.306C102.587 11.4319 104.027 11.8176 105.152 11.1674C106.278 10.5176 106.663 9.07827 106.013 7.95263L103.045 2.81159C101.495 0.125638 98.0478 -0.798548 95.3609 0.752588L87.0609 5.54461C85.7999 6.27276 84.9275 7.41864 84.5168 8.70737H60.9874C57.6839 8.70737 54.5781 9.99374 52.2419 12.3297L49.831 14.7406C47.7172 14.2367 45.5516 13.9776 43.3737 13.9776H36.0678C35.7028 12.5677 34.796 11.2987 33.4381 10.5146L25.1381 5.72253C23.8366 4.97108 22.3201 4.77175 20.8692 5.16053C19.4178 5.54932 18.2047 6.48033 17.4534 7.78153L0.756196 36.7019C0.00498614 38.0032 -0.194819 39.5192 0.193965 40.9708C0.58275 42.4224 1.51376 43.6353 2.8152 44.3866L11.1152 49.1786C11.9989 49.6888 12.9645 49.9312 13.9184 49.9312C14.266 49.9312 14.6117 49.8975 14.9515 49.8345L21.7449 56.6281C21.6409 57.1621 21.587 57.7097 21.587 58.2661C21.587 60.5275 22.4676 62.6538 24.0668 64.2527C25.5979 65.7836 27.5743 66.6033 29.5829 66.7141C29.5521 67.0092 29.5354 67.3072 29.5354 67.6079C29.5354 69.8696 30.4161 71.9956 32.0152 73.5946C33.6143 75.1937 35.7404 76.0743 38.0018 76.0743C38.0632 76.0743 38.124 76.0713 38.1851 76.0699C38.1837 76.1311 38.1807 76.1918 38.1807 76.2532C38.1807 78.5148 39.0613 80.6409 40.6605 82.2398C42.2596 83.839 44.3857 84.7196 46.6471 84.7196C46.7085 84.7196 46.7692 84.7166 46.8304 84.7151C46.829 84.7763 46.8259 84.8371 46.8259 84.8985C46.8259 87.1599 47.7066 89.2862 49.3057 90.8851C50.9049 92.484 53.031 93.3649 55.2924 93.3649C57.5538 93.3649 59.6801 92.4842 61.279 90.8851L64.6269 87.5374C65.6086 86.5557 66.2958 85.3903 66.6937 84.1515C68.1811 85.2491 69.9485 85.7982 71.7166 85.798C73.8843 85.7977 76.053 84.9726 77.7032 83.3222C78.6907 82.3347 79.4031 81.146 79.8046 79.849C81.167 80.7398 82.7584 81.2189 84.4241 81.2189C86.6855 81.2189 88.8118 80.3383 90.4107 78.7391C91.599 77.5506 92.3897 76.0713 92.718 74.4616C93.5681 74.743 94.4661 74.8915 95.3875 74.8915C97.6489 74.8915 99.7754 74.0109 101.374 72.4115C104.675 69.1104 104.675 63.7392 101.374 60.438L95.8815 54.9452L105.908 44.9189C106.13 44.9455 106.355 44.9606 106.58 44.9606C107.534 44.9606 108.5 44.7182 109.383 44.2082L117.683 39.4164C118.984 38.6649 119.915 37.452 120.304 36.0004C120.693 34.5488 120.494 33.0334 119.743 31.7322ZM5.16838 40.3104C4.88173 40.145 4.77724 39.8901 4.74053 39.7527C4.70381 39.6155 4.66687 39.3425 4.83255 39.0556L21.5298 10.1349C21.6952 9.8483 21.9503 9.74381 22.0876 9.7071C22.1462 9.69156 22.2295 9.6758 22.3278 9.6758C22.4603 9.6758 22.6201 9.70427 22.7844 9.79888L31.0844 14.5909C31.5229 14.8441 31.674 15.4071 31.4207 15.8457L14.7235 44.7662C14.47 45.2046 13.9076 45.3557 13.4686 45.1025L5.16838 40.3104ZM26.2938 58.2658C26.2938 57.2614 26.6849 56.3174 27.3952 55.6072L29.4262 53.5762C30.1591 52.8431 31.1218 52.4767 32.0849 52.4767C33.0474 52.4767 34.0104 52.8433 34.7433 53.5762C35.4535 54.2864 35.8447 55.2304 35.8447 56.2346C35.8447 57.2388 35.4535 58.183 34.7433 58.893L32.7123 60.924C31.2463 62.3902 28.8612 62.3899 27.3952 60.924C26.6849 60.2142 26.2938 59.27 26.2938 58.2658ZM38.0021 71.3675C36.9976 71.3675 36.0537 70.9764 35.3436 70.2663C34.6334 69.5563 34.2422 68.6121 34.2422 67.6079C34.2422 66.6037 34.6334 65.6595 35.3436 64.9495L38.6914 61.6018C39.4242 60.8689 40.387 60.5025 41.3498 60.5025C42.3128 60.5025 43.2756 60.8689 44.0084 61.6018C44.7187 62.3118 45.1098 63.256 45.1098 64.2602C45.1098 65.2644 44.7187 66.2086 44.0084 66.9186L40.6607 70.2663C39.9504 70.9766 39.0063 71.3675 38.0021 71.3675ZM46.6473 80.013C45.6429 80.013 44.6989 79.6219 43.9889 78.9119C43.2786 78.2018 42.8875 77.2576 42.8875 76.2534C42.8875 75.2492 43.2786 74.305 43.9889 73.5948L47.3366 70.2471C48.0695 69.5142 49.0323 69.1478 49.9951 69.1478C50.9578 69.1478 51.9209 69.5142 52.6537 70.2473C53.364 70.9573 53.7551 71.9015 53.7551 72.9057C53.7551 73.9099 53.364 74.8541 52.6537 75.5641L49.306 78.9119C48.596 79.6219 47.6518 80.013 46.6473 80.013ZM61.299 84.2094L57.951 87.5574C57.241 88.2674 56.297 88.6585 55.2926 88.6585C54.2882 88.6585 53.3442 88.2674 52.6342 87.5574C51.9239 86.8471 51.5328 85.9031 51.5328 84.8989C51.5328 83.8945 51.9239 82.9506 52.6342 82.2403L55.9819 78.8926C56.7148 78.1595 57.6775 77.793 58.6406 77.793C59.6031 77.793 60.5661 78.1597 61.299 78.8923C62.7649 80.358 62.7649 82.7435 61.299 84.2094ZM98.0466 69.0838C97.3364 69.794 96.3924 70.1852 95.388 70.1852C94.3838 70.1852 93.4398 69.794 92.7295 69.0838L70.2662 46.6204C69.3472 45.7016 67.8575 45.7014 66.9378 46.6204C66.0188 47.5394 66.0188 49.0296 66.9378 49.9486L87.083 70.0941C87.7933 70.8041 88.1844 71.7483 88.1844 72.7525C88.1844 73.7567 87.7933 74.7009 87.083 75.4111C86.373 76.1212 85.429 76.5123 84.4246 76.5123C83.4201 76.5123 82.4762 76.1212 81.7662 75.4111L57.5587 51.2037C56.6397 50.2849 55.1495 50.2849 54.2303 51.2037C53.3113 52.1227 53.3113 53.6129 54.2303 54.5319L74.3755 74.6774C75.0858 75.3874 75.4769 76.3316 75.4769 77.3358C75.4769 78.34 75.0858 79.2842 74.3755 79.9942C72.9098 81.4601 70.5246 81.4606 69.0584 79.9942L64.6279 75.5637C64.6218 75.5575 64.6149 75.5524 64.6088 75.5465C62.9139 73.8617 60.6782 73.0453 58.4575 73.093C58.4589 73.0307 58.4619 72.9685 58.4619 72.9057C58.4619 70.6443 57.5813 68.518 55.9821 66.9189C54.2851 65.2218 52.0409 64.3998 49.812 64.4475C49.8134 64.3852 49.8164 64.323 49.8164 64.2604C49.8164 61.9988 48.9358 59.8727 47.3366 58.2736C45.4807 56.4177 42.9703 55.6055 40.5416 55.8364C40.4444 53.7247 39.5763 51.753 38.0715 50.2482C34.7703 46.9471 29.3989 46.9478 26.0978 50.2482L24.0668 52.2792C24.0644 52.2816 24.0621 52.2841 24.0597 52.2865L18.8337 47.0605L35.2165 18.6844H43.3735C44.1727 18.6844 44.9698 18.7268 45.7624 18.8092L43.0723 21.4994C41.4731 23.0985 40.5925 25.2248 40.5925 27.4862C40.5925 29.7478 41.4731 31.8739 43.0723 33.4731C44.7229 35.1235 46.8911 35.9489 49.0589 35.9489C51.2271 35.9489 53.3953 35.1237 55.0457 33.4731L61.399 27.1198L98.0464 63.7669C99.5123 65.2326 99.5123 67.618 98.0466 69.0838ZM75.4355 34.4991C78.8602 32.0205 80.9594 28.0207 80.9594 23.6751C80.9594 22.3753 79.9056 21.3217 78.606 21.3217C77.3064 21.3217 76.2526 22.3753 76.2526 23.6751C76.2526 26.7494 74.6287 29.5534 72.0378 31.1018L63.0742 22.1381C62.1549 21.2191 60.6673 21.1951 59.7481 22.1141L51.7175 30.1446C50.2516 31.6106 47.8664 31.6103 46.4005 30.1446C45.6902 29.4346 45.299 28.4904 45.299 27.4862C45.299 26.482 45.6902 25.5378 46.4005 24.8276L55.5701 15.6579C57.0169 14.2111 58.9409 13.4142 60.9874 13.4142H85.1087L101.699 42.1499C101.738 42.2179 101.781 42.2826 101.823 42.3483L92.5537 51.6174L75.4355 34.4991Z" fill="#B98C25"/>
<path d="M109.269 20.6557C109.888 20.6557 110.493 20.4039 110.933 19.9661C111.371 19.526 111.623 18.9212 111.623 18.3022C111.623 17.6809 111.371 17.0761 110.933 16.6359C110.493 16.1982 109.888 15.9487 109.269 15.9487C108.648 15.9487 108.043 16.1982 107.605 16.6359C107.165 17.0761 106.916 17.6809 106.916 18.3022C106.916 18.9212 107.165 19.526 107.605 19.9661C108.043 20.4041 108.648 20.6557 109.269 20.6557Z" fill="#B98C25"/>
</svg>
