<svg width="107" height="100" viewBox="0 0 107 100" fill="none" xmlns="http://www.w3.org/2000/svg">
<path d="M60.979 19.7485C61.5982 18.8155 62.8578 18.5587 63.7915 19.1772V19.1782C64.6669 19.7588 64.946 20.9016 64.4673 21.812L64.3618 21.9907L54.1831 37.3521V37.353C53.4993 38.384 52.0206 38.5605 51.1128 37.7192V37.7202C51.112 37.7195 51.1092 37.7163 51.104 37.7114C51.101 37.7086 51.0973 37.7065 51.0942 37.7036V37.7026C50.9085 37.5275 49.3814 36.0781 47.8823 34.6548C47.0804 33.8933 46.2785 33.132 45.6772 32.561C45.3766 32.2756 45.126 32.0371 44.9507 31.8706C44.8632 31.7875 44.7945 31.7218 44.7476 31.6772C44.7242 31.655 44.706 31.6381 44.6938 31.6265C44.6878 31.6207 44.6825 31.6159 44.6792 31.6128L44.6694 31.603C43.863 30.8309 43.8314 29.5515 44.6011 28.7407C45.3731 27.9286 46.6572 27.8938 47.4702 28.6655L52.1343 33.0942L60.979 19.7485Z" fill="#B98C25" stroke="#B98C25"/>
<path d="M68.7656 0.5C70.5715 0.500083 72.1034 1.89538 72.2607 3.69336C72.681 8.50425 75.7101 12.6407 80.167 14.4912C81.7606 15.152 82.7669 16.6916 82.7461 18.3887L82.7285 18.7295C82.0719 25.8165 78.1045 49.9262 54.5957 61.1064L54.5947 61.1055C54.235 61.2772 53.8352 61.3691 53.4355 61.3711H53.4199C53.026 61.3711 52.6317 61.2846 52.2744 61.1211L52.2734 61.1201C28.635 50.216 24.3853 26.1541 23.6455 19.0752C23.454 17.2489 24.4593 15.5339 26.1445 14.8135C30.5792 12.9162 33.5633 8.74987 33.9346 3.9375L33.9521 3.7666C34.1696 2.01127 35.63 0.693689 37.4141 0.683594L68.7441 0.5H68.7656ZM37.9336 4.73926C37.2862 10.8556 33.4179 16.1161 27.7402 18.5439L27.7412 18.5449C27.7029 18.5614 27.6753 18.6007 27.6807 18.6533C28.366 25.1953 32.2431 47.055 53.4111 57.168C74.4562 46.8063 78.0795 24.9048 78.6875 18.3555C78.6914 18.3128 78.6688 18.2638 78.6104 18.2393V18.2383C72.9123 15.8727 68.9899 10.6614 68.2715 4.56055L37.9336 4.73926Z" fill="#B98C25" stroke="#B98C25"/>
<path d="M17.5469 48.7017C19.8309 48.7018 21.6874 50.5583 21.6875 52.8423V56.3696C25.4163 56.5881 29.0745 57.6749 32.3359 59.5454C38.7187 63.2063 40.989 63.8417 41.6289 63.9438L63.1455 65.8296C63.1833 65.8329 63.2195 65.8371 63.2549 65.8423H63.2539C67.7391 66.4775 71.1855 70.0706 71.6338 74.5786L71.7002 75.2456L75.373 75.4526L95.2266 62.1655C98.3455 60.0702 102.602 60.8932 104.717 64.0005C106.65 66.8416 106.17 70.7023 103.601 72.9839L83.3945 91.1577L83.3887 91.1636C83.371 91.1789 83.3487 91.1977 83.3252 91.2173L83.3203 91.2212C81.1549 92.9868 78.5522 94.1542 75.792 94.5942L75.7607 94.5981L75.7598 94.5991C75.7588 94.5993 75.7575 94.5999 75.7559 94.6001C75.7528 94.6005 75.7485 94.6003 75.7432 94.6011C75.7422 94.6012 75.7412 94.6019 75.7402 94.6021L75.7393 94.6011V94.6021C75.7242 94.6042 75.7015 94.6075 75.6719 94.6118C75.6127 94.6203 75.5247 94.6334 75.4102 94.6499C75.1811 94.6829 74.8453 94.7309 74.418 94.7925C73.5627 94.9158 72.3403 95.0918 70.874 95.3032C67.9413 95.726 64.0307 96.2902 60.1201 96.854C52.3381 97.9759 44.5193 99.1028 44.4512 99.1118L44.4482 99.1128C41.5507 99.3861 39.9434 98.7995 39.8389 98.7593V98.7583L21.6875 91.8843V92.2466C21.6875 94.5299 19.8301 96.3871 17.5469 96.3872H4.64062C2.35738 96.3871 0.5 94.5299 0.5 92.2466V52.8423C0.500119 50.5591 2.35745 48.7018 4.64062 48.7017H17.5469ZM4.64062 52.7603C4.59594 52.7604 4.55872 52.7976 4.55859 52.8423V92.2466C4.55859 92.2914 4.59587 92.3285 4.64062 92.3286H17.5469C17.5916 92.3285 17.6289 92.2914 17.6289 92.2466V70.4253C17.629 69.3041 18.537 68.396 19.6582 68.396C20.7784 68.396 21.6874 69.304 21.6875 70.4253V87.5454L41.1895 94.9302C41.9911 95.1471 42.7763 95.2161 43.5312 95.1401L43.8555 95.0981C43.8598 95.0974 43.8638 95.0964 43.8652 95.0962H43.8662C43.8742 95.0949 43.8886 95.0924 43.9043 95.0903L75.1631 90.5845L75.5439 90.5171C77.4374 90.149 79.2187 89.3187 80.7197 88.104L100.896 69.9585L100.898 69.9556C101.888 69.0772 102.121 67.6365 101.497 66.5054L101.361 66.2837C100.499 65.0168 98.7599 64.6814 97.4883 65.5356L97.4873 65.5366L77.0664 79.2017C76.7012 79.4465 76.2653 79.5679 75.8242 79.5425V79.5415L69.8643 79.2075C69.85 79.2085 69.8298 79.2097 69.8037 79.2114C69.7471 79.2151 69.6624 79.2209 69.5527 79.228C69.3335 79.2424 69.012 79.2629 68.6025 79.2896C67.7827 79.343 66.6098 79.4191 65.2002 79.5103C62.3811 79.6926 58.6126 79.9353 54.8145 80.1743C51.0163 80.4133 47.1873 80.6488 44.249 80.8188C42.7802 80.9038 41.5326 80.9728 40.6221 81.0171C40.1671 81.0392 39.7944 81.0549 39.5195 81.064C39.2659 81.0723 39.0502 81.0766 38.9482 81.0659C37.1935 80.8836 35.585 80.1135 34.3936 78.8218L34.1611 78.5562C33.4424 77.6954 33.5587 76.4152 34.4199 75.6978C35.2804 74.9795 36.5598 75.0962 37.2773 75.9565C37.7276 76.4958 38.3371 76.8534 39.0205 76.9829L39.3184 77.0239L39.3359 77.0249L67.625 75.2788L67.5957 74.981C67.3342 72.3511 65.3335 70.2535 62.7217 69.8657L41.2021 67.981H41.1953L41.1875 67.98C41.1779 67.9789 41.1286 67.9735 41.0928 67.9683V67.9673C40.3375 67.8604 38.3318 67.5492 31.7061 63.853L30.3164 63.0669C27.6688 61.5476 24.708 60.6481 21.6875 60.4351V63.5171C21.6875 64.6374 20.7796 65.5464 19.6582 65.5464C18.5379 65.5464 17.6289 64.6385 17.6289 63.5171V52.8423C17.6288 52.7976 17.5916 52.7604 17.5469 52.7603H4.64062Z" fill="#B98C25" stroke="#B98C25"/>
</svg>
