<svg width="77" height="77" viewBox="0 0 77 77" fill="none" xmlns="http://www.w3.org/2000/svg">
<path d="M38.5 4.8125L9.625 14.4375V43.3125C9.625 59.2614 22.5511 72.1875 38.5 72.1875C54.4489 72.1875 67.375 59.2614 67.375 43.3125V14.4375L38.5 4.8125ZM61.9609 43.3125C61.9609 56.2687 51.4562 66.7734 38.5 66.7734C25.5438 66.7734 15.0391 56.2687 15.0391 43.3125V18.498L38.5 10.2266L61.9609 18.498V43.3125Z" fill="#A37100"/>
<path d="M28.4539 35.7252C28.203 35.4731 27.9048 35.2731 27.5764 35.1367C27.248 35.0002 26.8958 34.9299 26.5402 34.9299C26.1846 34.9299 25.8324 35.0002 25.504 35.1367C25.1756 35.2731 24.8774 35.4731 24.6265 35.7252C24.3744 35.9761 24.1744 36.2743 24.038 36.6027C23.9015 36.9311 23.8312 37.2833 23.8312 37.6389C23.8312 37.9945 23.9015 38.3467 24.038 38.6751C24.1744 39.0035 24.3744 39.3017 24.6265 39.5526L34.3568 49.2829L34.5147 49.4408C34.752 49.6786 35.0339 49.8672 35.3442 49.9959C35.6545 50.1246 35.9872 50.1909 36.3231 50.1909C36.6591 50.1909 36.9917 50.1246 37.302 49.9959C37.6123 49.8672 37.8942 49.6786 38.1316 49.4408L54.9377 32.6346C55.1755 32.3973 55.3641 32.1154 55.4928 31.8051C55.6215 31.4948 55.6878 31.1621 55.6878 30.8262C55.6878 30.4903 55.6215 30.1576 55.4928 29.8473C55.3641 29.537 55.1755 29.2551 54.9377 29.0178L54.7272 28.8072C54.4898 28.5694 54.208 28.3808 53.8976 28.2521C53.5873 28.1234 53.2547 28.0571 52.9187 28.0571C52.5828 28.0571 52.2501 28.1234 51.9398 28.2521C51.6295 28.3808 51.3476 28.5694 51.1103 28.8072L36.3194 43.5906L28.4539 35.7252Z" fill="#A37100"/>
</svg>
