<svg width="97" height="72" viewBox="0 0 97 72" fill="none" xmlns="http://www.w3.org/2000/svg">
<path d="M71.938 69.75L72.856 59.634C73.0539 57.4551 72.4514 55.2786 71.161 53.5118C69.8706 51.7449 67.9808 50.5086 65.845 50.034L54.355 47.481V32.625C54.355 31.1332 53.7624 29.7024 52.7075 28.6475C51.6526 27.5926 50.2218 27 48.73 27C47.2381 27 45.8074 27.5926 44.7525 28.6475C43.6976 29.7024 43.105 31.1332 43.105 32.625V60.75L37.582 56.607C36.5555 55.8307 35.2696 55.4792 33.9909 55.6254C32.7123 55.7717 31.5389 56.4043 30.7141 57.3923C29.8893 58.3803 29.4764 59.6477 29.5609 60.932C29.6454 62.2162 30.2209 63.4186 31.168 64.29L37.054 69.75" stroke="#A37100" stroke-width="4" stroke-linecap="round" stroke-linejoin="round"/>
<path d="M34.105 42.75H29.605C28.4115 42.75 27.2669 42.2759 26.423 41.432C25.5791 40.5881 25.105 39.4435 25.105 38.25V6.75C25.105 5.55653 25.5791 4.41193 26.423 3.56802C27.2669 2.72411 28.4115 2.25 29.605 2.25H65.605C66.7985 2.25 67.9431 2.72411 68.787 3.56802C69.6309 4.41193 70.105 5.55653 70.105 6.75V38.25C70.105 39.4435 69.6309 40.5881 68.787 41.432C67.9431 42.2759 66.7985 42.75 65.605 42.75H63.355" stroke="#A37100" stroke-width="4" stroke-linecap="round" stroke-linejoin="round"/>
<path d="M40.855 2.25H54.355V18H40.855V2.25Z" stroke="#A37100" stroke-width="4" stroke-linecap="round" stroke-linejoin="round"/>
<path d="M88.6472 1.90824C88.2207 1.5108 87.6566 1.29443 87.0737 1.30472C86.4908 1.315 85.9346 1.55114 85.5224 1.96338C85.1101 2.37562 84.874 2.93177 84.8637 3.51468C84.8534 4.09758 85.0698 4.66172 85.4672 5.08824C87.5567 7.17758 89.2142 9.65804 90.3451 12.388C91.4759 15.1179 92.0579 18.0439 92.0579 20.9987C92.0579 23.9536 91.4759 26.8796 90.3451 29.6095C89.2142 32.3394 87.5567 34.8199 85.4672 36.9092C85.0572 37.3334 84.8301 37.9017 84.835 38.4916C84.8398 39.0815 85.0762 39.646 85.4931 40.0634C85.9101 40.4807 86.4743 40.7176 87.0643 40.723C87.6542 40.7284 88.2227 40.5019 88.6472 40.0922C91.1544 37.5851 93.1433 34.6086 94.5002 31.3328C95.8571 28.057 96.5555 24.546 96.5555 21.0002C96.5555 17.4545 95.8571 13.9435 94.5002 10.6677C93.1433 7.3919 91.1544 4.41543 88.6472 1.90824ZM11.0914 5.09124C11.5135 4.66915 11.7506 4.09667 11.7506 3.49974C11.7506 2.90282 11.5135 2.33034 11.0914 1.90824C10.6693 1.48615 10.0968 1.24902 9.49992 1.24902C8.90299 1.24902 8.33051 1.48615 7.90842 1.90824C5.4012 4.41543 3.41237 7.3919 2.05547 10.6677C0.69857 13.9435 0.000183105 17.4545 0.000183105 21.0002C0.000183105 24.546 0.69857 28.057 2.05547 31.3328C3.41237 34.6086 5.4012 37.5851 7.90842 40.0922C8.1144 40.3133 8.3628 40.4906 8.6388 40.6136C8.9148 40.7366 9.21274 40.8027 9.51485 40.808C9.81696 40.8133 10.117 40.7578 10.3972 40.6446C10.6774 40.5314 10.9319 40.363 11.1455 40.1494C11.3592 39.9357 11.5276 39.6812 11.6408 39.401C11.7539 39.1209 11.8095 38.8208 11.8042 38.5187C11.7989 38.2166 11.7327 37.9186 11.6098 37.6426C11.4868 37.3666 11.3095 37.1182 11.0884 36.9122C8.99892 34.8229 7.34143 32.3424 6.21059 29.6125C5.07976 26.8826 4.49772 23.9566 4.49772 21.0017C4.49772 18.0469 5.07976 15.1209 6.21059 12.391C7.34143 9.66104 9.00192 7.18058 11.0914 5.09124Z" fill="#A37100"/>
<path d="M79.4256 10.3919C79.8475 9.97056 80.4194 9.73389 81.0156 9.73389C81.6119 9.73389 82.1838 9.97056 82.6056 10.3919C83.9989 11.7848 85.1042 13.4386 85.8582 15.2587C86.6123 17.0789 87.0004 19.0297 87.0004 20.9999C87.0004 22.9701 86.6123 24.9209 85.8582 26.7411C85.1042 28.5612 83.9989 30.215 82.6056 31.6079C82.1811 32.0176 81.6126 32.2441 81.0227 32.2387C80.4327 32.2333 79.8685 31.9964 79.4515 31.579C79.0346 31.1617 78.7982 30.5972 78.7934 30.0073C78.7885 29.4173 79.0156 28.8491 79.4256 28.4249C80.4008 27.4499 81.1743 26.2923 81.702 25.0183C82.2298 23.7443 82.5014 22.3789 82.5014 20.9999C82.5014 19.6209 82.2298 18.2555 81.702 16.9815C81.1743 15.7075 80.4008 14.5499 79.4256 13.5749C79.0043 13.153 78.7676 12.5812 78.7676 11.9849C78.7676 11.3887 79.0043 10.8138 79.4256 10.3919ZM16.572 10.3919C16.7811 10.6009 16.9469 10.849 17.0601 11.122C17.1733 11.3951 17.2315 11.6878 17.2315 11.9834C17.2315 12.279 17.1733 12.5717 17.0601 12.8448C16.9469 13.1179 16.7811 13.366 16.572 13.5749C15.5969 14.5499 14.8233 15.7075 14.2956 16.9815C13.7678 18.2555 13.4962 19.6209 13.4962 20.9999C13.4962 22.3789 13.7678 23.7443 14.2956 25.0183C14.8233 26.2923 15.5969 27.4499 16.572 28.4249C16.9694 28.8514 17.1858 29.4156 17.1755 29.9985C17.1652 30.5814 16.9291 31.1375 16.5168 31.5498C16.1046 31.962 15.5485 32.1981 14.9655 32.2084C14.3826 32.2187 13.8185 32.0023 13.392 31.6049C10.5799 28.792 9.00018 24.9774 9.00018 20.9999C9.00018 17.0224 10.5799 13.2078 13.392 10.3949C13.8139 9.97356 14.3857 9.73689 14.982 9.73689C15.5782 9.73689 16.1501 9.97056 16.572 10.3919Z" fill="#A37100"/>
</svg>
