<svg width="87" height="87" viewBox="0 0 87 87" fill="none" xmlns="http://www.w3.org/2000/svg">
<path d="M14.5 50.75H23.1819C24.2476 50.75 25.2989 50.9893 26.2523 51.4533L33.6545 55.0348C34.6079 55.4951 35.6591 55.7344 36.7285 55.7344H40.5057C44.1597 55.7344 47.125 58.6018 47.125 62.1398C47.125 62.2848 47.0271 62.408 46.8858 62.4479L37.6746 64.9963C36.0218 65.4528 34.2594 65.2931 32.7156 64.5467L24.8023 60.7188" stroke="#A37100" stroke-width="4" stroke-linecap="round" stroke-linejoin="round"/>
<path d="M47.125 59.8125L63.7746 54.6976C65.2241 54.2529 66.777 54.2773 68.2118 54.7675C69.6465 55.2577 70.8898 56.1886 71.7641 57.4273C73.1018 59.276 72.558 61.9295 70.6078 63.0532L43.3659 78.7749C42.5141 79.2677 41.5708 79.582 40.5936 79.6985C39.6164 79.8151 38.6257 79.7314 37.6819 79.4527L14.5 72.5725M47.125 18.125H54.375M54.375 43.5H47.125C40.2882 43.5 36.8735 43.5 34.7493 41.3757C32.625 39.2515 32.625 35.8368 32.625 29V21.75C32.625 14.9132 32.625 11.4985 34.7493 9.37425C36.8735 7.25 40.2882 7.25 47.125 7.25H54.375C61.2118 7.25 64.6265 7.25 66.7507 9.37425C68.875 11.4985 68.875 14.9132 68.875 21.75V29C68.875 35.8368 68.875 39.2515 66.7507 41.3757C64.6265 43.5 61.2118 43.5 54.375 43.5Z" stroke="#A37100" stroke-width="4" stroke-linecap="round" stroke-linejoin="round"/>
</svg>
