<svg width="107" height="107" viewBox="0 0 107 107" fill="none" xmlns="http://www.w3.org/2000/svg">
<path fill-rule="evenodd" clip-rule="evenodd" d="M36.5072 92.9273C36.5072 88.344 32.7934 84.6302 28.2101 84.6302H18.2536C13.6703 84.6302 9.95654 88.344 9.95654 92.9273V97.9055C9.95654 98.8215 10.7 99.5649 11.616 99.5649H34.8478C35.7638 99.5649 36.5072 98.8215 36.5072 97.9055V92.9273ZM96.2461 92.9273C96.2461 88.344 92.5324 84.6302 87.9491 84.6302H77.9926C73.4093 84.6302 69.6955 88.344 69.6955 92.9273V97.9055C69.6955 98.8215 70.4389 99.5649 71.3549 99.5649H94.5867C95.5027 99.5649 96.2461 98.8215 96.2461 97.9055V92.9273ZM66.3767 92.9273C66.3767 88.344 62.6629 84.6302 58.0796 84.6302H48.1231C43.5398 84.6302 39.826 88.344 39.826 92.9273V97.9055C39.826 98.8215 40.5694 99.5649 41.4854 99.5649H64.7172C65.6332 99.5649 66.3767 98.8215 66.3767 97.9055V92.9273ZM33.1884 92.9273V96.2461H13.2754V92.9273C13.2754 90.1793 15.5056 87.949 18.2536 87.949H28.2101C30.9581 87.949 33.1884 90.1793 33.1884 92.9273ZM92.9273 92.9273V96.2461H73.0143V92.9273C73.0143 90.1793 75.2446 87.949 77.9926 87.949H87.9491C90.697 87.949 92.9273 90.1793 92.9273 92.9273ZM63.0578 92.9273V96.2461H43.1448V92.9273C43.1448 90.1793 45.3751 87.949 48.1231 87.949H58.0796C60.8276 87.949 63.0578 90.1793 63.0578 92.9273ZM31.5289 74.833C32.0268 72.3472 31.3829 69.7718 29.7766 67.8137C28.1703 65.8523 25.7708 64.7172 23.2385 64.7172C23.2352 64.7172 23.2285 64.7172 23.2252 64.7172C20.693 64.7172 18.2934 65.8523 16.6871 67.8137C15.0808 69.7718 14.437 72.3472 14.9348 74.833C15.2401 76.3729 15.5521 77.9195 15.8209 79.2637C16.4448 82.3834 19.1829 84.6302 22.369 84.6302H24.0947C27.2808 84.6302 30.0189 82.3834 30.6428 79.2637C30.9116 77.9195 31.2236 76.3729 31.5289 74.833ZM91.2679 74.833C91.7657 72.3472 91.1218 69.7718 89.5155 67.8137C87.9092 65.8523 85.5097 64.7172 82.9774 64.7172C82.9741 64.7172 82.9675 64.7172 82.9642 64.7172C80.4319 64.7172 78.0324 65.8523 76.4261 67.8137C74.8198 69.7718 74.1759 72.3472 74.6737 74.833C74.9791 76.3729 75.291 77.9195 75.5599 79.2637C76.1838 82.3834 78.9219 84.6302 82.1079 84.6302H83.8337C87.0198 84.6302 89.7578 82.3834 90.3818 79.2637C90.6506 77.9195 90.9625 76.3729 91.2679 74.833ZM61.3984 74.833C61.8962 72.3472 61.2524 69.7718 59.6461 67.8137C58.0398 65.8523 55.6402 64.7172 53.108 64.7172C53.1046 64.7172 53.098 64.7172 53.0947 64.7172C50.5624 64.7172 48.1629 65.8523 46.5566 67.8137C44.9503 69.7718 44.3064 72.3472 44.8043 74.833C45.1096 76.3729 45.4216 77.9195 45.6904 79.2637C46.3143 82.3834 49.0524 84.6302 52.2385 84.6302H53.9642C57.1503 84.6302 59.8883 82.3834 60.5123 79.2637C60.7811 77.9195 61.0931 76.3729 61.3984 74.833ZM88.0154 74.1825L87.1293 78.6098C86.814 80.1796 85.4367 81.3114 83.837 81.3114C83.8337 81.3114 82.1079 81.3114 82.1079 81.3114C80.5049 81.3114 79.1276 80.1796 78.8123 78.6098L77.9262 74.1825C77.6242 72.6724 78.0158 71.106 78.9915 69.9178C79.9672 68.7264 81.4242 68.036 82.9642 68.036H82.9774C84.5174 68.036 85.9744 68.7264 86.9501 69.9178C87.9258 71.106 88.3175 72.6724 88.0154 74.1825ZM28.2765 74.1825L27.3904 78.6098C27.0751 80.1796 25.6978 81.3114 24.0981 81.3114C24.0948 81.3114 22.369 81.3114 22.369 81.3114C20.766 81.3114 19.3886 80.1796 19.0733 78.6098L18.1872 74.1825C17.8852 72.6724 18.2768 71.106 19.2526 69.9178C20.2283 68.7264 21.6853 68.036 23.2252 68.036H23.2385C24.7784 68.036 26.2354 68.7264 27.2112 69.9178C28.1869 71.106 28.5785 72.6724 28.2765 74.1825ZM58.146 74.1825L57.2598 78.6098C56.9446 80.1796 55.5672 81.3114 53.9676 81.3114C53.9642 81.3114 52.2385 81.3114 52.2385 81.3114C50.6355 81.3114 49.2581 80.1796 48.9428 78.6098L48.0567 74.1825C47.7547 72.6724 48.1463 71.106 49.122 69.9178C50.0978 68.7264 51.5548 68.036 53.0947 68.036H53.108C54.6479 68.036 56.1049 68.7264 57.0806 69.9178C58.0564 71.106 58.448 72.6724 58.146 74.1825ZM44.7844 48.9495V54.7176C44.7844 55.909 45.312 57.0308 46.2845 57.9236C47.4494 58.9956 49.3146 59.739 51.4353 59.739H54.7674C56.8881 59.739 58.7533 58.9956 59.9182 57.9236C60.8906 57.0308 61.4183 55.909 61.4183 54.7176V48.9495C64.5446 46.4371 66.5559 42.5441 66.5559 38.1666C66.5559 30.5831 60.5156 24.4432 53.1013 24.4432C45.6871 24.4432 39.6468 30.5831 39.6468 38.1666C39.6468 42.5441 41.658 46.4371 44.7844 48.9495ZM21.3966 47.3797C21.3966 47.3797 20.9419 46.4637 19.8931 46.4637H18.2536C16.9327 46.4637 15.6682 45.9393 14.7323 45.0067C13.7997 44.0708 13.2754 42.8063 13.2754 41.4854V14.9348C13.2754 12.1868 15.5056 9.95653 18.2536 9.95653H87.9491C90.697 9.95653 92.9273 12.1868 92.9273 14.9348V41.4854C92.9273 42.8063 92.4029 44.0708 91.4703 45.0067C90.5344 45.9393 89.2699 46.4637 87.9491 46.4637H86.3095C85.3935 46.4637 84.6567 47.6817 84.8061 47.3797L81.1056 54.7806L76.0544 47.2038C75.7457 46.7424 75.228 46.4637 74.6737 46.4637H69.6955C68.7795 46.4637 68.0361 47.2071 68.0361 48.1231C68.0361 49.0391 68.7795 49.7825 69.6955 49.7825H73.7843L79.9308 58.9989C80.2593 59.4934 80.8235 59.7722 81.4143 59.7357C82.005 59.6992 82.5327 59.3507 82.7949 58.823L87.3152 49.7825H87.9491C90.1494 49.7825 92.2602 48.9096 93.8168 47.3531C95.3733 45.7966 96.2461 43.6858 96.2461 41.4854V14.9348C96.2461 10.3515 92.5324 6.6377 87.9491 6.6377C72.407 6.6377 33.7957 6.6377 18.2536 6.6377C13.6703 6.6377 9.95654 10.3515 9.95654 14.9348V41.4854C9.95654 43.6858 10.8294 45.7966 12.3859 47.3531C13.9424 48.9096 16.0532 49.7825 18.2536 49.7825H18.8875L23.4077 58.823C23.6699 59.3507 24.1976 59.6992 24.7884 59.7357C25.3791 59.7722 25.9433 59.4934 26.2719 58.9989L32.4184 49.7825H36.5072C37.4232 49.7825 38.1666 49.0391 38.1666 48.1231C38.1666 47.2071 37.4232 46.4637 36.5072 46.4637H31.5289C30.9747 46.4637 30.457 46.7424 30.1483 47.2038L25.097 54.7806L21.3966 47.3797ZM58.0995 50.9076C56.5529 51.5415 54.867 51.8899 53.1013 51.8899C51.3357 51.8899 49.6498 51.5415 48.1032 50.9076V54.7176C48.1032 55.1291 48.4318 55.4477 48.8333 55.7166C49.4971 56.1646 50.423 56.4201 51.4353 56.4201H54.7674C55.7796 56.4201 56.7056 56.1646 57.3693 55.7166C57.7709 55.4477 58.0995 55.1291 58.0995 54.7176V50.9076ZM53.1013 27.762C58.7068 27.762 63.237 32.435 63.237 38.1666C63.237 43.8982 58.7068 48.5711 53.1013 48.5711C47.4958 48.5711 42.9656 43.8982 42.9656 38.1666C42.9656 32.435 47.4958 27.762 53.1013 27.762ZM68.9687 30.7058L73.9934 27.9413C74.7965 27.4999 75.0886 26.4909 74.6472 25.6878C74.2058 24.8846 73.1969 24.5926 72.3937 25.034L67.3723 27.7952C66.5692 28.2366 66.2738 29.2489 66.7152 30.0487C67.1566 30.8519 68.1688 31.1473 68.9687 30.7058ZM38.8304 27.7952L33.809 25.034C33.0058 24.5926 31.9969 24.8846 31.5555 25.6878C31.1141 26.4909 31.4061 27.4999 32.2093 27.9413L37.234 30.7058C38.0338 31.1473 39.0461 30.8519 39.4875 30.0487C39.9289 29.2489 39.6335 28.2366 38.8304 27.7952ZM45.7402 21.755L42.7134 16.6041C42.2487 15.8143 41.2299 15.5521 40.44 16.0167C39.6501 16.4813 39.3879 17.4969 39.8525 18.2868L42.8793 23.4376C43.344 24.2242 44.3628 24.4897 45.1527 24.025C45.9426 23.5604 46.2048 22.5415 45.7402 21.755ZM63.3233 23.4376L66.3501 18.2868C66.8148 17.4969 66.5526 16.4813 65.7627 16.0167C64.9728 15.5521 63.9539 15.8143 63.4893 16.6041L60.4625 21.755C59.9979 22.5415 60.2601 23.5604 61.0499 24.025C61.8398 24.4897 62.8587 24.2242 63.3233 23.4376ZM54.7607 19.9595V14.9348C54.7607 14.0188 54.0173 13.2754 53.1013 13.2754C52.1853 13.2754 51.4419 14.0188 51.4419 14.9348V19.9595C51.4419 20.8722 52.1853 21.6189 53.1013 21.6189C54.0173 21.6189 54.7607 20.8722 54.7607 19.9595Z" fill="#B98C25" stroke="#B98C25"/>
</svg>
