<svg width="986" height="416" viewBox="0 0 986 416" fill="none" xmlns="http://www.w3.org/2000/svg">
<path d="M978.213 -158.367C977.619 -158.625 976.941 -158.817 976.268 -158.919C975.596 -159.02 974.808 -159.052 974.027 -158.995C972.705 -158.897 971.042 -158.501 969.161 -157.787C964.072 -155.927 957.135 -152.085 949.42 -147.337C941.704 -142.589 933.182 -136.905 924.921 -131.36C923.884 -130.678 922.879 -129.968 921.842 -129.286C920.172 -128.164 918.533 -127.044 916.892 -125.954C916.172 -125.477 915.452 -125 914.762 -124.525C909.235 -120.818 904.079 -117.41 899.66 -114.661C898.88 -114.18 898.1 -113.698 897.378 -113.252C895.181 -111.909 893.179 -110.792 891.492 -109.911C888.668 -108.461 885.836 -107.131 883.036 -105.774C880.877 -104.736 878.716 -103.729 876.552 -102.752C865.735 -97.8652 854.903 -93.5827 844.017 -90.0226C840.034 -88.7289 836.047 -87.4954 832.05 -86.3823C808.136 -79.6478 783.936 -75.9484 759.023 -74.9498C754.444 -74.7619 749.826 -74.6921 745.174 -74.6803C737.652 -74.6676 730.021 -74.889 722.343 -75.3489C713.269 -75.887 704.052 -76.7171 694.753 -77.8437C694.388 -77.8772 693.961 -77.9363 693.441 -78.0188C693.441 -78.0188 693.411 -78.0166 693.381 -78.0144C692.861 -78.0969 692.251 -78.1728 691.579 -78.2743C682.043 -79.7464 659.355 -83.7845 655.357 -86.363C655.357 -86.363 655.357 -86.363 655.322 -86.421L658.059 -90.6785C658.844 -90.6762 659.725 -90.6203 660.54 -90.6203L660.536 -90.6805C660.536 -90.6805 660.716 -90.6938 660.807 -90.7005C670.019 -89.1136 679.437 -89.2364 689.245 -87.7542C702.935 -85.682 716.723 -83.1027 730.606 -82.4972C732.274 -82.409 733.908 -82.3788 735.539 -82.3786C748.929 -82.3116 762.542 -83.3202 776.233 -85.3029C780.806 -85.9746 785.343 -86.7343 789.932 -87.5888C792.226 -88.0311 794.49 -88.4712 796.779 -88.9736C805.911 -90.9211 814.983 -93.2576 824.027 -95.9853C826.273 -96.6662 828.516 -97.3771 830.76 -98.088C835.245 -99.5399 839.723 -101.082 844.135 -102.71C850.781 -105.169 857.354 -107.805 863.853 -110.616C874.654 -115.32 885.204 -120.55 895.36 -126.205C901.454 -129.591 907.415 -133.15 913.214 -136.847C922.879 -143.01 932.121 -149.596 940.792 -156.532C947.666 -162.034 953.15 -166.314 955.85 -171.87C956.373 -172.968 956.834 -174.091 957.136 -175.324C957.509 -176.804 957.694 -178.391 957.657 -180.113C957.657 -181.747 957.435 -183.516 957.05 -185.455C956.621 -187.571 955.971 -189.823 955.028 -192.355C954.121 -194.8 953.017 -196.655 951.8 -197.987C951.176 -198.667 950.533 -199.194 949.836 -199.626C949.139 -200.059 948.451 -200.371 947.71 -200.589C946.599 -200.9 945.444 -200.996 944.272 -200.909C942.679 -200.791 941.053 -200.307 939.383 -199.608C938.564 -199.245 937.717 -198.85 936.907 -198.366C936.502 -198.124 936.097 -197.882 935.661 -197.638C934.189 -196.712 932.728 -195.636 931.331 -194.503C931.019 -194.238 930.676 -193.97 930.363 -193.705C928.033 -191.717 925.894 -189.592 924.109 -187.583C923.662 -187.096 923.245 -186.611 922.855 -186.159C922.326 -185.545 921.858 -184.935 921.415 -184.388C912.113 -172.503 908.563 -162.92 899.298 -152.58C897.875 -150.992 896.301 -149.393 894.58 -147.752C893.704 -146.931 892.798 -146.107 891.832 -145.279C889.844 -143.558 887.825 -141.866 885.771 -140.231C884.888 -139.499 883.971 -138.826 883.056 -138.123C881.97 -137.286 880.914 -136.451 879.825 -135.645C878.566 -134.704 877.304 -133.793 876.042 -132.883C875.468 -132.477 874.866 -132.039 874.261 -131.631C855.761 -118.701 835.316 -108.774 813.752 -102.123C813.25 -101.965 812.778 -101.809 812.274 -101.681C810.618 -101.195 808.992 -100.712 807.334 -100.256C806.328 -99.9695 805.35 -99.7154 804.342 -99.4591C803.007 -99.1182 801.643 -98.775 800.308 -98.4341C798.884 -98.0865 797.457 -97.7689 796 -97.4492C794.96 -97.2208 793.919 -96.9924 792.878 -96.764C792.312 -96.6615 791.715 -96.5568 791.151 -96.4242C788.739 -95.9429 786.353 -95.524 783.937 -95.1029C783.102 -94.9503 782.233 -94.8557 781.396 -94.7331C779.246 -94.3923 777.061 -94.1094 774.907 -93.8287C774.007 -93.7318 773.108 -93.6349 772.211 -93.5079C770.054 -93.2573 767.893 -93.0669 765.732 -92.8765C764.86 -92.812 763.989 -92.7474 763.117 -92.6828C760.864 -92.5159 758.608 -92.379 756.377 -92.3045C755.596 -92.2466 754.812 -92.2188 754.059 -92.1932C751.618 -92.1032 749.173 -92.0733 746.728 -92.0434C746.155 -92.0312 745.552 -92.0168 744.976 -92.0347C742.016 -92.0272 739.079 -92.1122 736.141 -92.1972C736.081 -92.1927 735.991 -92.186 735.931 -92.1816C729.659 -92.4129 723.428 -92.9195 717.213 -93.6089C716.878 -93.6446 716.573 -93.6825 716.236 -93.7483C713.524 -94.0618 710.807 -94.4354 708.088 -94.8391C707.416 -94.9406 706.773 -95.0444 706.101 -95.1458C703.717 -95.5139 701.329 -95.9421 698.94 -96.3703C698.173 -96.5253 697.409 -96.6502 696.642 -96.8053C694.341 -97.2703 692.041 -97.7352 689.738 -98.2303C688.971 -98.3853 688.232 -98.5727 687.463 -98.7577C685.126 -99.3108 682.786 -99.894 680.447 -100.477C679.77 -100.639 679.121 -100.833 678.444 -100.994C675.886 -101.682 673.323 -102.431 670.759 -103.179C670.327 -103.298 669.926 -103.42 669.494 -103.539C666.494 -104.467 663.522 -105.426 660.546 -106.447C658.314 -107.219 653.856 -109.885 651.417 -109.765C651.23 -109.841 651.013 -109.916 650.826 -109.993C648.305 -110.986 645.784 -111.98 643.259 -113.033C641.793 -113.651 640.325 -114.299 638.887 -114.949C637.855 -115.417 636.796 -115.853 635.764 -116.321C631.667 -118.196 607.548 -130.934 612.75 -137.401C612.75 -137.401 612.75 -137.401 612.78 -137.404C612.81 -137.406 612.84 -137.408 612.87 -137.41C614.96 -136.93 617.029 -136.327 619.077 -135.601C619.264 -135.524 619.481 -135.449 619.668 -135.372C633.357 -130.455 645.958 -121.464 661.467 -124.61C662.539 -124.811 663.608 -125.071 664.7 -125.425C670.283 -127.139 675.695 -130.355 680.935 -134.253C683.541 -136.201 686.103 -138.328 688.6 -140.51C701.083 -151.451 712.049 -164.125 720.336 -165.647C720.933 -165.751 721.501 -165.824 722.1 -165.898C722.699 -165.973 723.302 -165.987 723.903 -166.032C724.504 -166.077 725.139 -166.063 725.745 -166.047C726.986 -166.018 728.259 -165.961 729.502 -165.902C731.413 -165.802 733.292 -165.729 735.189 -165.809C740.186 -166.058 745.004 -167.505 748.868 -173.268C750.61 -175.848 752.763 -181.454 754.733 -187.894C755.146 -189.256 755.527 -190.646 755.937 -192.038C756.388 -193.706 756.838 -195.373 757.229 -197.036C757.579 -198.424 757.899 -199.809 758.192 -201.162C758.414 -202.238 758.637 -203.313 758.832 -204.357C759.221 -206.443 759.529 -208.403 759.73 -210.173C759.846 -211.059 759.906 -211.88 759.968 -212.672C760.002 -213.431 760.039 -214.16 760.022 -214.794C760.005 -215.428 759.963 -216 759.895 -216.509C759.506 -218.901 758.35 -221.055 756.608 -222.953C756.179 -223.436 755.693 -223.884 755.176 -224.33C754.369 -225.026 753.474 -225.686 752.522 -226.312C752.012 -226.667 751.474 -226.991 750.906 -227.312C749.201 -228.305 747.29 -229.222 745.234 -230.069C744.453 -230.404 743.615 -230.705 742.807 -231.008C735.322 -233.752 726.266 -235.683 717.594 -237.311C716.645 -237.482 715.666 -237.652 714.716 -237.824C704.243 -239.71 694.615 -241.206 689.302 -243.173C682.778 -245.594 677.014 -253.246 672.767 -255.11C665.336 -258.342 618.908 -266.341 615.439 -262.18C615.858 -258.156 615.987 -253.566 615.656 -249.063C615.423 -245.687 614.917 -242.321 614.086 -239.264C613.799 -238.244 613.509 -237.254 613.158 -236.29C612.68 -234.984 612.311 -233.444 611.588 -232.603C610.864 -231.763 609.852 -231.567 608.062 -232.887C607.582 -233.245 606.971 -237.012 606.281 -241.833C605.141 -249.888 603.809 -260.925 602.75 -264.205C601.386 -268.341 595.795 -278.971 590.685 -285.946C590.216 -286.577 589.748 -287.178 589.313 -287.751C588.412 -288.894 587.523 -289.887 586.711 -290.644C585.898 -291.431 585.132 -291.98 584.474 -292.294C581.443 -293.643 578.682 -292.985 576.133 -291.101C573.356 -289.019 570.813 -285.412 568.493 -281.245C567.667 -279.762 566.847 -278.188 566.057 -276.617C565.455 -275.362 564.853 -274.107 564.251 -272.852C563.728 -271.754 563.237 -270.628 562.712 -269.56C562.426 -268.934 562.14 -268.308 561.854 -267.681C559.411 -262.326 557.163 -257.59 555.01 -255.252C551.628 -251.552 545.28 -248.328 538.868 -245.159C537.614 -244.552 536.389 -243.947 535.135 -243.34C533.561 -242.557 532.018 -241.777 530.565 -241.004C530.042 -240.723 529.548 -240.444 529.055 -240.166C527.315 -239.19 525.667 -238.19 524.261 -237.178C519.329 -233.605 514.667 -229.235 510.226 -224.337C499.475 -212.435 489.927 -197.354 480.676 -182.749C473.344 -171.191 466.228 -159.982 458.831 -150.931C458.824 -150.628 458.874 -150.36 458.926 -150.061C459.089 -149.498 459.464 -148.921 460.017 -148.387C463.091 -145.225 471.404 -142.725 475.394 -141.477C475.641 -141.404 475.859 -141.33 476.046 -141.253C476.23 -141.206 476.447 -141.131 476.602 -141.082C478.987 -140.291 481.394 -139.622 483.798 -138.983C484.384 -138.814 484.998 -138.678 485.585 -138.51C487.925 -137.927 490.292 -137.376 492.685 -136.888C492.715 -136.89 492.775 -136.894 492.807 -136.866C495.293 -136.355 497.771 -135.933 500.278 -135.544C500.858 -135.466 501.44 -135.357 502.019 -135.279C504.311 -134.935 506.6 -134.62 508.888 -134.336C509.038 -134.347 509.193 -134.298 509.315 -134.277C509.315 -134.277 509.345 -134.279 509.375 -134.281C512.972 -133.852 516.565 -133.482 520.185 -133.146C521.393 -132.751 522.376 -132.128 523.016 -131.237C523.057 -131.089 523.071 -130.908 523.052 -130.756C522.661 -127.459 510.634 -123.814 506.303 -122.736C506.303 -122.736 506.242 -122.732 506.212 -122.73C505.946 -122.649 505.708 -122.602 505.5 -122.556C505.47 -122.554 505.44 -122.551 505.41 -122.549C505.23 -122.536 505.054 -122.462 504.964 -122.456C501.683 -121.88 498.298 -121.478 494.815 -121.189C487.906 -120.647 480.72 -120.569 473.475 -120.486C469.944 -120.436 466.412 -120.386 462.883 -120.306C460.983 -120.256 459.086 -120.176 457.19 -120.066C453.578 -119.889 450.034 -119.596 446.502 -119.153C442.701 -118.659 438.944 -117.988 435.297 -117.052C432.598 -116.368 429.942 -115.505 427.358 -114.497C426.565 -114.196 425.776 -113.835 424.984 -113.504C423.844 -112.996 422.703 -112.488 421.597 -111.921C420.025 -111.109 418.596 -110.005 417.204 -108.812C416.21 -107.952 415.279 -107.066 414.348 -106.18C414.151 -105.983 413.951 -105.817 413.754 -105.621C411.53 -103.429 409.393 -101.274 407.109 -99.8939C403.352 -97.5882 399.431 -95.4518 395.54 -93.3177C388.687 -89.5722 381.767 -85.9124 375.252 -81.6775C375.171 -81.5504 375.18 -81.4301 375.224 -81.2517C375.466 -80.4225 377.17 -79.0357 379.872 -77.2388C380.412 -76.8854 380.984 -76.5041 381.616 -76.1273C383.455 -74.9624 385.633 -73.7016 388.06 -72.3382C389.669 -71.4285 391.37 -70.4954 393.163 -69.5389C395.837 -68.1031 398.667 -66.6181 401.588 -65.1098C418.048 -56.6462 436.758 -47.9862 440.06 -47.0507C440.894 -46.8099 441.755 -46.6014 442.617 -46.3929C444.34 -45.9759 446.116 -45.6536 447.92 -45.3636C448.837 -45.2197 449.724 -45.0737 450.639 -44.9599C456.135 -44.187 461.798 -43.6079 467.103 -42.5486C467.993 -42.3724 468.854 -42.1639 469.715 -41.9554C473.163 -41.0912 476.419 -39.9707 479.322 -38.3097C480.049 -37.8794 480.745 -37.4469 481.417 -36.9519C464.997 -31.0148 448.926 -28.5229 432.778 -29.1118C420.205 -29.5722 407.616 -31.8773 394.724 -35.8242C391.385 -36.8477 388.231 -37.8244 385.259 -38.7843C383.774 -39.2493 382.32 -39.7164 380.895 -40.1858C379.068 -40.7767 377.334 -41.3442 375.63 -41.9139C373.37 -42.6543 371.202 -43.3711 369.126 -44.0646C364.263 -45.6712 359.837 -47.0983 355.666 -48.3326C342.137 -52.323 331.241 -54.2088 316.137 -52.9384C312.653 -52.6501 308.941 -52.1935 304.939 -51.5641C303.595 -51.3435 302.222 -51.1207 300.821 -50.8656C297.988 -50.3531 295.04 -49.7716 291.888 -49.0842C287.159 -48.0681 282.051 -46.8726 276.475 -45.4609L235.454 -31.8609C241.431 -26.6451 247.367 -21.154 253.312 -15.5426C261.239 -8.05057 269.24 -0.382476 277.436 7.05939C281.549 10.7792 285.687 14.4367 289.907 17.967C304.692 30.3372 320.368 41.2796 337.783 48.3712C339.372 49.01 352.615 51.9928 362.823 55.5939C363.94 55.9953 365.058 56.3967 366.085 56.8047C368.17 57.6185 369.986 58.4825 371.44 59.3432C374.317 61.0666 375.653 62.7832 374.077 64.3524C359.62 64.9697 342.074 66.7236 327.782 65.0894C289.239 60.7433 247.383 48.5176 216.5 27.2637C197.972 14.5354 180.959 -9.5227 158.447 -14.4513C147.739 -14.4513 159.257 -16.3204 154.629 -16.7945C153.076 -16.9518 151.586 -17.0834 150.068 -17.1828C141.08 -17.7877 132.701 -17.4998 124.124 -17.0459C122.709 -16.9713 121.264 -16.8946 119.82 -16.8178C116.931 -16.6642 114.011 -16.5085 111.03 -16.3783C106.541 -16.1971 101.898 -16.0649 97.001 -16.0954L14.0755 -16.7295C45.2647 6.61994 72.7233 38.7488 105.512 60.4365C107.163 61.5245 108.813 62.5824 110.46 63.6102C117.14 67.7148 124.028 71.3802 131.235 74.4472C133.045 75.2209 134.85 75.9344 136.683 76.6157C147.714 80.7307 159.482 83.3689 172.221 84.0288C169.86 88.0467 164.538 90.4382 158.447 91.8275C157.587 92.0426 156.692 92.1996 155.799 92.3868C153.117 92.8881 150.331 93.2156 147.689 93.4416C143.244 93.8012 139.049 93.8699 135.934 93.8284C115.378 93.6872 96.8473 87.0413 79.0042 77.4395C77.0219 76.376 75.0373 75.2824 73.0783 74.1264C29.7744 49.163 -10.3819 8.77595 -67.4639 4.19967C-72.5402 3.78903 -77.0343 4.30357 -81.2222 5.27958C-86.4808 6.4862 -91.2929 8.41624 -96.2943 10.2393C-97.1179 10.5424 -97.9437 10.8154 -98.7672 11.1185C-102.068 12.2406 -105.528 13.2534 -109.255 13.923C-114.148 14.7696 -120.563 14.6397 -125.176 16.4037C-125.835 16.4828 -126.461 16.5897 -127.12 16.6688C-127.12 16.6688 -127.15 16.6711 -127.18 16.6733C-131.629 16.5792 -136.546 17.9118 -141.01 18.4242C-149.459 19.383 -157.92 20.1915 -166.376 21.0601C-170.814 21.5099 -175.221 21.9877 -179.652 22.5279C-180.163 22.5657 -180.7 22.666 -181.208 22.7339C-182.255 22.8721 -183.303 23.0102 -184.35 23.1483C-185.277 23.2775 -186.204 23.4067 -187.131 23.5359C-187.878 23.6518 -188.627 23.7375 -189.374 23.8534C-190.599 24.0349 -191.852 24.2488 -193.075 24.4605C-193.582 24.5585 -194.06 24.6242 -194.569 24.6922C-196.15 24.9607 -197.7 25.257 -199.249 25.5533C-199.459 25.5689 -199.637 25.6124 -199.845 25.6581C-201.573 25.9979 -203.298 26.3677 -205.02 26.7677C-205.615 26.9025 -206.237 27.0696 -206.831 27.2045C-207.93 27.4674 -209.028 27.7304 -210.094 28.0212C-210.302 28.0669 -210.511 28.1125 -210.716 28.1883C-211.221 28.3165 -211.723 28.4747 -212.224 28.6329C-213.291 28.9237 -214.355 29.2446 -215.419 29.5655C-215.715 29.648 -215.981 29.7282 -216.274 29.8408C-233.818 35.2862 -251.814 44.4265 -273.421 61.0968C-274.278 61.7655 -275.137 62.4041 -275.994 63.0728C-276.649 63.6055 -277.335 64.1404 -277.99 64.6732C-279.73 66.0729 -281.469 67.4727 -283.176 68.9004C-287.301 72.3531 -291.321 76.0097 -295.209 79.8079C-296.646 81.2155 -298.08 82.6532 -299.484 84.0887C-302.518 87.1882 -305.515 90.3757 -308.477 93.6211C-312.221 97.7415 -315.93 101.92 -319.636 106.128C-322.673 109.591 -325.738 113.086 -328.807 116.521C-330.033 117.913 -331.262 119.275 -332.49 120.637C-334.947 123.361 -337.434 126.087 -339.958 128.725C-361.341 151.279 -384.893 170.242 -417.984 173.42C-423.865 173.977 -434.791 173.727 -445.078 173.128C-447.354 172.994 -449.63 172.86 -451.788 172.687C-452.881 172.617 -453.916 172.512 -454.949 172.437C-458.02 172.18 -460.85 171.906 -463.167 171.624C-463.93 171.529 -464.662 171.432 -465.304 171.328C-468.878 170.806 -472.289 170.03 -475.589 169.125C-478.889 168.219 -482.106 167.217 -485.288 166.273C-491.682 164.386 -497.964 162.794 -504.814 162.908C-505.085 162.928 -505.291 163.004 -505.46 163.168C-506.342 163.899 -506.212 166.068 -505.892 167.527C-505.757 168.122 -505.602 168.595 -505.491 168.859C-504.997 169.821 -503.856 170.947 -502.253 172.19C-501.066 173.13 -499.571 174.139 -497.923 175.167C-497.354 175.518 -496.784 175.869 -496.184 176.218C-493.782 177.644 -491.043 179.136 -488.091 180.642C-487.369 181.012 -486.614 181.41 -485.862 181.778C-484.354 182.544 -482.79 183.275 -481.222 184.036C-480.44 184.402 -479.657 184.768 -478.843 185.161C-475.683 186.622 -472.433 188.075 -469.314 189.388C-468.534 189.723 -467.754 190.059 -466.976 190.364C-464.67 191.313 -462.456 192.238 -460.341 193.05C-458.226 193.862 -456.299 194.596 -454.53 195.222C-451.584 196.244 -449.171 197.003 -447.575 197.339C-417.433 203.699 -392.975 200.223 -371.86 191.184C-370.541 190.633 -369.227 190.021 -367.943 189.411C-362.775 186.971 -357.783 184.211 -352.961 181.19C-350.565 179.681 -348.176 178.082 -345.849 176.457C-341.197 173.177 -336.653 169.664 -332.241 166.008C-331.131 165.079 -330.052 164.151 -328.942 163.222C-325.676 160.408 -322.447 157.506 -319.252 154.546C-318.177 153.558 -317.132 152.573 -316.087 151.588C-312.924 148.6 -309.796 145.554 -306.698 142.51C-304.612 140.479 -302.559 138.421 -300.504 136.393C-298.449 134.364 -296.395 132.306 -294.31 130.275C-289.157 125.203 -284.001 120.161 -278.772 115.295C-272.495 109.474 -266.079 103.915 -259.414 98.852C-258.298 98.0128 -257.181 97.1736 -256.063 96.3645C-241.47 85.7515 -225.608 77.5862 -207.249 74.1683C-199.233 72.6666 -189.691 72.1715 -180.233 71.3799C-173.836 70.8455 -167.514 70.1349 -161.678 68.9763C-158.88 68.4059 -156.146 67.7797 -153.639 66.9585C-147.979 65.0564 -143.02 57.7595 -138.976 53.6169C-136.14 50.7136 -133.575 48.2238 -131.725 47.0882C-131.17 46.8353 -130.578 46.6703 -130.018 46.4776C-129.839 46.8577 -129.717 47.2723 -129.656 47.6914C-130.199 50.9694 -130.802 54.2519 -131.464 57.5388C-132.085 60.5805 -132.738 63.5943 -133.423 66.5803C-133.489 66.918 -133.557 67.2256 -133.652 67.5656C-134.314 70.459 -135.068 73.3291 -135.825 76.169C-135.942 76.6316 -136.086 77.1264 -136.203 77.589C-136.962 80.3988 -137.783 83.1831 -138.606 85.9372C-138.779 86.4644 -138.923 86.9592 -139.096 87.4864C-139.949 90.2427 -140.862 93.0036 -141.808 95.7365C-141.985 96.2035 -142.132 96.6682 -142.309 97.1352C-143.308 99.9629 -144.339 102.763 -145.463 105.539C-145.567 105.759 -145.642 105.976 -145.744 106.226C-146.866 109.032 -148.05 111.813 -149.296 114.568C-149.4 114.788 -149.475 115.005 -149.579 115.225C-162.225 143.153 -181.232 168.406 -207.056 184.844C-207.056 184.844 -207.056 184.844 -207.086 184.846C-208.73 185.906 -210.438 186.91 -212.149 187.884C-212.41 188.025 -212.669 188.195 -212.961 188.338C-214.817 189.383 -216.706 190.401 -218.601 191.328C-240.516 202.211 -262.952 205.659 -285.241 213.12C-286.715 213.623 -288.218 214.127 -289.689 214.66C-291.397 215.271 -293.016 215.845 -294.573 216.444C-297.689 217.613 -300.567 218.734 -303.187 220.078C-303.828 220.398 -304.466 220.748 -305.103 221.128C-308.753 223.244 -311.853 225.864 -314.472 229.659C-314.664 229.916 -314.825 230.2 -315.015 230.486C-316.208 232.33 -317.293 234.407 -318.291 236.841C-318.726 237.903 -319.199 239.269 -319.711 240.911C-320.497 243.359 -321.358 246.419 -322.303 249.969C-323.555 254.691 -324.924 260.27 -326.376 266.369C-327.087 269.417 -327.816 272.618 -328.569 275.912C-330.799 285.79 -333.053 296.548 -335.199 307.147C-337.666 319.524 -339.936 331.706 -341.651 342C-343.617 353.796 -344.855 363.177 -344.854 367.686C-344.887 385.179 -339.247 403.401 -329.523 411.486C-328.944 411.957 -328.367 412.399 -327.763 412.808C-324.743 414.823 -321.4 415.907 -317.725 415.756C-317.725 415.756 -317.695 415.754 -317.665 415.751C-311.098 415.477 -303.488 411.342 -295.14 401.676L-279.295 286.029C-271.027 286.294 -262.738 287.254 -254.441 288.303C-251.667 288.642 -248.92 289.014 -246.143 289.383C-235.068 290.832 -224.004 292.13 -212.92 292.065C-188.369 291.88 -160.59 287.553 -134.315 280.462C-133.279 280.173 -132.213 279.882 -131.177 279.594C-115.755 275.274 -100.946 270.031 -87.7567 264.122C-61.3488 252.3 -39.1787 235.074 -16.837 218.531C-13.2269 215.873 -9.64684 213.217 -6.03228 210.619C-3.42264 208.731 -0.808536 206.904 1.83564 205.074C15.0308 195.986 28.7092 187.711 43.7133 181.424C54.3515 176.975 65.5907 173.298 76.8178 169.863C81.3073 168.472 85.8013 167.14 90.2652 165.811C92.481 165.132 94.7269 164.452 96.9127 163.775C87.794 153.255 73.8713 148.446 62.7963 140.068C61.3249 138.966 54.5797 133.565 49.4349 128.56C48.2962 127.465 47.2176 126.364 46.296 125.343C45.8351 124.833 45.4066 124.35 45.0403 123.893C43.5432 122.037 42.8007 120.579 43.445 119.896C44.3498 119.466 45.1778 119.223 45.9868 119.133C51.6139 118.413 55.0337 124.605 56.3749 125.172C77.086 133.925 98.1122 144.078 119.974 152.051C123.608 153.385 127.267 154.657 130.98 155.835C134.663 157.014 138.372 158.131 142.134 159.154C167.142 165.955 194.058 170.376 222.042 172.478C226.69 172.83 231.395 173.117 236.125 173.341C245.555 173.793 255.088 173.994 264.69 173.918C274.295 173.872 283.97 173.549 293.689 173.01C298.534 172.742 303.404 172.411 308.27 172.021C322.868 170.848 337.543 169.095 352.12 166.835C356.989 166.081 361.854 165.267 366.684 164.394C386.929 160.746 407.009 156.081 426.594 150.454C435.145 148.005 443.591 145.382 451.933 142.555C456.501 141.006 461.035 139.399 465.535 137.734C474.534 134.405 483.397 130.873 492.032 127.117C522.33 113.978 550.353 98.255 574.719 80.0792C574.976 79.8786 575.291 79.6434 575.691 79.3414C576.664 78.6036 578.033 77.5036 579.601 76.2376C580.657 75.4029 581.769 74.5034 582.994 73.5049C583.763 72.873 584.532 72.2411 585.329 71.5768C593.331 64.9925 602.766 56.9403 603.213 55.6363L563.911 41.8751C561.659 40.8316 558.991 39.486 556.095 37.9153C553.229 36.3423 550.102 34.5163 546.994 32.5376C544.902 31.2099 542.835 29.8198 540.766 28.3996C538.724 26.947 536.711 25.4622 534.817 23.9684C529.133 19.427 524.369 14.6661 522.079 10.2665C521.27 8.72271 520.923 7.71957 520.956 6.93042C520.988 6.14128 521.396 5.53611 522.126 4.78606C522.604 4.29678 523.227 3.73618 523.957 2.98612C526.117 4.82321 528.333 6.59562 530.575 8.30562C531.472 8.99564 532.425 9.62104 533.322 10.3111C534.662 11.2709 535.972 12.2329 537.34 13.1604C538.549 13.9786 539.786 14.7645 541.02 15.5203C542.098 16.197 543.145 16.8759 544.22 17.5225C545.674 18.3831 547.123 19.1835 548.604 20.0117C549.486 20.4911 550.337 20.9727 551.217 21.422C552.883 22.2971 554.545 23.112 556.204 23.8969C556.894 24.2391 557.582 24.5513 558.27 24.8635C560.114 25.6951 561.986 26.4945 563.856 27.2637C564.355 27.4688 564.884 27.6717 565.382 27.8769C567.437 28.693 569.517 29.4466 571.593 30.1401C571.872 30.2404 572.181 30.3386 572.459 30.4088C574.719 31.1491 577.008 31.8571 579.321 32.5027C579.577 32.6955 579.775 32.9229 580.057 33.0534C580.996 33.4982 581.997 33.5451 582.989 33.4716C602.934 38.4089 623.893 39.0952 644.82 35.2752C645.091 35.2552 645.359 35.2051 645.627 35.1549C648.608 34.6012 651.612 33.955 654.576 33.1907C682.726 26.1122 714.711 16.5708 746.548 6.2536C778.355 -4.06135 810.016 -15.122 837.457 -25.2345C858.076 -32.8141 889.223 -45.1076 917.667 -61.2556C921.465 -63.4131 925.199 -65.6263 928.866 -67.9254C932.533 -70.2245 936.105 -72.5771 939.58 -75.0133C943.056 -77.4495 946.407 -79.937 949.633 -82.4758C956.083 -87.5835 961.94 -92.9497 966.995 -98.529C975.847 -108.323 982.169 -118.838 984.635 -130.005C984.859 -131.05 985.071 -132.276 985.247 -133.56C985.29 -133.806 985.304 -134.019 985.347 -134.264C985.489 -135.606 985.622 -137.068 985.663 -138.554C985.725 -140.162 985.693 -141.824 985.57 -143.479C985.112 -150.072 983.158 -156.464 978.296 -158.464L978.213 -158.367Z" fill="white"/>
</svg>
