<svg width="838" height="766" viewBox="0 0 838 766" fill="none" xmlns="http://www.w3.org/2000/svg">
<path d="M821.563 434.845C821.388 427.457 822.525 418.461 820.613 411.469C820.222 410.043 818.259 406.213 818.321 405.5C818.412 404.471 819.685 402.74 819.888 400.878C820.477 395.617 819.006 388.268 819.911 383.363C820.301 381.253 820.188 370.707 819.798 368.648H819.787V368.62C819.719 368.246 819.73 367.947 819.883 367.783H819.894C820.052 366.425 820.273 363.89 819.781 363.404C819.108 362.731 816.884 358.363 816.884 358.363C814.921 355.172 813.53 348.666 813.071 347.852C812.302 346.477 807.765 343.965 806.599 342.296C803.488 337.827 805.044 330.07 797.796 327.338C796.331 326.783 793.055 326.54 792.807 326.387C792.631 326.28 792.252 324.826 791.839 324.26C788.45 319.576 784.253 316.142 784.185 309.789C784.168 308.171 784.813 306.79 784.818 305.291C784.841 301.653 784.869 297.982 784.671 294.355C780.485 292.998 770.607 279.787 767.988 279.046C764.429 278.039 765.006 283.42 764.921 285.677L761.301 286.339C759.971 271.234 758.947 254.205 749.165 241.906C749.177 241.549 752.667 240.135 751.728 238.245C751.525 237.832 746.207 231.547 745.726 231.191C743.016 229.182 740.583 230.314 740.074 230.031C739.644 229.793 737.919 226.778 736.906 225.867C734.315 223.525 728.386 222.308 727.373 221.256C725.523 219.327 726.23 210.722 722.27 209.953C719.843 209.483 715.64 210.615 713.524 209.647C712.919 209.37 705.1 203.554 704.444 202.887C702.73 201.15 701.338 198.53 701.066 196.081C700.71 192.822 702.311 183.782 700.976 181.751C700.472 180.987 697.281 181.536 696.557 180.246C705.326 167.211 693.604 155.857 689.084 144.135C686.668 137.872 688.252 136.011 688.077 129.867C687.851 121.822 684.875 113.743 687.398 105.676C683.89 100.363 675.325 97.7949 672.83 91.9338C671.071 87.7983 673 84.5679 666.404 85.6202C662.087 86.3047 658.681 90.2536 654.167 89.3767C653.273 87.1533 653.833 84.6811 653.408 82.503C652.978 80.3022 650.964 77.6433 650.393 75.335C648.718 68.5745 651.689 61.2368 650.574 54.7874C650.201 52.6263 649.448 51.2289 648.984 48.5077C648.255 44.259 644.249 42.4034 642.427 38.8109L644.979 31.5751C644.441 29.6346 640.017 29.233 638.943 27.3887C636.708 23.5756 641.477 15.1291 638.179 8.91728C637.421 7.49162 635.35 5.82834 634.739 4.43663C633.619 1.90212 634.886 -0.219405 630.072 0.0182056C626.87 0.176613 625.342 3.39567 623.153 4.45926C622.061 4.99105 619.888 4.95145 619.311 5.70954C618.559 6.68827 617.625 14.4163 617.06 16.4699C614.418 26.1384 608.511 34.9583 604.404 44.0384C603.884 46.2221 606.933 46.1825 607.94 46.9689C609.994 48.5756 605.745 49.3789 604.913 50.1484C601.57 53.2599 604.268 58.7476 603.657 61.2877C602.763 64.9877 598.56 68.4613 598.158 74.5317C597.932 77.9771 599.477 78.5371 599.81 81.2244C600.455 86.4179 598.69 91.9338 599.239 97.0707C599.414 98.7114 600.846 101.619 600.817 102.078C600.744 103.35 596.716 111.373 595.997 114.213C595.002 118.139 595.279 122.331 594.436 125.663C593.955 127.57 589.01 138.245 587.822 139.982C586.629 141.725 584.456 142.986 583.523 144.734C582.442 146.754 581.786 151.976 580.977 153.226C580.592 153.82 573.6 157.605 572.462 158.007C563.394 161.22 561.566 156.988 554.71 152.921C553.301 152.083 549.567 150.833 548.883 150.262C548.198 149.69 547.315 144.372 546.359 142.601C542.077 134.658 532.244 137.759 525.846 134.262C524.295 133.414 520.126 129.148 518.893 127.638C518.101 126.665 517.461 124.436 517.048 124.102C516.675 123.802 511.832 122.207 510.39 121.426C505.405 118.716 502.922 116.345 496.959 115.05C495.924 114.824 494.04 115.135 493.514 114.818C493.327 114.705 492.495 111.899 491.46 110.931C489.91 109.483 485.644 108.527 484.524 107.401C483.958 106.835 483.772 105.336 483.149 104.527C478.561 98.5869 470.013 97.6421 465.99 91.1475C465.758 90.3328 470.714 82.7689 471.687 81.5751C472.621 80.4324 476.389 77.4905 476.462 77.1737C476.694 76.1384 476.287 74.7523 476.575 73.4511C476.994 71.5729 479.331 69.3212 479.336 67.6693C479.347 65.576 476.83 64.9085 476.558 63.0302C476.462 62.3853 477.441 56.9429 477.684 56.7392C479.28 57.1183 481.95 54.8496 482.878 55.0307C483.839 55.2174 484.281 57.0673 485.537 56.9655C487.72 56.7901 491.833 53.3165 492.207 51.1271C492.49 49.4808 491.183 48.2361 492.009 46.4654C492.218 46.0071 497.146 38.4319 497.53 38.1094C498.667 37.1646 502.418 37.4645 502.328 34.3812C502.288 33.0857 500.161 29.397 499.069 28.6389C497.236 27.3717 494.402 28.0223 494.045 27.7168C493.763 27.4735 493.598 23.5982 490.787 23.3663C488.428 24.8259 478.488 24.2545 480.688 28.8992C481.164 29.9062 484.75 31.9994 482.097 33.1705C479.376 34.3699 478.34 29.1311 476.038 28.4466C474.267 27.9205 473.09 28.9954 472.247 28.9275C471.993 28.9048 471.472 26.8795 469.125 26.3251C468.327 26.1384 461.334 25.5104 460.933 25.6066C459.756 25.8838 460.061 28.7351 457.069 28.2486C453.895 27.7281 451.836 23.1739 448.724 22.3592C447.01 21.9123 445.414 22.7892 443.423 22.6421C442.28 22.5573 433.098 20.1868 432.154 19.7399C430.677 19.0384 430.801 16.6509 429.132 16.0003C425.71 17.3015 415.096 18.0653 412.811 15.3215C411.515 13.7657 409.982 8.55521 408.013 7.70094L401.575 10.1959C399.51 7.94987 397.694 3.84826 394.441 3.11846C391.669 2.5018 387.811 4.35177 384.812 4.88356C382.329 5.32484 378.12 3.80866 380.23 8.86636C383.24 10.3033 386.408 15.5873 389.593 15.6326C390.691 15.6496 391.879 14.8123 392.925 14.9198C395.895 15.214 398.571 22.1725 397.808 24.9503C393.502 23.7623 389.768 28.803 386.199 28.9501C384.903 29.001 383.63 28.3334 382.272 28.3221C375.506 28.2656 369.011 28.6446 362.522 26.1836L358.777 31.462C356.412 32.1409 353.816 31.0547 351.943 33.1139L351.349 37.8944C347.938 38.7996 343.802 39.8689 345.76 44.1855C341.132 43.5009 339.865 47.2857 340.079 51.2402C340.255 54.397 343.683 55.8906 339.932 57.882C338.648 58.5609 335.921 58.7249 335.293 59.4661C334.003 60.9822 333.455 68.467 332.227 70.4018C331.865 70.9675 329.11 71.8897 327.916 73.0212C325.365 75.4369 324.584 79.4593 324.346 82.8198C326.44 86.152 331.378 86.4292 331.622 91.1475C329.076 91.7471 326.604 91.8263 323.984 91.7132C318.593 91.4699 305.756 89.4333 300.602 87.9397C294.062 86.0501 291.081 75.0069 283.087 72.6421C278.85 71.3918 279.217 71.8727 275.234 69.7456C272.179 68.1162 268.378 66.8037 265.193 69.1402C262.913 70.8091 266.041 77.0266 262.398 76.3307C261.232 76.1045 260.446 73.553 258.104 74.4581C253.595 76.2063 248.662 81.9825 246.755 86.3839C239.587 83.6967 226.072 91.9225 231.542 99.8598C232.114 100.686 233.211 100.46 233.172 101.331C222.994 99.7241 229.206 106.818 228.08 108.125C222.53 105.551 220.358 112.233 215.119 112.131C214.389 117.381 213.36 121.68 217.303 125.873L213.399 131.072L202.356 127.575L195.918 130.84C195.358 131.785 198.096 135.875 198.141 137.855C198.181 139.626 196.88 140.899 197.202 142.087L203.765 148.581C201.954 148.949 200.727 146.765 198.814 148.434L198.107 155.082C196.789 155.364 197.196 154.918 196.84 154.357C194.436 150.578 191.358 144.859 189.514 140.768C187.76 136.876 187.828 131.869 181.961 137.527C178.555 140.814 168.332 154.584 167.704 158.912C167.303 161.661 167.795 169.044 169.017 171.448C169.594 172.586 171.602 173.842 171.97 175.318C173.119 179.935 164.893 183.578 162.46 186.475C156.944 193.043 159.032 199.984 154.274 206.009C146.399 215.972 137.194 218.795 125.823 222.252C123.532 222.948 121.342 224.713 119.062 225.103C115.526 225.708 110.361 223.728 107.606 224.967C105.558 225.884 103.787 232.446 101.688 233.765C98.1469 235.988 91.8728 233.708 87.9579 235.875C84.439 237.827 84.9029 242.788 80.2752 244.599C74.4084 246.895 68.966 244.468 63.1842 245.045C51.7676 246.183 41.0921 263.358 33.7601 271.064L18.4908 280.121C17.3084 282.418 16.0015 295.379 13.9592 295.379C11.5379 293.399 13.6085 280.359 8.97507 280.778C3.4874 281.27 2.97258 291.38 2.08437 295.396C1.47903 298.151 -0.269106 300.584 0.0646803 303.605C0.375837 306.456 3.79856 308.323 4.749 310.824C5.32605 312.34 4.87346 321.432 4.50007 323.27C4.03051 325.573 1.54691 328.543 0.822768 331.473C-0.150303 335.422 -0.631175 343.348 1.53561 346.856C2.88206 349.034 6.43491 351.11 7.92846 353.475C9.21834 355.517 9.24663 357.746 10.2706 359.619C12.9466 364.507 21.7268 370.594 24.3745 375.55C25.2684 377.219 23.5655 379.409 24.9798 381.117C24.5442 381.954 24.0011 381.174 23.5655 380.834C18.3494 376.755 15.2152 369.384 8.35842 367.296C2.40118 374.769 10.3611 380.432 14.2478 386.197C12.2337 386.463 9.00902 385.089 8.08686 387.798C12.8334 397.105 24.0124 403.701 27.288 413.896C28.0857 416.385 28.0009 419.621 29.0305 421.771C34.2749 432.735 50.274 443.875 51.5809 456.926C52.6331 467.454 53.7873 472.688 59.2693 482.051C62.1432 486.961 72.3152 498.366 73.3845 502.445C74.0464 504.963 73.3732 507.577 73.656 510.094C74.6291 518.784 78.3913 532.611 75.3759 540.678C73.0224 546.969 70.1654 540.322 66.6522 541.549C65.6847 542.143 65.2378 544.271 65.1982 545.261C65.0794 548.327 66.8275 558.137 67.6875 561.35C68.0439 562.68 68.4908 562.98 69.2715 563.947C76.8355 563.738 82.2157 565.825 88.0597 570.368C89.1629 571.228 90.8601 573.604 91.7653 574.017C93.4682 574.792 95.4766 573.938 97.038 574.317C97.4736 574.424 97.4284 575.471 97.7112 575.477C98.5203 575.482 99.2387 574.56 100.025 574.47C104.019 574.006 111.572 575.856 116.924 575.437C121.025 575.12 136.742 569.395 139.27 566.668C141.63 564.128 143.236 557.735 147.032 556.892C148.684 556.524 150.308 556.932 152.192 556.394C152.848 556.208 157.114 553.526 157.261 553.266C158.257 551.501 156.175 548.282 159.926 545.459C163.031 543.122 170.867 542.93 175.036 541.9C181.537 540.299 188.111 536.984 194.933 537.612C199.64 538.047 202.65 540.203 208.036 539.818C212.528 539.501 217.637 536.254 221.274 536.09C222.575 536.033 222.819 538.013 224.98 538.155C234.62 538.783 242.574 521.726 244.068 513.902C247.757 513.013 251.439 511.933 254.868 510.281C261.283 507.186 275.399 494.378 280.994 494.497C284.609 494.57 289.197 495.657 292.846 495.702C305.27 495.843 316.72 486.384 327.288 480.868C338.699 474.917 351.247 477.858 363.58 476.427C366.635 476.076 372.955 473.762 374.793 473.768C382.329 473.791 392.586 488.285 401.377 486.067C402.096 485.886 402.107 483.833 403.736 483.804C408.206 485.117 411.849 489.603 416.737 489.467C418.31 489.422 420.041 488.342 421.365 488.336C424.505 488.313 426.802 494.005 426.117 496.782L431.152 498.259C427.481 505.625 433.319 511.893 440.707 512.171C442.054 515.163 442.529 519.129 444.289 521.89C445.76 524.198 449.912 526.212 450.693 527.932C451.4 529.488 450.789 531.864 451.123 533.725C451.434 535.468 454.642 545.628 455.377 547.009C456.492 549.096 460.22 551.546 462.715 550.686C470.76 547.92 473.792 534.449 481.825 528.486C484.722 526.331 491.143 525.199 492.15 524.385C493.542 523.259 496.099 515.378 497.496 513.042C498.928 510.654 501.96 508.657 502.509 507.729C503.363 506.276 502.249 503.764 504.166 504.16L505.343 509.438C498.181 511.005 503.227 516.974 502.209 519.418C501.457 521.228 495.76 524.815 494.707 527.219C492.518 532.198 493.678 541.906 491.307 547.014C491.064 547.535 490.821 548.004 490.221 548.191L484.337 548.531C482.815 549.594 484.235 557.526 485.887 559.053C490.781 558.075 500.472 561.429 502.916 556.36C505.089 551.857 505.892 545.198 507.572 540.361C517.19 549.028 509.332 559.483 502.899 567.228C502.899 567.228 503.471 568.512 504.93 568.965C508.03 569.995 511.957 570.068 515.232 569.802C516.794 569.672 519.475 568.484 520.216 568.603C520.658 568.677 521.008 570.119 521.67 570.662C524.165 572.71 529.172 574.487 530.637 577.542C532.057 580.495 533.896 592.715 533.545 596.041C533.415 597.263 532.555 598.372 532.493 599.521C532.357 602.089 536.074 610.004 537.455 612.589C538.62 614.779 545.692 625.726 547.174 626.631C548.243 627.287 550.851 626.778 552.413 627.049C558.545 628.119 564.22 636.016 567.869 636.543C570.675 636.95 571.224 633.391 573.769 633.94C578.199 636.124 582.849 637.963 587.155 640.395C592.931 643.66 597.287 649.402 604.625 647.309C607.329 646.539 623.068 639.015 624.59 637.295C625.614 636.135 626.598 634.11 626.943 632.577C629.913 634.885 624.578 636.859 625.229 640.752C625.874 644.61 637.036 646.488 639.593 648.485C641.109 649.673 641.754 652.61 643.299 653.832C648.073 657.611 658.161 650.539 663.665 650.347C675.065 640.078 681.181 634.732 697.366 635.405C702.701 635.626 710.26 637.589 715.34 635.83C716.03 635.592 720.697 631.434 721.422 630.597C727.198 623.938 725.789 614.06 727.911 605.97C729.732 599.028 735.69 587.651 740.413 582.266C741.766 580.721 746.376 577.66 747.134 575.975C747.785 574.526 747.728 571.613 748.277 569.763C750.45 562.47 754.676 558.985 757.923 552.819C759.428 549.956 760.169 546.545 761.895 543.778C764.355 539.841 771.529 532.492 775.144 529.307C777.068 527.615 787.036 521.036 787.449 520.396C788.054 519.463 788.06 516.374 789.039 514.914C789.729 513.879 791.081 513.579 791.862 512.646C795.041 508.872 803.833 493.858 804.896 489.428C805.451 487.108 803.737 483.997 804.817 481.468L804.574 478.396C808.8 471.279 811.238 463.268 814.831 455.84C816.166 453.085 821.75 444.463 822.078 442.72C822.604 439.931 821.574 437.374 821.512 434.845H821.563ZM522.96 137.306C527.729 139.71 536.86 140.09 540.628 142.686C543.18 144.446 544.323 149.826 545.081 152.66L562.879 163.432C567.863 164.869 581.413 160.105 584.236 155.608C585.571 153.481 585.882 149.956 587.268 147.325C588.167 145.617 589.808 143.58 591.024 142.019C598.266 132.69 598.045 123.892 601.106 113.075C602.135 109.438 604.97 104.816 604.857 101.087C604.806 99.3846 603.595 97.4215 603.352 95.8091C602.56 90.6439 605.405 86.4688 604.93 81.7901C604.71 79.5894 603.137 78.3165 602.78 76.5797C601.389 69.8983 606.905 66.651 608.053 61.1803C608.591 58.6231 607.567 55.8906 607.827 54.7535C608.229 53.0223 613.807 50.0465 613.971 47.2348C614.146 44.1911 608.789 44.3948 609.501 41.7415C609.637 41.2323 613.315 36.2991 614.056 34.93C618.468 26.8286 621.84 17.7428 623.023 8.53823C626.343 9.27935 627.418 6.00373 629.794 4.56675C629.11 8.10262 632.176 8.50429 633.523 10.1789C636.883 14.3427 629.874 32.271 639.978 32.865L637.958 40.2253C638.62 42.9917 643.802 45.3339 644.396 47.3989C644.77 48.6944 644.334 50.2558 644.634 51.6872C644.838 52.6659 645.72 53.4806 645.946 54.3348C647.067 58.5779 644.837 65.5817 645.154 70.4075C645.482 75.3577 647.694 77.8922 648.883 81.9542C649.873 85.343 649.443 92.9804 653.539 94.2703C660.158 96.3579 661.951 89.3484 668.265 90.0103C668.542 98.9094 678.182 101.393 682.9 107.367C681.78 114.382 682.584 121.516 683.551 128.469L682.985 138.653C685.09 149.175 697.332 162.204 695.409 173.417C694.464 178.922 686.436 182.531 697.157 185.417C697.593 190.163 695.007 193.642 696.444 198.463C697.072 200.567 701.349 206.083 703.092 207.656C704.008 208.482 712.664 214.133 713.377 214.343C714.961 214.807 720.335 214.083 720.839 214.518C721.614 219.033 723.419 224.933 728.137 226.738C729.647 227.315 731.967 227.191 733.093 228.005C734.303 228.877 737.064 234.466 738.422 235.122C740.063 235.909 743.763 234.862 745.268 236.763C746.863 238.783 744.707 239.699 744.311 241.04C743.616 243.405 750.054 249.668 751.157 252.372C755.185 262.25 755.394 270 755.971 280.37C756.05 281.785 757.414 288.834 757.097 289.139C757.069 289.167 756.984 289.167 756.871 289.162L755.943 288.766C755.903 288.851 755.841 288.998 755.768 289.173C755.587 289.224 755.434 289.315 755.349 289.479L755.575 289.626C751.389 299.571 716.703 383.193 719.436 419.208C719.798 423.949 720.154 428.254 720.494 432.175C719.668 432.13 719.057 432.079 718.814 432.011C717.218 431.479 715.498 431.332 711.47 431.185C710.69 431.157 709.847 431.134 708.975 431.111C705.575 431.021 701.344 430.908 699.16 430.376C697.208 429.901 692.999 429.409 689.288 428.979C687.291 428.747 685.407 428.526 684.762 428.402C682.855 428.034 632.94 422.767 627.22 422.161L571.274 417.138L575.263 349.639L573.283 349.526C570.579 349.373 547.004 348.055 515.108 346.822L522.972 137.306H522.96ZM607.838 552.7C607.516 552.061 607.238 551.506 601.366 549.492C595.42 547.456 594.73 547.795 594.062 548.129C593.502 548.412 593.089 548.847 592.761 549.311C591.777 547.659 590.549 545.295 590.312 544.672C590.215 544.389 590.193 543.456 590.181 543.009C590.17 542.619 590.159 542.262 590.136 541.985C590.046 540.989 589.469 540.158 586.289 537.889C584.643 536.712 582.827 535.547 581.973 535.123C581.684 534.975 581.441 534.851 581.231 534.738C580.315 534.251 579.07 533.589 577.707 534.506C576.954 534.874 573.928 535.734 572.429 535.451C571.059 535.196 568.299 533.606 566.969 532.837C566.132 532.356 565.826 532.181 565.538 532.073L564.621 531.728H564.508L571.042 421.081L626.841 426.093C648.956 428.424 682.437 432 684.021 432.277C684.807 432.43 686.583 432.633 688.835 432.899C692.077 433.278 696.512 433.793 698.226 434.212C700.823 434.845 705.1 434.958 708.879 435.06C709.739 435.083 710.571 435.106 711.34 435.134C715.181 435.27 716.522 435.405 717.575 435.756C718.18 435.96 719.419 436.079 720.85 436.146C722.915 460.009 723.543 468.173 716.262 479.097C710.209 488.178 707.482 490.904 705.298 493.088C704.178 494.208 703.126 495.261 701.881 496.918C698.849 500.958 686.634 518.891 679.331 529.601L676.355 533.968C674.052 537.34 672.632 539.807 671.591 541.612C669.775 544.763 669.159 545.826 666.669 547.224C661.979 549.86 643.485 558.312 639.372 558.827C634.943 559.381 631.848 559.387 631.826 559.387C631.175 559.387 615.775 559.325 610.921 560.292L606.95 561.084C606.842 561.022 606.735 560.96 606.639 560.903C606.514 560.671 606.401 560.439 606.35 560.287C606.452 559.851 606.758 558.878 606.99 558.142C608.064 554.714 608.353 553.684 607.849 552.677L607.838 552.7ZM603.55 563.494L603.821 563.902L604.234 564.128C603.391 566.702 601.106 572.461 596.207 577.881C587.856 587.108 576.038 591.227 561.04 590.146L564.248 535.869C564.44 535.977 564.717 536.135 564.978 536.282C567.241 537.583 569.809 539.003 571.682 539.354C574.103 539.812 577.599 538.856 579.206 538.161C579.257 538.189 579.314 538.217 579.359 538.245C579.591 538.37 579.862 538.511 580.185 538.675C581.424 539.298 585.118 541.844 586.199 542.862C586.199 542.947 586.199 543.037 586.204 543.128C586.233 544.09 586.261 545.176 586.572 546.03C586.793 546.63 587.8 548.615 588.682 550.194C590.572 553.56 591.449 554.482 592.767 554.482C594.351 554.482 595.109 553.124 595.613 552.225C595.658 552.146 595.714 552.044 595.771 551.942C597.576 552.332 601.875 553.809 603.889 554.663C603.691 555.382 603.397 556.321 603.188 556.977C602.549 559.008 602.345 559.715 602.345 560.304C602.345 561.56 603.182 562.957 603.544 563.494H603.55ZM321.161 95.6621H335.333L336.091 94.7229C336.889 92.2167 335.31 86.4292 333.381 84.6019C331.729 83.0404 328.403 82.7971 328.917 79.6856C329.63 75.3577 334.139 75.2841 335.548 73.2531C337.053 71.092 337.075 66.3059 338.19 64.5804C339.191 63.0359 347.406 58.4873 348 56.23C347.649 53.9501 345.262 53.0676 344.871 51.0988C344.741 50.4538 344.826 49.6958 345.262 48.734C345.262 48.734 344.696 48.0495 346.863 47.1839C349.03 46.3183 348.741 47.4724 350.908 45.3056C353.075 43.1388 353.51 42.5618 354.087 41.2606C354.449 40.4459 354.879 38.6921 355.151 37.4984C355.179 37.1194 355.264 36.7177 355.417 36.2651C359.168 36.6951 363.773 35.6315 363.914 31.1791C369.39 33.1196 374.969 31.9146 380.592 32.3163C382.9 32.4803 384.824 33.7023 387.387 33.4704C390.277 33.2101 392.252 30.1382 394.871 29.612C397.315 29.1198 399.986 30.042 402.299 28.837C403.629 24.4638 399.912 12.1646 395.618 10.5579C394.034 9.9639 388.648 12.3457 387.115 9.39816C389.174 7.11258 391.194 7.08995 393.836 8.32891C399.001 10.7559 400.133 18.5744 406.899 12.5097C407.725 14.8066 409.009 18.6084 411.3 19.7116C412.986 20.5262 418.961 21.8557 420.861 21.9067C422.349 21.9463 424.618 21.0863 425.879 21.2561C427.707 21.505 434.456 24.9786 438.116 25.7084C441.33 26.3477 445.12 26.178 447.808 26.7663C451.23 27.5244 452.571 33.2441 459.298 33.3742C463.603 33.459 463.02 31.1621 464.616 30.2909C467.048 28.9614 469.871 33.5269 471.246 33.9173C472.587 34.2963 474.42 33.2667 474.725 33.4817C474.991 33.674 475.704 35.9426 477.192 36.9893C481.345 39.9141 486.453 38.2226 487.194 33.1083C487.353 32.0221 486.849 28.8596 487.579 28.2995C491.081 26.8003 490.64 31.9202 492.167 32.9216C494.108 34.1945 495.494 31.4959 496.851 33.1592C493.333 36.5593 491.522 41.3568 487.511 44.2081L487.811 50.98C482.849 48.2418 478.012 53.1015 473.192 54.4649C473.368 57.7858 471.914 61.565 472.553 64.8293C472.847 66.3511 474.601 67.0074 474.652 67.6636C474.697 68.2237 472.972 70.6507 472.666 71.7539C472.366 72.8288 472.757 74.0056 472.553 74.9051C472.491 75.1823 469.215 77.6772 468.35 78.7465C465.939 81.7222 464.406 85.6711 461.504 88.3357C460.972 93.3482 465 97.5177 468.966 100.097C471.45 101.715 476.496 103.43 478.499 105.274C479.913 106.575 480.264 109.313 481.18 110.23C483.715 112.764 490.379 112.6 490.153 118.795C497.315 118.037 502.43 122.331 508.364 125.188C509.654 125.81 513.128 126.467 513.693 126.93C514.44 127.536 517.393 133.425 518.791 134.562L519.108 134.777L511.153 346.686C451.366 344.44 365.232 342.647 330.417 349.062L320.448 95.6338L321.178 95.6734L321.161 95.6621ZM99.8497 571.143L98.5202 571.222C98.0846 571.313 97.6377 571.347 97.1681 571.302L96.84 571.324V571.262C95.5727 571.064 94.1754 570.374 92.5404 568.988C91.2109 567.862 89.8418 565.367 88.0993 564.094C84.1335 561.186 78.0122 559.896 73.1695 560.072L71.41 548.813C77.2768 549.436 78.8891 548.644 80.7334 543.145C84.3259 532.418 79.8169 521.245 79.8961 510.343L77.0787 500.16C73.8427 490.452 64.7456 484.579 60.7911 475.556C71.444 476.031 100.981 477.626 115.555 481.309C131.865 485.428 131.243 492.273 128.742 504.013C126.745 513.376 124.765 531.445 123.922 539.156C123.775 540.52 123.639 541.73 123.577 542.273C121.823 544.791 108.347 561.016 99.8554 571.143H99.8497ZM331.096 474.43L303.188 489.518C292.478 494.208 283.732 486.169 271.953 493.36C261.696 499.622 252.843 509.082 240.136 511.039C238.473 518.128 234.773 530.732 226.949 533.261C224.821 533.951 224.595 532.367 223.175 531.977C218.791 530.772 211.43 536.033 205.756 535.835C202.005 535.705 199.278 533.629 196.025 533.114C189.35 532.062 180.569 536.497 173.831 537.804C168.468 538.845 162.783 538.053 158.268 541.476C154.97 543.976 152.599 546.63 153.391 551.026C147.971 551.942 142.116 554.137 138.739 558.72C137.749 560.055 136.832 563.07 135.882 563.783C135.05 564.411 132.697 564.807 131.367 565.491C128.397 567.03 122.943 570.877 119.781 570.877H105.23C127.13 544.734 127.294 543.92 127.413 543.331C127.463 543.066 127.537 542.432 127.848 539.586C128.685 531.932 130.654 514.004 132.606 504.833C135.367 491.883 135.825 482.339 116.516 477.462C99.895 473.265 65.6961 471.765 58.3358 471.483C56.2709 465.378 56.1181 458.855 54.7264 452.632C53.4139 446.748 51.3433 443.852 47.8753 439.117C44.6676 434.738 34.3654 424.158 32.804 420.244C31.9215 418.026 32.4589 414.858 31.5141 411.916C28.9513 403.979 20.4313 397.608 15.4075 391.249C16.6974 390.706 22.3605 391.538 22.1342 389.083C21.8852 386.401 13.7216 378.956 12.0131 376.263C13.0767 376.014 13.3596 376.851 13.9932 377.389C16.3523 379.375 24.861 389.235 26.9882 389.286C30.1677 384.523 30.5806 377.774 27.7519 372.682C24.9119 367.556 17.3424 362.64 14.4458 358.555C13.8065 357.65 12.9013 354.097 11.8999 352.327C10.5761 349.984 5.77299 345.204 5.36 343.592C4.92438 341.894 4.95833 333.782 5.25817 331.881C5.63721 329.454 8.04726 327.338 8.48853 324.928C8.94112 322.456 8.42631 319.672 8.62431 317.143C8.76009 315.395 9.73316 313.647 9.77276 312.018C9.86894 308.08 5.20725 306.134 4.69243 302.96C3.9004 298.067 7.75308 293.495 7.49284 288.568L10.4121 299.781L18.1796 299.249L22.1568 283.148C30.8579 278.967 37.3865 272.789 43.9887 265.944C48.0676 261.712 54.2625 252.96 59.5691 250.409C67.6366 246.533 84.9425 254.697 89.5193 240.191L104.636 237.487L110.265 228.69C113.371 227.632 117.699 229.906 119.707 229.567C120.386 229.454 121.993 228.034 123.339 227.621C136.125 223.723 141.709 222.891 152.588 213.873C161.849 206.196 159.569 203.786 163.048 193.784C165.673 186.243 170.494 186.582 174.974 181.949C181.344 175.352 172.802 171.381 171.687 165.961C169.622 155.925 180.077 149.328 184.015 141.481C184.931 140.842 186.08 143.145 186.504 143.789C189.898 148.977 191.579 155.568 195.98 160.337C202.905 167.839 203.442 159.489 202.113 153.362C212.454 154.437 207.906 144.095 202.073 141.108C202.99 138.155 203.052 135.19 201.547 132.429C203.861 131.785 205.281 134.178 207.035 134.574C208.398 134.879 209.886 134.534 211.3 134.834C212.907 135.173 216.85 136.91 217.97 136.141C219.566 135.049 218.615 130.562 219.356 129.024C219.888 127.92 222.457 127.598 222.468 125.935C222.513 123.485 217.263 120.747 219.373 116.029C220.103 114.399 222.355 114.241 223.758 113.636C224.499 113.313 225.07 112.3 225.659 112.176C227.509 111.786 229.958 115.355 232.097 114.06C233.862 112.991 233.381 108.199 232.108 106.677C232.318 104.278 241.601 108.94 239.321 101.144C238.812 99.4072 235.627 97.4554 235.282 96.6238C234.094 93.7612 239.01 90.8985 241.477 90.6043C247.112 89.9311 248.413 95.3566 251.428 88.1208C253.516 83.1083 251.157 84.4378 256.039 81.4167C256.78 80.9585 257.985 79.4027 258.387 79.3744C259.252 79.3065 261.476 81.7562 262.494 81.9768C265.939 82.7123 269.928 74.9051 269.707 71.8954C272.819 73.3889 275.234 76.5061 278.827 76.9531C280.405 77.1511 281.859 76.3307 283.189 77.0323C286.685 78.8822 290.379 85.4844 293.446 88.3188C299.131 93.5632 302.678 92.1714 309.711 93.5575C311.968 94.0044 314.231 94.689 316.46 95.2774L331.373 474.368L331.101 474.424H331.096V474.43ZM555.14 622.931H555.123C551.242 623.236 548.662 621.183 546.405 618.354C543.887 615.197 537.839 604.069 537.257 600.324C537.03 598.864 538.049 597.614 538.156 596.058C538.677 588.721 535.09 582.085 534.467 574.849C533.873 573.514 521.636 563.359 520.194 563.053C518.621 562.719 513.184 566.651 510.435 565.22C509.965 564.801 511.747 562.023 513.665 559.461C516.896 553.696 516.075 544.604 516.075 544.604C514.457 542.143 513.529 539.281 512.019 536.769C511.04 535.145 508.687 530.517 506.741 531.819C502.633 534.562 501.841 548.717 499.409 553.362C498.69 554.216 489.101 554.929 488.371 553.911C488.535 550.562 493.989 553.362 495.443 551.659C498.141 544.321 495.041 532.441 500.817 526.484C502.181 525.075 505.982 523.44 506.741 521.664C507.979 518.767 505.338 515.605 506.152 514.315L510.944 511.684C508.624 505.201 507.561 497.761 504.195 491.815C508.087 487.838 511.844 486.186 515.662 486.774C527.135 488.557 537.347 510.383 543.446 523.429C544.56 525.816 545.618 528.073 546.546 529.929C554.183 545.204 556.837 589.547 556.973 591.968L555.145 622.948V622.931H555.14ZM550.082 528.141C549.177 526.337 548.136 524.102 547.027 521.737C540.176 507.09 529.823 484.953 516.262 482.848C510.904 482.017 505.649 484.353 500.631 489.79L501.089 490.214C500.698 492.347 500.031 494.508 499.72 496.528C499.375 498.808 500.087 500.935 499.154 503.311C498.452 505.087 496.54 506.049 495.471 507.554C493.519 510.292 490.753 519.486 489.106 520.425C487.681 521.234 484.767 521.534 482.77 522.574C479.919 524.057 472.315 531.954 469.996 534.693C467.778 537.318 463.699 550.89 459.145 543.801C455.626 538.33 456.418 533.408 455.417 527.728C454.585 523.038 449.437 521.494 447.151 517.89C445.595 515.429 445.205 510.354 443.7 508.895C442.003 507.243 435.265 507.481 434.145 503.713C433.24 500.658 436.51 500.132 437.206 497.92C438.541 493.648 432.878 494.016 430.145 493.314C430.965 488.557 425.031 483.929 420.697 483.81C418.836 483.759 415.956 485.462 415.193 485.337C413.309 485.026 408.641 479.674 404.274 479.256C400.942 478.939 400.421 480.919 398.537 481.389C394.888 482.294 388.869 475.199 385.327 473.349C383.902 472.603 375.862 469.412 374.703 469.304C373.803 469.22 365.447 471.579 363.037 471.862C353.867 472.936 344.464 472.354 335.288 473.536L330.547 353.039C380.96 343.467 550.732 352.264 571.054 353.368L558.528 565.418C556.854 551.772 554.167 536.316 550.076 528.136H550.082V528.141ZM717.478 627.74C716.058 629.403 714.882 630.478 712.63 630.8C699.612 632.65 690.487 627.298 677.311 633.951C669.526 637.883 665.985 645.374 657.538 647.557C653.963 648.48 649.918 648.276 646.467 649.962C643.304 643.122 635.989 642.749 630.394 638.981C630.479 635.434 634.756 635.569 636.623 633.997C641.217 630.127 637.964 622.682 632.029 623.18C624.471 623.813 626.038 627.259 622.689 631.943C620.03 635.66 607.357 642.217 602.865 642.692C597.163 643.297 593.316 637.9 588.892 635.264C586.465 633.816 577.848 629.584 575.387 628.973C571.467 628 571.11 629.171 568.146 631.157C566.449 629.493 560.854 626.201 559.06 623.723L560.808 594.095C562.415 594.208 563.971 594.265 565.47 594.265C582.923 594.265 593.401 586.944 599.273 580.387C603.21 575.991 605.581 571.471 606.933 568.23C607.635 569.61 609.264 569.797 610.039 569.882C610.503 569.932 610.984 569.989 611.476 570.136C612.811 570.549 617.484 573.836 618.259 574.566C618.519 574.854 618.813 575.086 619.119 575.33C619.549 575.669 620.086 576.099 620.211 576.489C620.743 578.17 625.071 585.858 626.621 587.402C628.363 589.145 632.555 590.022 633.992 589.541C636.34 588.76 635.972 584.71 635.791 583.42C637.381 583.544 640.436 583.889 644.458 584.693C649.262 585.654 652.916 587.889 653.544 588.455C653.986 589.066 654.845 589.869 661.634 590.503L661.861 590.525L662.087 590.497C663.207 590.344 665.215 590.027 666.087 589.592C666.409 589.45 667.467 589.269 668.033 589.219C668.293 589.4 668.859 589.835 670.041 590.887C672.157 592.754 673.769 592.37 675.071 592.064C675.489 591.962 675.925 591.86 676.445 591.81C677.871 591.674 678.805 591.391 679.704 591.119C680.422 590.899 681.164 590.678 682.284 590.491C683.726 590.254 684.462 590.571 685.475 591.001C685.882 591.17 686.301 591.351 686.781 591.504C687.998 591.889 688.264 592.143 688.484 593.094C688.626 593.699 688.592 593.807 688.428 594.316C688.281 594.785 688.077 595.425 688.003 596.392C687.873 598.044 688.071 598.802 688.886 599.764C689.022 599.928 689.141 600.069 689.299 600.318C689.587 600.788 689.819 601.099 689.989 601.32C690.249 601.665 690.329 601.772 690.583 602.796C690.611 602.909 690.628 603 690.64 603.062C690.266 603.634 689.848 604.375 689.61 605.817C689.124 608.737 691.483 610.7 694.006 611.378L717.818 627.168L717.467 627.723L717.478 627.74ZM817.625 442.177C817.625 442.545 814.203 447.082 813.569 448.304C810.022 455.138 802.967 469.423 800.919 476.388C800.58 477.536 800.659 478.617 800.631 479.776L801.208 482.922C799.437 490.09 795.714 498.361 791.896 504.703C789.887 508.035 786.561 510.247 785.141 512.657C784.309 514.071 784.19 516.612 783.376 517.681C782.685 518.58 778.171 520.719 776.717 521.771C769.594 526.942 764.582 533.012 759.06 539.773C758.166 539.988 755.304 549.696 754.828 550.794C752.718 553.345 748.085 557.396 746.671 560.173C745.036 563.387 744.775 571.007 743.214 573.689C742.744 574.492 739.305 576.908 738.139 578.232C736.402 580.206 729.811 588.144 728.935 589.96C728.131 591.634 724.443 602.061 723.866 604.126C723.3 606.162 722.095 620.826 720.2 624L695.929 607.905L695.618 607.701L695.268 607.622C694.877 607.531 693.451 607.022 693.542 606.485C693.672 605.715 693.819 605.489 693.995 605.223C694.589 604.318 694.854 603.481 694.447 601.851C694.04 600.222 693.734 599.696 693.174 598.949C693.027 598.757 692.891 598.57 692.705 598.265C692.399 597.767 692.133 597.444 691.952 597.235C691.952 597.133 691.952 596.963 691.975 596.703C692.014 596.183 692.111 595.889 692.229 595.51C692.512 594.61 692.722 593.739 692.365 592.206C691.686 589.269 689.78 588.296 688.003 587.731C687.698 587.634 687.381 587.499 687.047 587.357C685.797 586.825 684.247 586.164 681.673 586.582C680.287 586.808 679.376 587.086 678.573 587.329C677.764 587.572 677.124 587.77 676.095 587.866C675.297 587.94 674.675 588.093 674.171 588.211C673.56 588.359 673.062 588.262 672.683 587.923C670.545 586.033 669.73 585.468 668.87 585.298C667.965 585.111 665.34 585.547 664.378 586.028C664.078 586.152 662.907 586.384 661.793 586.542C659.733 586.339 657.193 585.971 656.384 585.7C654.862 584.229 650.206 581.813 645.25 580.817C639.921 579.754 635.825 579.409 634.677 579.409C634.586 579.409 634.479 579.386 634.349 579.363C633.958 579.29 633.036 579.109 632.221 579.782C631.848 580.093 631.401 580.67 631.401 581.677C631.401 582.447 631.565 582.922 631.701 583.307C631.763 583.488 631.826 583.663 631.888 583.929C631.961 584.24 631.984 584.981 631.956 585.615C631.028 585.422 629.862 585.032 629.438 584.613C628.448 583.623 624.426 576.597 624.007 575.307C623.52 573.757 622.366 572.846 621.603 572.235C621.461 572.122 621.274 571.975 621.224 571.924C620.539 571.138 614.95 567.059 612.658 566.351C611.821 566.091 611.069 566.006 610.514 565.944V565.814C610.497 565.418 610.48 564.982 610.305 564.467L611.696 564.19C616.166 563.302 631.65 563.359 631.82 563.364C631.956 563.364 635.175 563.359 639.865 562.77C644.9 562.142 663.999 553.283 668.61 550.686C672.05 548.751 673.107 546.918 675.02 543.597C676.083 541.753 677.407 539.462 679.625 536.209L682.601 531.841C689.882 521.154 702.068 503.271 705.043 499.306C706.113 497.88 706.984 497.003 708.093 495.9C710.407 493.586 713.281 490.712 719.555 481.304C727.554 469.304 726.892 460.139 724.827 436.237C725.438 436.237 726.015 436.237 726.519 436.231H727.136L727.639 435.869C728.075 435.564 730.275 433.997 731.039 433.233C731.582 432.769 735.248 430.495 738.343 428.662L738.58 428.498C738.948 428.198 739.361 427.887 739.655 427.683C740.306 427.796 741.466 428.056 741.969 428.204C742.857 428.469 745.228 428.99 747.338 429.341C749.991 429.782 752.492 429.324 753.64 428.724C753.708 428.713 753.935 428.724 754.591 429.024C755.021 429.301 756.333 430.546 756.967 431.151C757.663 431.813 758.07 432.198 758.359 432.418C759.349 433.188 760.938 433.34 763.184 433.34C763.982 433.34 765.877 433.408 767.309 433.669H767.326C767.382 433.765 767.444 433.867 767.524 433.968C767.535 434.132 767.558 434.33 767.603 434.562C767.869 435.881 768.768 436.492 769.159 436.752L769.221 436.797C769.481 437.04 769.753 437.187 769.973 437.312C770.296 437.493 770.703 437.719 771.286 438.415C771.297 438.426 771.303 438.438 771.314 438.449L771.088 438.692L771.043 439.399C771.043 439.45 770.969 440.627 770.969 441.329C770.969 442.873 772.344 443.954 772.932 444.35L773.498 444.723L774.171 444.678C776.44 444.514 776.943 444.35 777.107 444.293C778.261 443.908 779.003 442.924 779.523 442.104C779.925 441.47 780.338 440.927 780.785 440.367C780.869 440.367 780.954 440.378 781.028 440.384C781.254 440.401 781.475 440.412 781.656 440.418C781.746 440.435 782.063 440.559 783.031 441.351C784.847 442.828 787.228 442.658 787.919 442.573C788.982 442.438 789.752 442.081 792.031 436.599L792.235 436.107L792.167 435.575C792.15 435.445 791.986 434.302 791.517 433.188C791.562 433.125 791.607 433.058 791.652 432.995L791.862 432.695C791.862 432.695 791.913 432.695 791.941 432.69C792.388 432.65 793.061 432.594 793.87 432.215C794.176 432.068 794.747 431.836 795.352 431.581C797.847 430.546 799.544 429.81 800.359 429.063C800.416 429.013 800.523 428.973 800.625 428.95L801.315 429.341C801.428 429.403 804.138 430.896 806.826 432.203C809.434 433.471 811.103 433.007 812.319 432.667C812.658 432.571 812.953 432.492 813.213 432.469C815.153 432.294 816.256 431.309 817.32 430.359C817.422 430.268 817.541 430.167 817.654 430.07V442.177H817.625ZM817.603 425.33C817.043 425.578 816.296 426.003 815.414 426.744C815.142 426.976 814.893 427.196 814.655 427.406C813.75 428.215 813.433 428.469 812.822 428.526C812.206 428.583 811.685 428.73 811.221 428.854C810.294 429.114 809.779 429.256 808.523 428.645C805.932 427.383 803.222 425.89 803.21 425.884L801.711 425.041L801.315 424.996C801.1 424.973 799.143 424.786 797.672 426.139C797.185 426.529 794.9 427.479 793.808 427.932C793.135 428.215 792.546 428.452 792.156 428.639C791.992 428.713 791.867 428.73 791.568 428.758C790.889 428.82 789.633 428.928 788.626 430.393L788.394 430.727C787.715 431.688 786.951 432.786 787.811 434.653C787.953 434.964 788.06 435.332 788.128 435.626C787.613 436.82 787.059 437.996 786.691 438.658C786.261 438.624 785.803 438.517 785.514 438.279C784.337 437.323 783.155 436.463 781.667 436.463C781.56 436.463 781.452 436.452 781.333 436.441C780.575 436.378 778.991 436.248 777.882 437.64C777.305 438.359 776.74 439.083 776.168 439.982C775.97 440.299 775.829 440.463 775.755 440.542C775.568 440.571 775.269 440.604 774.924 440.638C774.929 440.469 774.94 440.299 774.946 440.141C775.484 439.066 775.614 437.436 774.296 435.864C773.249 434.619 772.366 434.127 771.897 433.861C771.869 433.844 771.846 433.833 771.818 433.816C771.693 433.702 771.569 433.612 771.467 433.544C771.461 432.837 771.252 432.288 770.76 431.694C770.296 430.438 769.323 430.014 768.01 429.776C766.302 429.465 764.169 429.38 763.179 429.38C761.572 429.38 760.938 429.284 760.684 429.211C760.463 429.018 760.022 428.6 759.683 428.277C757.855 426.54 756.973 425.765 756.265 425.443C755.49 425.092 753.669 424.26 751.87 425.182C751.423 425.414 749.765 425.731 747.972 425.437C745.782 425.069 743.661 424.583 743.089 424.407C743.055 424.396 739.916 423.485 738.807 423.712C738.479 423.779 737.986 423.876 736.187 425.324C732.951 427.247 728.997 429.663 728.267 430.393C727.916 430.744 726.773 431.604 725.846 432.271H724.471C724.126 428.249 723.752 423.813 723.379 418.908C720.782 384.664 754.483 302.519 759.066 291.532C760.605 291.204 762.285 290.322 762.477 290.339C762.919 290.372 764.457 294.683 768.599 293.699L769.821 287.453C771.965 290.785 780.4 294.831 780.886 298.451C781.503 303.062 779.913 308.012 780.27 312.646C780.79 319.384 785.05 321.556 788.224 326.75C788.711 327.547 789.197 329.584 789.452 329.771C789.684 329.94 793.814 330.817 794.985 331.304C802.599 334.455 798.945 337.12 801.694 343.269C803.239 346.731 807.403 347.738 809.394 350.839C811.035 353.39 810.916 356.773 812.115 359.432C812.93 361.231 815.063 362.465 815.266 363.07C816.008 365.214 814.763 369.7 815.917 372.314L815.351 383.063L815.883 399.113L815.357 399.758C813.501 400.182 811.974 400.245 811.923 402.559C811.855 405.659 816.686 412.697 817.36 416.974C817.795 419.751 817.614 422.546 817.592 425.33H817.603Z" fill="#F3F3F3"/>
<path d="M817.382 416.968C816.709 412.691 811.878 405.653 811.945 402.553H811.934C811.985 400.239 813.513 400.177 815.368 399.752L815.894 399.107L815.362 383.057L815.928 372.308C814.774 369.695 816.019 365.208 815.278 363.064C815.068 362.464 812.935 361.225 812.126 359.426C810.927 356.767 811.046 353.384 809.405 350.833C807.414 347.738 803.25 346.731 801.706 343.263C798.962 337.114 802.611 334.443 794.996 331.298C793.825 330.811 789.695 329.934 789.463 329.765C789.208 329.578 788.722 327.541 788.235 326.744C785.062 321.55 780.801 319.378 780.281 312.64C779.925 308.006 781.509 303.056 780.898 298.445C780.417 294.819 771.982 290.78 769.832 287.447L768.61 293.693C764.469 294.683 762.935 290.372 762.489 290.333L758.364 288.981L756.91 286.802C756.588 284.523 756.005 281.287 755.954 280.376C755.377 270.006 755.162 262.255 751.14 252.377C750.037 249.667 743.598 243.41 744.294 241.046C744.69 239.705 746.852 238.783 745.25 236.769C743.746 234.868 740.046 235.92 738.405 235.128C737.042 234.472 734.286 228.888 733.076 228.011C731.95 227.196 729.63 227.326 728.12 226.744C723.402 224.939 721.597 219.038 720.822 214.524C720.318 214.088 714.944 214.812 713.36 214.348C712.647 214.139 703.991 208.487 703.075 207.661C701.338 206.089 697.055 200.567 696.427 198.468C694.99 193.648 697.576 190.169 697.14 185.422C686.414 182.537 694.441 178.927 695.392 173.423C697.321 162.21 685.073 149.181 682.968 138.658L683.534 128.475C682.572 121.522 681.769 114.388 682.883 107.373C678.165 101.398 668.525 98.9149 668.248 90.0158C661.934 89.3539 660.141 96.3634 653.522 94.2758C649.426 92.986 649.856 85.3485 648.866 81.9597C647.683 77.8977 645.465 75.3632 645.137 70.413C644.82 65.5872 647.049 58.5834 645.929 54.3403C645.703 53.4804 644.82 52.6714 644.617 51.6927C644.317 50.2614 644.753 48.6999 644.379 47.4044C643.785 45.3394 638.609 42.9973 637.941 40.2308L639.961 32.8705C629.857 32.2765 636.866 14.3482 633.506 10.1844C632.159 8.51547 629.093 8.10813 629.777 4.57227C627.401 6.00924 626.326 9.28487 623.006 8.54375C621.823 17.7483 618.451 26.8341 614.039 34.9355C613.297 36.2989 609.62 41.2378 609.484 41.747C608.772 44.3946 614.129 44.1966 613.954 47.2403C613.795 50.0464 608.211 53.0278 607.81 54.759C607.544 55.8961 608.568 58.6343 608.036 61.1858C606.888 66.6565 601.372 69.9038 602.763 76.5852C603.126 78.322 604.693 79.5949 604.913 81.7956C605.383 86.4743 602.543 90.6495 603.335 95.8147C603.584 97.427 604.789 99.3901 604.84 101.093C604.953 104.821 602.118 109.443 601.089 113.081C598.028 123.892 598.249 132.69 591.007 142.024C589.791 143.591 588.15 145.622 587.251 147.331C585.865 149.962 585.554 153.486 584.219 155.613C581.395 160.111 567.846 164.869 562.862 163.437L545.064 152.666C544.306 149.837 543.163 144.451 540.611 142.692C536.844 140.095 527.712 139.716 522.943 137.312L518.146 133.872C516.635 131.948 514.321 127.445 513.676 126.919C513.105 126.455 509.637 125.799 508.347 125.177C502.413 122.314 497.298 118.026 490.136 118.784C490.362 112.583 483.698 112.753 481.163 110.218C480.247 109.302 479.891 106.564 478.482 105.263C476.485 103.418 471.438 101.698 468.949 100.086C464.983 97.5062 460.955 93.3367 461.487 88.3243C464.389 85.6596 465.922 81.7108 468.333 78.735C469.198 77.6657 472.474 75.1708 472.536 74.8936C472.74 73.9884 472.349 72.8117 472.649 71.7425C472.955 70.6336 474.68 68.2122 474.635 67.6522C474.584 66.9959 472.83 66.3397 472.536 64.8178C471.902 61.5535 473.351 57.7687 473.175 54.4535C477.995 53.09 482.827 48.2303 487.794 50.9685L487.494 44.1966C491.505 41.3453 493.321 36.5478 496.834 33.1477C495.477 31.4845 494.091 34.1887 492.15 32.9101C490.623 31.9088 491.07 26.7832 487.562 28.288C486.827 28.8481 487.336 32.0106 487.177 33.0968C486.436 38.2111 481.328 39.897 477.175 36.9778C475.687 35.9312 474.98 33.6569 474.708 33.4702C474.409 33.2552 472.57 34.2849 471.229 33.9058C469.854 33.5155 467.031 28.95 464.599 30.2794C463.009 31.1507 463.586 33.4476 459.281 33.3627C452.554 33.2326 451.208 27.5073 447.791 26.7549C445.109 26.1609 441.313 26.3306 438.099 25.697C434.433 24.9672 427.684 21.4935 425.862 21.2446C424.607 21.0749 422.338 21.9291 420.844 21.8952C418.944 21.8443 412.969 20.5148 411.283 19.7001C408.987 18.5913 407.708 14.7895 406.882 12.4983C400.116 18.563 398.984 10.7445 393.819 8.31746C391.177 7.07849 389.157 7.10112 387.098 9.3867C388.631 12.3342 394.017 9.95244 395.601 10.5465C399.895 12.1532 403.612 24.4523 402.283 28.8255C399.963 30.0305 397.293 29.1084 394.854 29.6006C392.241 30.1267 390.261 33.1987 387.37 33.4589C384.807 33.6909 382.883 32.4689 380.575 32.3048C374.952 31.9088 369.373 33.1081 363.897 31.1677C363.756 35.62 359.151 36.6893 355.4 36.2537C355.241 36.7062 355.162 37.1136 355.134 37.487C354.862 38.6863 354.432 40.4401 354.07 41.2491C353.493 42.5503 353.058 43.1274 350.891 45.2942C348.724 47.4609 349.013 46.3068 346.846 47.1724C344.679 48.038 345.245 48.7225 345.245 48.7225C344.809 49.6843 344.724 50.4424 344.854 51.0873C345.25 53.0561 347.632 53.9387 347.983 56.2186C347.395 58.4759 339.174 63.0244 338.173 64.5689C337.058 66.2944 337.03 71.0805 335.531 73.2417C334.122 75.2727 329.613 75.3462 328.901 79.6741C328.386 82.7913 331.712 83.029 333.364 84.5904C335.293 86.4177 336.872 92.2052 336.074 94.7115L335.316 95.6506H321.144L320.414 95.611L316.449 95.2885C314.22 94.7002 311.957 94.0156 309.699 93.5687H309.705C302.678 92.177 299.126 93.563 293.44 88.3243C290.374 85.4956 286.674 78.8877 283.183 77.0378C281.854 76.3363 280.4 77.1566 278.821 76.9586C275.229 76.5116 272.813 73.3944 269.702 71.9009C269.922 74.9106 265.934 82.7234 262.488 81.9823C261.476 81.7673 259.252 79.3177 258.381 79.3799C257.985 79.4082 256.78 80.964 256.033 81.4223C251.151 84.4376 253.51 83.1082 251.423 88.1263C248.407 95.3621 247.106 89.9366 241.471 90.6098C239.005 90.904 234.083 93.7667 235.276 96.6293C235.621 97.461 238.807 99.4128 239.316 101.15C241.596 108.945 232.312 104.284 232.103 106.682C233.375 108.204 233.856 112.99 232.091 114.065C229.953 115.361 227.503 111.791 225.653 112.181C225.065 112.306 224.493 113.319 223.752 113.641C222.349 114.246 220.098 114.405 219.368 116.034C217.258 120.752 222.508 123.491 222.462 125.94C222.451 127.609 219.883 127.932 219.351 129.029C218.61 130.568 219.56 135.054 217.965 136.146C216.839 136.916 212.901 135.179 211.295 134.839C209.88 134.539 208.392 134.885 207.029 134.579C205.275 134.183 203.855 131.796 201.541 132.435C203.041 135.196 202.978 138.16 202.067 141.113C207.906 144.095 212.449 154.437 202.107 153.367C203.442 159.494 202.899 167.85 195.974 160.343C191.573 155.568 189.893 148.983 186.498 143.795C186.074 143.15 184.926 140.847 184.009 141.487C180.072 149.334 169.617 155.93 171.682 165.966C172.796 171.386 181.339 175.358 174.969 181.954C170.488 186.593 165.668 186.248 163.043 193.789C159.563 203.792 161.849 206.202 152.582 213.879C141.703 222.897 136.119 223.728 123.334 227.626C121.987 228.039 120.386 229.459 119.702 229.572C117.693 229.912 113.365 227.638 110.259 228.695L104.63 237.493L89.5137 240.197C84.9369 254.702 67.6309 246.533 59.5635 250.414C54.2568 252.966 48.062 261.718 43.983 265.949C37.3809 272.795 30.8579 278.973 22.1512 283.153L18.174 299.254L10.4064 299.786L7.48721 288.573C7.74745 293.501 3.89476 298.072 4.68679 302.966C5.20162 306.139 9.86331 308.08 9.76713 312.023C9.72753 313.652 8.75446 315.401 8.61869 317.149C8.42068 319.678 8.9355 322.461 8.48291 324.933C8.04163 327.349 5.63158 329.459 5.25253 331.886C4.95835 333.781 4.92441 341.894 5.35437 343.597C5.76736 345.209 10.5648 349.996 11.8943 352.332C12.8957 354.103 13.8009 357.656 14.4401 358.561C17.3367 362.645 24.9063 367.562 27.7463 372.687C30.5694 377.785 30.1564 384.528 26.9826 389.292C24.8554 389.241 16.3523 379.38 13.9875 377.394C13.3539 376.862 13.0654 376.025 12.0075 376.268C13.716 378.961 21.8796 386.406 22.1285 389.088C22.3605 391.538 16.6918 390.712 15.4019 391.255C20.4257 397.614 28.9457 403.984 31.5085 411.921C32.4589 414.858 31.9215 418.031 32.7984 420.249C34.3598 424.164 44.6619 434.743 47.8697 439.122C51.3376 443.857 53.4082 446.754 54.7207 452.638C56.1125 458.866 56.2709 465.384 58.3302 471.488L60.7855 475.556C64.7456 484.585 73.8427 490.452 77.0731 500.16L79.8905 510.343C79.8113 521.245 84.3202 532.418 80.7278 543.145C78.8835 548.649 77.2711 549.441 71.4044 548.813L73.1638 560.071C78.0122 559.896 84.1279 561.186 88.0937 564.094C89.8305 565.367 91.2053 567.862 92.5348 568.987C94.1641 570.374 95.5671 571.064 96.823 571.262V571.324L97.1625 571.301C97.6321 571.341 98.079 571.313 98.5146 571.222L99.8441 571.143L105.224 570.883H119.775C122.938 570.883 128.386 567.03 131.361 565.497C132.691 564.812 135.039 564.416 135.876 563.788C136.826 563.076 137.743 560.06 138.733 558.725C142.11 554.148 147.966 551.947 153.386 551.031C152.599 546.635 154.97 543.982 158.262 541.481C162.777 538.059 168.463 538.851 173.826 537.81C180.558 536.503 189.344 532.067 196.02 533.12C199.278 533.634 202 535.711 205.75 535.841C211.425 536.039 218.785 530.777 223.17 531.982C224.59 532.373 224.81 533.951 226.943 533.267C234.767 530.738 238.467 518.133 240.13 511.044C252.837 509.087 261.691 499.628 271.948 493.365C283.726 486.175 292.473 494.208 303.182 489.524L331.09 474.435L331.361 474.379V474.368L335.288 473.536H335.299V473.547C344.475 472.365 353.878 472.948 363.049 471.873C365.459 471.59 373.815 469.231 374.714 469.316C375.879 469.423 383.913 472.614 385.339 473.361C388.88 475.211 394.9 482.305 398.549 481.4C400.433 480.93 400.953 478.95 404.285 479.267C408.647 479.686 413.32 485.037 415.204 485.349C415.962 485.473 418.847 483.77 420.709 483.821C425.042 483.94 430.977 488.568 430.156 493.326C432.883 494.027 438.552 493.665 437.217 497.931C436.521 500.143 433.251 500.669 434.156 503.724C435.276 507.486 442.014 507.248 443.712 508.906C445.216 510.366 445.607 515.44 447.163 517.901C449.443 521.511 454.596 523.055 455.428 527.739C456.435 533.414 455.643 538.336 459.156 543.812C463.71 550.895 467.784 537.323 470.007 534.704C472.327 531.966 479.93 524.068 482.782 522.586C484.784 521.545 487.692 521.25 489.118 520.436C490.764 519.497 493.536 510.303 495.482 507.565C496.552 506.066 498.458 505.099 499.165 503.322C500.104 500.946 499.386 498.813 499.731 496.539C500.037 494.514 500.71 492.358 501.1 490.225L500.642 489.801L504.8 492.947C507.697 498.689 508.766 505.602 510.938 511.672L506.147 514.303C505.332 515.593 507.974 518.761 506.735 521.652C505.977 523.429 502.175 525.063 500.812 526.472C495.041 532.435 498.136 544.31 495.437 551.648C493.977 553.35 488.529 550.55 488.365 553.899C489.095 554.918 498.69 554.205 499.403 553.35C501.836 548.706 502.622 534.557 506.735 531.807C508.681 530.506 511.035 535.139 512.013 536.757C513.529 539.269 514.452 542.132 516.07 544.593C516.07 544.593 516.89 553.69 513.66 559.449C511.742 562.012 509.96 564.79 510.429 565.208C513.179 566.645 518.615 562.713 520.188 563.042C521.631 563.347 533.868 573.496 534.462 574.837C535.084 582.073 538.671 588.709 538.15 596.047C538.043 597.603 537.025 598.847 537.251 600.312C537.834 604.058 543.881 615.186 546.399 618.343C548.656 621.171 551.236 623.225 555.117 622.919V622.931L559.06 623.723C559.06 623.723 559.071 623.723 559.071 623.717V623.74C560.865 626.223 566.46 629.516 568.157 631.173C571.122 629.188 571.478 628.017 575.399 628.99C577.865 629.601 586.476 633.832 588.903 635.281C593.327 637.917 597.174 643.314 602.877 642.709C607.369 642.234 620.041 635.677 622.7 631.96C626.049 627.281 624.482 623.83 632.04 623.197C637.969 622.699 641.228 630.144 636.634 634.013C634.767 635.586 630.49 635.445 630.405 638.998C636.001 642.766 643.316 643.133 646.478 649.979C649.923 648.293 653.974 648.502 657.55 647.574C665.99 645.391 669.538 637.894 677.322 633.968C690.498 627.315 699.624 632.667 712.641 630.817C714.893 630.495 716.075 629.42 717.49 627.756L720.2 624L720.188 623.96C722.072 620.724 723.271 606.151 723.837 604.12C724.414 602.055 728.103 591.628 728.906 589.954C729.783 588.138 736.374 580.195 738.111 578.226C739.276 576.902 742.716 574.486 743.185 573.683C744.747 571.007 745.007 563.387 746.642 560.168C748.057 557.39 752.69 553.333 754.8 550.788C755.275 549.684 758.138 539.982 759.032 539.767C764.559 533.006 769.566 526.936 776.689 521.765C778.143 520.713 782.657 518.574 783.347 517.675C784.162 516.606 784.281 514.066 785.112 512.651C786.532 510.241 789.859 508.029 791.867 504.697C795.686 498.355 799.409 490.084 801.179 482.916L800.602 479.77C800.631 478.605 800.551 477.53 800.891 476.382C802.939 469.423 809.994 455.133 813.541 448.298C814.174 447.082 817.597 442.539 817.597 442.171V430.065L817.614 425.324C817.637 422.535 817.823 419.746 817.382 416.968Z" fill="#ECE5D4"/>
<path d="M667.926 700.884C661.182 702.502 653.624 699.967 647.695 704.244C639.706 699.854 631.696 694.485 623.294 690.927C618.74 688.997 617.909 687.685 616.132 693.223C613.852 700.329 614.039 701.647 616.443 708.527C619.091 716.096 623.051 723.4 625.704 731.004L623.758 737.385L634.677 762.136C639.718 763.777 645.109 763.398 649.878 766C652.554 764.546 652.634 760.92 654.744 758.991C656.226 757.633 658.353 757.803 659.009 757.033C660.214 755.625 660.859 750.476 662.687 748.802C664.192 747.84 667.705 751.421 669.962 750.154C673.47 744.621 674.086 736.203 677.724 731.049C678.556 729.866 680.932 728.299 681.249 727.219C681.888 725.046 681.599 718.563 682.001 715.525C682.516 711.638 683.563 707.837 684.734 704.114C678.997 693.348 675.563 699.062 667.926 700.884ZM628.279 736.095C628.607 734.59 629.959 733.216 630.281 731.716C629.97 733.216 628.618 734.59 628.279 736.095ZM677.447 722.025C678.035 717.901 678.03 713.019 678.754 708.787C678.035 713.024 678.041 717.907 677.447 722.025ZM679.631 705.189C678.301 698.83 671.637 704.804 667.931 705.443V705.421C664.243 706.054 660.899 704.448 657.346 705.03C654.184 705.545 650.987 708.725 647.197 708.363C640.51 707.723 627.656 696.476 620.534 694.264C620.104 694.977 619.787 695.718 619.56 696.493C619.781 695.713 620.104 694.96 620.539 694.242C627.668 696.454 640.515 707.706 647.202 708.34C650.987 708.702 654.184 705.523 657.352 705.008C660.905 704.431 664.248 706.032 667.937 705.398C671.648 704.759 678.318 698.779 679.642 705.161C679.642 705.172 679.636 705.183 679.631 705.189Z" fill="#ECE5D4"/>
<path d="M680.626 672.926H680.632C677.871 670.674 673.623 674.278 672.989 677.112C671.863 682.164 677.09 686.102 678.505 690.594C685.226 691.533 687.466 691.114 686.312 683.918C685.927 681.508 682.448 674.408 680.626 672.926ZM679.342 682.962L677.973 677.836C680.875 679.765 681.515 683.273 682.493 686.317L679.342 682.962Z" fill="#ECE5D4"/>
<path d="M610.073 660.864C602.079 658.72 598.566 679.148 607.544 679.573C614.367 679.895 615.826 666.646 611.827 661.69C611.119 661.135 610.073 660.864 610.073 660.864ZM607.533 674.996C605.513 675.075 608.268 666.493 607.821 665.39C607.872 665.322 609.253 665.989 609.349 666.119C611.057 668.45 609.337 673.027 607.533 674.996Z" fill="#ECE5D4"/>
<path d="M498.634 565.429C498.204 564.948 495.2 563.721 494.589 563.359C494.306 563.195 493.327 563.212 492.297 563.262C489.729 563.732 486.549 564.552 484.971 564.931C483.195 565.356 477.164 566.555 476.174 567.449C475.003 568.501 474.465 573.955 475.608 575.448C476.213 576.24 477.226 576.721 477.995 577.321C478.278 577.542 478.148 578.215 478.193 578.238H492.337L498.289 575.369C498.702 575.007 499.199 574.21 499.431 572.461C499.867 569.214 499.069 565.91 498.639 565.429H498.634ZM479.879 572.286C479.642 571.205 481.373 570.73 482.103 570.56C486.233 569.593 491.302 569.604 495.471 568.128C491.302 569.61 486.233 569.593 482.103 570.56C481.379 570.73 479.642 571.205 479.879 572.286ZM483.404 573.259C486.532 573.248 490.787 572.575 492.037 572.518C490.793 572.569 486.538 573.242 483.404 573.259ZM492.048 572.518C492.869 572.484 494.238 573.084 494.492 573.101C494.238 573.084 492.874 572.484 492.048 572.518ZM494.6 573.004C494.866 572.569 495.217 570.962 496.467 570.86C495.222 570.968 494.866 572.575 494.6 573.004Z" fill="#ECE5D4"/>
<path d="M812.743 418.201H787.494C787.494 418.201 785.599 419.463 785.599 424.198C785.599 428.934 787.806 431.774 784.338 431.457C780.87 431.14 778.658 430.195 775.818 431.457C772.978 432.718 773.294 434.93 771.082 433.98C768.876 433.035 767.298 430.195 767.609 427.355C767.92 424.515 773.605 421.041 762.557 418.201C751.513 415.361 754.274 418.914 752.854 421.2C751.434 423.485 741.573 424.674 740.702 422.303C739.837 419.938 739.124 415.989 736.759 415.678C734.394 415.361 730.055 416.153 729.263 418.043C728.476 419.938 727.764 422.224 727.288 422.541C726.813 422.858 725.552 423.095 724.211 422.937C722.87 422.778 567.241 422.937 567.241 422.937" stroke="#F3F3F3" stroke-width="7" stroke-miterlimit="10"/>
<path d="M724.72 606.417C724.72 606.417 706.073 599.476 699.449 595.057C692.824 590.639 692.507 586.537 691.873 582.435C691.24 578.334 691.24 572.02 685.877 574.86C680.513 577.7 685.56 588.116 675.778 581.174C665.997 574.232 668.52 574.385 663.157 574.153C657.793 573.921 656.843 574.074 653.686 574.153C650.529 574.232 649.584 571.075 644.849 570.447C640.114 569.814 643.588 570.764 634.434 570.447C625.28 570.131 625.914 569.814 621.179 564.767C616.443 559.715 613.603 560.983 608.24 557.192C602.877 553.407 603.822 546.149 599.087 540.463C594.351 534.783 590.883 534.783 584.886 533.522C578.89 532.26 575.733 528.159 573.526 527.208C571.32 526.258 566.585 527.208 566.585 527.208" stroke="#F3F3F3" stroke-width="7" stroke-miterlimit="10"/>
<path d="M566.579 632.47V352.678H323.227" stroke="#F3F3F3" stroke-width="7" stroke-miterlimit="10"/>
<path d="M509.774 123.881V352.678" stroke="#F3F3F3" stroke-width="7" stroke-miterlimit="10"/>
<path d="M320.415 93.2578L324.613 479.986" stroke="#F3F3F3" stroke-width="7" stroke-miterlimit="10"/>
<path opacity="0.46" d="M814.214 454.408C826.872 454.408 837.133 444.147 837.133 431.49C837.133 418.833 826.872 408.572 814.214 408.572C801.557 408.572 791.296 418.833 791.296 431.49C791.296 444.147 801.557 454.408 814.214 454.408Z" fill="#CCA852"/>
<path d="M814.215 446.335C822.413 446.335 829.06 439.689 829.06 431.49C829.06 423.292 822.413 416.646 814.215 416.646C806.016 416.646 799.37 423.292 799.37 431.49C799.37 439.689 806.016 446.335 814.215 446.335Z" fill="#B98C25"/>
<path opacity="0.46" d="M668.877 661.177C681.534 661.177 691.795 650.916 691.795 638.259C691.795 625.602 681.534 615.341 668.877 615.341C656.219 615.341 645.959 625.602 645.959 638.259C645.959 650.916 656.219 661.177 668.877 661.177Z" fill="#CCA852"/>
<path d="M668.877 653.104C677.076 653.104 683.722 646.458 683.722 638.259C683.722 630.06 677.076 623.414 668.877 623.414C660.678 623.414 654.032 630.06 654.032 638.259C654.032 646.458 660.678 653.104 668.877 653.104Z" fill="#B98C25"/>
<path opacity="0.46" d="M591.959 649.975C604.617 649.975 614.877 639.714 614.877 627.057C614.877 614.399 604.617 604.139 591.959 604.139C579.302 604.139 569.041 614.399 569.041 627.057C569.041 639.714 579.302 649.975 591.959 649.975Z" fill="#CCA852"/>
<path d="M591.959 641.902C600.158 641.902 606.804 635.256 606.804 627.057C606.804 618.859 600.158 612.212 591.959 612.212C583.761 612.212 577.114 618.859 577.114 627.057C577.114 635.256 583.761 641.902 591.959 641.902Z" fill="#B98C25"/>
</svg>
