<svg width="78" height="78" viewBox="0 0 78 78" fill="none" xmlns="http://www.w3.org/2000/svg">
<path d="M76.7812 19.5V17.0625H71.9062V1.21875H69.4688V41.4375C69.4688 52.8621 60.1746 62.1562 48.75 62.1562H23.1562V57.2812H26.8125V54.8438H23.1562V49.9688H46.3125C52.3599 49.9688 57.2812 45.0474 57.2812 39V1.21875H54.8438V17.0625H29.25C16.4812 17.0625 6.09375 27.4499 6.09375 40.2188V47.5312H1.21875V49.9688H6.09375V62.1562H1.21875V64.5938H6.09375V76.7812H8.53125V40.2188C8.53125 28.7942 17.8254 19.5 29.25 19.5H54.8438V24.375H53.625V26.8125H54.8438V31.6875H31.6875C25.6401 31.6875 20.7188 36.6088 20.7188 42.6562V76.7812H23.1562V64.5938H48.75C52.7828 64.5938 56.5756 63.5529 59.8808 61.7321C59.7772 62.2647 59.7188 62.8132 59.7188 63.375C59.7188 66.0233 60.6682 68.59 62.3915 70.601L67.325 76.3559C67.5565 76.6265 67.8941 76.7812 68.25 76.7812C68.6059 76.7812 68.9435 76.6265 69.175 76.3559L74.1085 70.601C75.8318 68.59 76.7812 66.0233 76.7812 63.375C76.7812 58.6706 72.9544 54.8438 68.25 54.8438C68.0209 54.8438 67.7954 54.8608 67.5699 54.8779C70.2878 51.0839 71.9062 46.4502 71.9062 41.4375V34.125H76.7812V31.6875H71.9062V19.5H76.7812ZM31.6875 34.125H54.8438V39C54.8438 43.7044 51.0169 47.5312 46.3125 47.5312H23.1562V42.6562C23.1562 37.9519 26.9831 34.125 31.6875 34.125ZM74.3438 63.375C74.3438 65.442 73.6028 67.4444 72.2585 69.0142L68.25 73.6893L64.2415 69.0142C62.8972 67.4444 62.1562 65.442 62.1562 63.375C62.1562 60.0149 64.8899 57.2812 68.25 57.2812C71.6101 57.2812 74.3438 60.0149 74.3438 63.375Z" fill="#B98C25"/>
<path d="M20.2528 27.7705C18.8817 28.7967 17.6751 30.0191 16.666 31.4036L18.6355 32.8393C19.5008 31.651 20.5368 30.6017 21.7129 29.7205L20.2528 27.7705Z" fill="#B98C25"/>
<path d="M13.4062 45.7588H15.8438V50.5204H13.4062V45.7588Z" fill="#B98C25"/>
<path d="M13.4121 40.9648L15.8484 41.0319C15.8886 39.5572 16.1482 38.1081 16.6199 36.7236L14.3115 35.9375C13.7619 37.5536 13.4584 39.2464 13.4121 40.9648Z" fill="#B98C25"/>
<path d="M13.4062 55.2812H15.8438V60.0429H13.4062V55.2812Z" fill="#B98C25"/>
<path d="M13.4062 64.8047H15.8438V69.5663H13.4062V64.8047Z" fill="#B98C25"/>
<path d="M44.1025 24.375H48.8642V26.8125H44.1025V24.375Z" fill="#B98C25"/>
<path d="M34.5801 24.375H39.3417V26.8125H34.5801V24.375Z" fill="#B98C25"/>
<path d="M29.7688 24.3896C28.0516 24.4591 26.3649 24.7833 24.7549 25.3549L25.5702 27.6522C26.9499 27.1623 28.3953 26.8844 29.8663 26.8247L29.7688 24.3896Z" fill="#B98C25"/>
<path d="M13.4062 74.3438H15.8438V76.7812H13.4062V74.3438Z" fill="#B98C25"/>
<path d="M63.1317 47.1381L60.9038 46.1484C60.2945 47.5195 59.4791 48.787 58.4785 49.9168L60.303 51.5329C61.4693 50.2178 62.4212 48.7383 63.1317 47.1381Z" fill="#B98C25"/>
<path d="M64.5934 40.2184V37.085H62.1559V40.2196C62.1559 40.7534 62.1278 41.2921 62.0693 41.8222L64.4922 42.0879C64.5605 41.4688 64.5934 40.8387 64.5934 40.2184Z" fill="#B98C25"/>
<path d="M62.1562 7.83496H64.5938V12.71H62.1562V7.83496Z" fill="#B98C25"/>
<path d="M62.1562 27.335H64.5938V32.21H62.1562V27.335Z" fill="#B98C25"/>
<path d="M62.1562 17.585H64.5938V22.46H62.1562V17.585Z" fill="#B98C25"/>
<path d="M62.1562 1.21875H64.5938V2.96034H62.1562V1.21875Z" fill="#B98C25"/>
<path d="M41.4375 54.8438H46.3125V57.2812H41.4375V54.8438Z" fill="#B98C25"/>
<path d="M51.4325 56.8331C53.1399 56.4334 54.7706 55.774 56.2807 54.8709L55.0302 52.7783C53.7371 53.5522 52.3392 54.1177 50.8779 54.459L51.4325 56.8331Z" fill="#B98C25"/>
<path d="M31.6875 54.8438H36.5625V57.2812H31.6875V54.8438Z" fill="#B98C25"/>
<path d="M8.82497 22.7309C9.05653 23.0015 9.39412 23.1562 9.75 23.1562C10.1059 23.1562 10.4435 23.0015 10.675 22.7309L15.6085 16.976C17.3318 14.965 18.2812 12.3983 18.2812 9.75C18.2812 5.04563 14.4544 1.21875 9.75 1.21875C5.04563 1.21875 1.21875 5.04563 1.21875 9.75C1.21875 12.3983 2.16816 14.965 3.89147 16.976L8.82497 22.7309ZM9.75 3.65625C13.1101 3.65625 15.8438 6.38991 15.8438 9.75C15.8438 11.817 15.1027 13.8194 13.7585 15.3892L9.75 20.0643L5.74153 15.3892C4.39725 13.8194 3.65625 11.817 3.65625 9.75C3.65625 6.38991 6.38991 3.65625 9.75 3.65625Z" fill="#B98C25"/>
<path d="M9.75 13.4062C11.7658 13.4062 13.4062 11.7658 13.4062 9.75C13.4062 7.73419 11.7658 6.09375 9.75 6.09375C7.73419 6.09375 6.09375 7.73419 6.09375 9.75C6.09375 11.7658 7.73419 13.4062 9.75 13.4062ZM9.75 8.53125C10.4215 8.53125 10.9688 9.07847 10.9688 9.75C10.9688 10.4215 10.4215 10.9688 9.75 10.9688C9.07847 10.9688 8.53125 10.4215 8.53125 9.75C8.53125 9.07847 9.07847 8.53125 9.75 8.53125Z" fill="#B98C25"/>
<path d="M68.25 67.0312C70.2658 67.0312 71.9062 65.3908 71.9062 63.375C71.9062 61.3592 70.2658 59.7188 68.25 59.7188C66.2342 59.7188 64.5938 61.3592 64.5938 63.375C64.5938 65.3908 66.2342 67.0312 68.25 67.0312ZM68.25 62.1562C68.9215 62.1562 69.4688 62.7035 69.4688 63.375C69.4688 64.0465 68.9215 64.5938 68.25 64.5938C67.5785 64.5938 67.0312 64.0465 67.0312 63.375C67.0312 62.7035 67.5785 62.1562 68.25 62.1562Z" fill="#B98C25"/>
</svg>
