<svg width="52" height="37" viewBox="0 0 52 37" fill="none" xmlns="http://www.w3.org/2000/svg">
<path d="M0 37V14.9887C0 10.3069 1.23557 6.63834 3.70672 3.983C6.24847 1.32767 10.0611 0 15.1446 0H21.0754V9.95751H16.2037C14.2973 9.95751 12.85 10.4816 11.8615 11.5297C10.9437 12.5779 10.4847 13.9405 10.4847 15.6176V18.4476H19.2749V37H0ZM30.9246 37V14.9887C30.9246 10.3069 32.1602 6.63834 34.6314 3.983C37.1731 1.32767 40.9857 0 46.0692 0H52V9.95751H47.1283C45.222 9.95751 43.7746 10.4816 42.7861 11.5297C41.8683 12.5779 41.4094 13.9405 41.4094 15.6176V18.4476H50.1996V37H30.9246Z" fill="#F5F2EA"/>
</svg>
