<svg width="577" height="490" viewBox="0 0 577 490" fill="none" xmlns="http://www.w3.org/2000/svg">
<path d="M456.055 74.4742C456.606 74.4408 457.026 73.9669 456.993 73.4156L456.449 64.4321C456.415 63.8808 455.941 63.461 455.39 63.4944C454.839 63.5277 454.419 64.0017 454.452 64.553L454.936 72.5383L446.951 73.022C446.399 73.0554 445.98 73.5293 446.013 74.0806C446.046 74.6319 446.52 75.0517 447.072 75.0183L456.055 74.4742ZM158.173 73.4761L158.836 74.2246C198.28 39.285 250.198 18.0679 307.084 18.0679V17.0679V16.0679C249.692 16.0679 197.306 37.4761 157.51 72.7275L158.173 73.4761ZM307.084 17.0679V18.0679C363.969 18.0679 415.887 39.285 455.332 74.2246L455.995 73.4761L456.658 72.7275C416.861 37.4761 364.476 16.0679 307.084 16.0679V17.0679Z" fill="#2C783A"/>
<path d="M196.974 442.919C196.442 443.069 196.133 443.621 196.282 444.152L198.717 452.817C198.866 453.348 199.419 453.658 199.95 453.509C200.482 453.36 200.792 452.807 200.642 452.276L198.478 444.574L206.18 442.41C206.711 442.26 207.021 441.708 206.872 441.176C206.722 440.645 206.17 440.335 205.639 440.484L196.974 442.919ZM405.088 450.068L404.651 449.168C375.172 463.473 342.068 471.498 307.084 471.498L307.084 472.498L307.084 473.498C342.377 473.498 375.779 465.401 405.524 450.967L405.088 450.068ZM307.084 472.498L307.084 471.498C267.358 471.498 230.057 461.15 197.734 443.01L197.245 443.882L196.755 444.754C229.369 463.058 267.007 473.498 307.084 473.498L307.084 472.498Z" fill="#2C783A"/>
<rect x="423.854" y="81.1914" width="152.646" height="79.6916" rx="39.8458" fill="#2C783A"/>
<rect x="423.854" y="81.1914" width="152.646" height="79.6916" rx="39.8458" stroke="#52A867"/>
<path d="M476.104 129.287C474.726 129.287 473.52 129.004 472.487 128.437C471.465 127.859 470.67 127.048 470.104 126.004C469.537 124.948 469.254 123.72 469.254 122.32C469.254 120.898 469.537 119.665 470.104 118.62C470.67 117.576 471.465 116.77 472.487 116.204C473.52 115.626 474.726 115.337 476.104 115.337C477.215 115.337 478.198 115.532 479.054 115.92C479.92 116.298 480.626 116.843 481.17 117.554C481.726 118.265 482.076 119.115 482.22 120.104H479.287C479.165 119.382 478.82 118.826 478.254 118.437C477.687 118.037 476.97 117.837 476.104 117.837C474.859 117.837 473.876 118.232 473.154 119.02C472.432 119.809 472.07 120.909 472.07 122.32C472.07 123.72 472.432 124.82 473.154 125.62C473.876 126.409 474.859 126.804 476.104 126.804C476.97 126.804 477.687 126.604 478.254 126.204C478.82 125.804 479.165 125.243 479.287 124.52H482.22C482.076 125.509 481.726 126.365 481.17 127.087C480.626 127.798 479.92 128.343 479.054 128.72C478.198 129.098 477.215 129.287 476.104 129.287ZM487.985 129.237C486.896 129.237 485.946 129.026 485.135 128.604C484.335 128.17 483.713 127.565 483.269 126.787C482.824 126.009 482.602 125.087 482.602 124.02C482.602 122.965 482.819 122.048 483.252 121.27C483.696 120.493 484.324 119.893 485.135 119.47C485.946 119.048 486.902 118.837 488.002 118.837C489.091 118.837 490.035 119.048 490.835 119.47C491.635 119.893 492.252 120.493 492.685 121.27C493.119 122.048 493.335 122.97 493.335 124.037C493.335 125.093 493.119 126.015 492.685 126.804C492.252 127.582 491.63 128.182 490.819 128.604C490.019 129.026 489.074 129.237 487.985 129.237ZM487.985 126.837C488.819 126.837 489.458 126.587 489.902 126.087C490.346 125.576 490.569 124.887 490.569 124.02C490.569 123.154 490.346 122.476 489.902 121.987C489.458 121.487 488.819 121.237 487.985 121.237C487.141 121.237 486.491 121.487 486.035 121.987C485.591 122.476 485.369 123.154 485.369 124.02C485.369 124.887 485.591 125.576 486.035 126.087C486.491 126.587 487.141 126.837 487.985 126.837ZM494.638 129.037V115.037H497.405V129.037H494.638ZM499.296 129.037V115.037H502.063V129.037H499.296ZM508.672 129.237C507.594 129.237 506.655 129.026 505.855 128.604C505.055 128.17 504.438 127.565 504.005 126.787C503.572 125.998 503.355 125.07 503.355 124.004C503.355 122.937 503.566 122.02 503.988 121.254C504.411 120.476 505.011 119.882 505.788 119.47C506.577 119.048 507.505 118.837 508.572 118.837C509.616 118.837 510.511 119.037 511.255 119.437C512.011 119.837 512.588 120.409 512.988 121.154C513.388 121.898 513.588 122.787 513.588 123.82V124.754H506.005C506.116 125.498 506.4 126.065 506.855 126.454C507.311 126.843 507.911 127.037 508.655 127.037C509.244 127.037 509.711 126.937 510.055 126.737C510.4 126.537 510.644 126.232 510.788 125.82H513.555C513.333 126.887 512.794 127.726 511.938 128.337C511.083 128.937 509.994 129.237 508.672 129.237ZM506.072 122.92H510.938C510.85 122.287 510.605 121.815 510.205 121.504C509.805 121.182 509.266 121.02 508.588 121.02C507.911 121.02 507.355 121.182 506.922 121.504C506.5 121.826 506.216 122.298 506.072 122.92ZM519.517 129.237C518.472 129.237 517.555 129.026 516.767 128.604C515.989 128.17 515.378 127.565 514.933 126.787C514.5 126.009 514.283 125.093 514.283 124.037C514.283 122.982 514.5 122.065 514.933 121.287C515.367 120.509 515.978 119.909 516.767 119.487C517.555 119.054 518.472 118.837 519.517 118.837C520.839 118.837 521.928 119.17 522.783 119.837C523.639 120.504 524.178 121.42 524.4 122.587H521.617C521.472 122.154 521.222 121.82 520.867 121.587C520.511 121.354 520.061 121.237 519.517 121.237C518.772 121.237 518.172 121.482 517.717 121.97C517.272 122.459 517.05 123.148 517.05 124.037C517.05 124.926 517.278 125.615 517.733 126.104C518.189 126.593 518.783 126.837 519.517 126.837C520.694 126.837 521.411 126.337 521.667 125.337H524.45C524.25 126.559 523.722 127.515 522.867 128.204C522.011 128.893 520.894 129.237 519.517 129.237ZM528.44 129.037C527.729 129.037 527.173 128.859 526.773 128.504C526.384 128.137 526.19 127.582 526.19 126.837V121.204H524.473V119.037H526.223V116.037H528.923V119.037H531.24V121.204H528.956V126.87H531.473V129.037H528.44Z" fill="#F5F2EA"/>
<rect x="0.5" y="81.1914" width="161.489" height="78.5862" rx="39.2931" fill="#52A867"/>
<rect x="0.5" y="81.1914" width="161.489" height="78.5862" rx="39.2931" stroke="#52A867"/>
<path d="M52.1727 128.684C50.3615 128.684 48.9171 128.29 47.8393 127.501C46.7615 126.701 46.1727 125.595 46.0727 124.184H48.9727C49.0727 124.918 49.4004 125.473 49.956 125.851C50.5227 126.218 51.3004 126.401 52.2893 126.401C53.1671 126.401 53.8282 126.262 54.2727 125.984C54.7171 125.695 54.9393 125.273 54.9393 124.718C54.9393 124.284 54.7949 123.94 54.506 123.684C54.2282 123.429 53.7727 123.234 53.1393 123.101L50.356 122.534C49.1004 122.268 48.1615 121.829 47.5393 121.218C46.9171 120.595 46.606 119.79 46.606 118.801C46.606 117.545 47.0782 116.562 48.0227 115.851C48.9782 115.14 50.2727 114.784 51.906 114.784C53.5615 114.784 54.8949 115.157 55.906 115.901C56.9171 116.645 57.4838 117.684 57.606 119.018H54.706C54.3838 117.662 53.4004 116.984 51.756 116.984C51.0115 116.984 50.4282 117.118 50.006 117.384C49.5838 117.651 49.3727 118.034 49.3727 118.534C49.3727 119.301 49.9227 119.795 51.0227 120.018L53.9227 120.618C55.2338 120.884 56.1893 121.334 56.7893 121.968C57.4004 122.59 57.706 123.434 57.706 124.501C57.706 125.823 57.2227 126.851 56.256 127.584C55.3004 128.318 53.9393 128.684 52.1727 128.684ZM63.2857 128.668C61.8968 128.668 60.8301 128.301 60.0857 127.568C59.3412 126.834 58.969 125.834 58.969 124.568V118.484H61.7357V124.034C61.7357 124.757 61.919 125.301 62.2857 125.668C62.6635 126.023 63.2246 126.201 63.969 126.201C64.7357 126.201 65.3246 126.007 65.7357 125.618C66.1579 125.229 66.369 124.673 66.369 123.951V118.484H69.1357V125.751H70.5023V128.484H67.7023V126.851H67.0023C66.6023 127.44 66.1135 127.89 65.5357 128.201C64.969 128.512 64.219 128.668 63.2857 128.668ZM76.0435 128.684C74.5768 128.684 73.4157 128.379 72.5602 127.768C71.7157 127.145 71.2602 126.279 71.1935 125.168H73.8602C73.949 125.645 74.1768 126.001 74.5435 126.234C74.9213 126.468 75.4602 126.584 76.1602 126.584C77.3046 126.584 77.8768 126.268 77.8768 125.634C77.8768 125.379 77.7879 125.179 77.6102 125.034C77.4435 124.879 77.1602 124.762 76.7602 124.684L74.5268 124.251C72.5268 123.862 71.5268 122.923 71.5268 121.434C71.5268 120.479 71.9102 119.718 72.6768 119.151C73.4435 118.573 74.5046 118.284 75.8602 118.284C77.2046 118.284 78.2713 118.579 79.0602 119.168C79.849 119.757 80.2824 120.579 80.3602 121.634H77.6935C77.5713 121.168 77.3546 120.829 77.0435 120.618C76.7324 120.407 76.2824 120.301 75.6935 120.301C75.1824 120.301 74.7935 120.379 74.5268 120.534C74.2602 120.679 74.1268 120.901 74.1268 121.201C74.1268 121.412 74.2102 121.59 74.3768 121.734C74.5435 121.879 74.799 121.984 75.1435 122.051L77.4268 122.484C78.4713 122.695 79.2379 123.034 79.7268 123.501C80.2157 123.968 80.4602 124.601 80.4602 125.401C80.4602 126.434 80.0768 127.24 79.3102 127.818C78.5546 128.395 77.4657 128.684 76.0435 128.684ZM84.7979 128.484C84.0868 128.484 83.5313 128.307 83.1313 127.951C82.7424 127.584 82.5479 127.029 82.5479 126.284V120.651H80.8313V118.484H82.5812V115.484H85.2813V118.484H87.5979V120.651H85.3146V126.318H87.8313V128.484H84.7979ZM92.1599 128.668C90.9821 128.668 90.0599 128.384 89.3932 127.818C88.7266 127.24 88.3932 126.484 88.3932 125.551C88.3932 124.562 88.7377 123.801 89.4266 123.268C90.1155 122.734 91.1043 122.468 92.3932 122.468H95.2599V122.084C95.2599 121.007 94.6155 120.468 93.3266 120.468C92.2043 120.468 91.5266 120.857 91.2932 121.634H88.5432C88.7655 120.534 89.2821 119.701 90.0932 119.134C90.9043 118.568 91.9821 118.284 93.3266 118.284C94.8155 118.284 95.9488 118.618 96.7266 119.284C97.5155 119.951 97.9099 120.923 97.9099 122.201V125.751H99.2099V128.484H96.4099V126.851H95.7099C95.3655 127.429 94.9043 127.879 94.3266 128.201C93.7488 128.512 93.0266 128.668 92.1599 128.668ZM92.5766 126.568C93.0988 126.568 93.5599 126.473 93.9599 126.284C94.3599 126.095 94.6766 125.845 94.9099 125.534C95.1432 125.212 95.2599 124.851 95.2599 124.451V124.301H92.5266C91.5266 124.301 91.0266 124.673 91.0266 125.418C91.0266 125.784 91.1655 126.068 91.4432 126.268C91.721 126.468 92.0988 126.568 92.5766 126.568ZM100.549 128.484V118.484H103.316V128.484H100.549ZM101.933 117.501C101.51 117.501 101.149 117.357 100.849 117.068C100.56 116.768 100.416 116.407 100.416 115.984C100.416 115.562 100.56 115.207 100.849 114.918C101.149 114.618 101.51 114.468 101.933 114.468C102.355 114.468 102.71 114.618 102.999 114.918C103.299 115.207 103.449 115.562 103.449 115.984C103.449 116.407 103.299 116.768 102.999 117.068C102.71 117.357 102.355 117.501 101.933 117.501ZM105.874 128.484V121.218H104.508V118.484H107.308V120.118H108.008C108.397 119.54 108.886 119.095 109.474 118.784C110.063 118.462 110.797 118.301 111.674 118.301C113.063 118.301 114.136 118.684 114.891 119.451C115.658 120.207 116.041 121.223 116.041 122.501V128.484H113.274V123.018C113.274 122.284 113.074 121.729 112.674 121.351C112.286 120.962 111.713 120.768 110.958 120.768C110.202 120.768 109.624 120.962 109.224 121.351C108.836 121.729 108.641 122.284 108.641 123.018V128.484H105.874Z" fill="#F5F2EA"/>
<rect x="405.063" y="386.272" width="169.226" height="78.5862" rx="39.2931" fill="#2E8A49"/>
<rect x="405.063" y="386.272" width="169.226" height="78.5862" rx="39.2931" stroke="#52A867"/>
<path d="M454.95 433.565V420.065H461.933C463.377 420.065 464.505 420.393 465.316 421.048C466.139 421.693 466.55 422.587 466.55 423.732C466.55 424.454 466.377 425.07 466.033 425.582C465.7 426.093 465.227 426.454 464.616 426.665V426.748C465.227 426.748 465.7 426.915 466.033 427.248C466.377 427.57 466.55 428.059 466.55 428.715V433.565H463.716V428.432H457.766V433.565H454.95ZM457.766 425.982H461.75C462.394 425.982 462.889 425.832 463.233 425.532C463.589 425.232 463.766 424.804 463.766 424.248C463.766 423.693 463.589 423.265 463.233 422.965C462.889 422.665 462.394 422.515 461.75 422.515H457.766V425.982ZM473.238 433.765C472.16 433.765 471.221 433.554 470.421 433.132C469.621 432.698 469.005 432.093 468.571 431.315C468.138 430.526 467.921 429.598 467.921 428.532C467.921 427.465 468.132 426.548 468.555 425.782C468.977 425.004 469.577 424.409 470.355 423.998C471.144 423.576 472.071 423.365 473.138 423.365C474.182 423.365 475.077 423.565 475.821 423.965C476.577 424.365 477.155 424.937 477.555 425.682C477.955 426.426 478.155 427.315 478.155 428.348V429.282H470.571C470.682 430.026 470.966 430.593 471.421 430.982C471.877 431.37 472.477 431.565 473.221 431.565C473.81 431.565 474.277 431.465 474.621 431.265C474.966 431.065 475.21 430.759 475.355 430.348H478.121C477.899 431.415 477.36 432.254 476.505 432.865C475.649 433.465 474.56 433.765 473.238 433.765ZM470.638 427.448H475.505C475.416 426.815 475.171 426.343 474.771 426.032C474.371 425.709 473.832 425.548 473.155 425.548C472.477 425.548 471.921 425.709 471.488 426.032C471.066 426.354 470.782 426.826 470.638 427.448ZM484.083 433.765C483.038 433.765 482.122 433.554 481.333 433.132C480.555 432.698 479.944 432.093 479.499 431.315C479.066 430.537 478.849 429.62 478.849 428.565C478.849 427.509 479.066 426.593 479.499 425.815C479.933 425.037 480.544 424.437 481.333 424.015C482.122 423.582 483.038 423.365 484.083 423.365C485.405 423.365 486.494 423.698 487.349 424.365C488.205 425.032 488.744 425.948 488.966 427.115H486.183C486.038 426.682 485.788 426.348 485.433 426.115C485.077 425.882 484.627 425.765 484.083 425.765C483.338 425.765 482.738 426.009 482.283 426.498C481.838 426.987 481.616 427.676 481.616 428.565C481.616 429.454 481.844 430.143 482.299 430.632C482.755 431.12 483.349 431.365 484.083 431.365C485.261 431.365 485.977 430.865 486.233 429.865H489.016C488.816 431.087 488.288 432.043 487.433 432.732C486.577 433.42 485.461 433.765 484.083 433.765ZM489.997 437.565V435.348H492.197L492.98 433.482L488.663 423.565H491.597L494.397 430.298H494.463L497.197 423.565H500.03L495.747 433.565L494.93 435.498C494.652 436.154 494.33 436.659 493.963 437.015C493.597 437.382 493.036 437.565 492.28 437.565H489.997ZM505.177 433.765C504.133 433.765 503.216 433.554 502.427 433.132C501.65 432.698 501.038 432.093 500.594 431.315C500.161 430.537 499.944 429.62 499.944 428.565C499.944 427.509 500.161 426.593 500.594 425.815C501.027 425.037 501.638 424.437 502.427 424.015C503.216 423.582 504.133 423.365 505.177 423.365C506.5 423.365 507.588 423.698 508.444 424.365C509.3 425.032 509.838 425.948 510.061 427.115H507.277C507.133 426.682 506.883 426.348 506.527 426.115C506.172 425.882 505.722 425.765 505.177 425.765C504.433 425.765 503.833 426.009 503.377 426.498C502.933 426.987 502.711 427.676 502.711 428.565C502.711 429.454 502.938 430.143 503.394 430.632C503.85 431.12 504.444 431.365 505.177 431.365C506.355 431.365 507.072 430.865 507.327 429.865H510.111C509.911 431.087 509.383 432.043 508.527 432.732C507.672 433.42 506.555 433.765 505.177 433.765ZM510.984 433.565V419.565H513.75V433.565H510.984ZM520.359 433.765C519.281 433.765 518.342 433.554 517.542 433.132C516.742 432.698 516.126 432.093 515.692 431.315C515.259 430.526 515.042 429.598 515.042 428.532C515.042 427.465 515.253 426.548 515.676 425.782C516.098 425.004 516.698 424.409 517.476 423.998C518.265 423.576 519.192 423.365 520.259 423.365C521.303 423.365 522.198 423.565 522.942 423.965C523.698 424.365 524.276 424.937 524.676 425.682C525.076 426.426 525.276 427.315 525.276 428.348V429.282H517.692C517.803 430.026 518.087 430.593 518.542 430.982C518.998 431.37 519.598 431.565 520.342 431.565C520.931 431.565 521.398 431.465 521.742 431.265C522.087 431.065 522.331 430.759 522.476 430.348H525.242C525.02 431.415 524.481 432.254 523.626 432.865C522.77 433.465 521.681 433.765 520.359 433.765ZM517.759 427.448H522.626C522.537 426.815 522.292 426.343 521.892 426.032C521.492 425.709 520.953 425.548 520.276 425.548C519.598 425.548 519.042 425.709 518.609 426.032C518.187 426.354 517.903 426.826 517.759 427.448Z" fill="#F5F2EA"/>
<rect x="30.3447" y="379.64" width="161.489" height="78.5862" rx="39.2931" fill="#1E5E35"/>
<rect x="30.3447" y="379.64" width="161.489" height="78.5862" rx="39.2931" stroke="#52A867"/>
<path d="M83.1688 426.933V413.433H90.1521C91.5966 413.433 92.7244 413.76 93.5355 414.416C94.3577 415.06 94.7688 415.955 94.7688 417.099C94.7688 417.822 94.5966 418.438 94.2521 418.949C93.9188 419.46 93.4466 419.822 92.8355 420.033V420.116C93.4466 420.116 93.9188 420.283 94.2521 420.616C94.5966 420.938 94.7688 421.427 94.7688 422.083V426.933H91.9355V421.799H85.9855V426.933H83.1688ZM85.9855 419.349H89.9688C90.6133 419.349 91.1077 419.199 91.4521 418.899C91.8077 418.599 91.9855 418.172 91.9855 417.616C91.9855 417.06 91.8077 416.633 91.4521 416.333C91.1077 416.033 90.6133 415.883 89.9688 415.883H85.9855V419.349ZM101.457 427.133C100.379 427.133 99.4404 426.922 98.6404 426.499C97.8404 426.066 97.2238 425.46 96.7904 424.683C96.3571 423.894 96.1404 422.966 96.1404 421.899C96.1404 420.833 96.3515 419.916 96.7738 419.149C97.196 418.372 97.796 417.777 98.5738 417.366C99.3627 416.944 100.29 416.733 101.357 416.733C102.402 416.733 103.296 416.933 104.04 417.333C104.796 417.733 105.374 418.305 105.774 419.049C106.174 419.794 106.374 420.683 106.374 421.716V422.649H98.7904C98.9015 423.394 99.1849 423.96 99.6404 424.349C100.096 424.738 100.696 424.933 101.44 424.933C102.029 424.933 102.496 424.833 102.84 424.633C103.185 424.433 103.429 424.127 103.574 423.716H106.34C106.118 424.783 105.579 425.622 104.724 426.233C103.868 426.833 102.779 427.133 101.457 427.133ZM98.8571 420.816H103.724C103.635 420.183 103.39 419.71 102.99 419.399C102.59 419.077 102.052 418.916 101.374 418.916C100.696 418.916 100.14 419.077 99.7071 419.399C99.2849 419.722 99.0015 420.194 98.8571 420.816ZM111.852 427.116C110.463 427.116 109.396 426.749 108.652 426.016C107.907 425.283 107.535 424.283 107.535 423.016V416.933H110.302V422.483C110.302 423.205 110.485 423.749 110.852 424.116C111.23 424.472 111.791 424.649 112.535 424.649C113.302 424.649 113.891 424.455 114.302 424.066C114.724 423.677 114.935 423.122 114.935 422.399V416.933H117.702V424.199H119.069V426.933H116.269V425.299H115.569C115.169 425.888 114.68 426.338 114.102 426.649C113.535 426.96 112.785 427.116 111.852 427.116ZM124.61 427.133C123.143 427.133 121.982 426.827 121.126 426.216C120.282 425.594 119.826 424.727 119.76 423.616H122.426C122.515 424.094 122.743 424.449 123.11 424.683C123.487 424.916 124.026 425.033 124.726 425.033C125.871 425.033 126.443 424.716 126.443 424.083C126.443 423.827 126.354 423.627 126.176 423.483C126.01 423.327 125.726 423.21 125.326 423.133L123.093 422.699C121.093 422.31 120.093 421.372 120.093 419.883C120.093 418.927 120.476 418.166 121.243 417.599C122.01 417.022 123.071 416.733 124.426 416.733C125.771 416.733 126.837 417.027 127.626 417.616C128.415 418.205 128.849 419.027 128.926 420.083H126.26C126.137 419.616 125.921 419.277 125.61 419.066C125.299 418.855 124.849 418.749 124.26 418.749C123.749 418.749 123.36 418.827 123.093 418.983C122.826 419.127 122.693 419.349 122.693 419.649C122.693 419.86 122.776 420.038 122.943 420.183C123.11 420.327 123.365 420.433 123.71 420.499L125.993 420.933C127.037 421.144 127.804 421.483 128.293 421.949C128.782 422.416 129.026 423.049 129.026 423.849C129.026 424.883 128.643 425.688 127.876 426.266C127.121 426.844 126.032 427.133 124.61 427.133ZM134.964 427.133C133.886 427.133 132.947 426.922 132.147 426.499C131.347 426.066 130.731 425.46 130.297 424.683C129.864 423.894 129.647 422.966 129.647 421.899C129.647 420.833 129.859 419.916 130.281 419.149C130.703 418.372 131.303 417.777 132.081 417.366C132.87 416.944 133.797 416.733 134.864 416.733C135.909 416.733 136.803 416.933 137.547 417.333C138.303 417.733 138.881 418.305 139.281 419.049C139.681 419.794 139.881 420.683 139.881 421.716V422.649H132.297C132.409 423.394 132.692 423.96 133.147 424.349C133.603 424.738 134.203 424.933 134.947 424.933C135.536 424.933 136.003 424.833 136.347 424.633C136.692 424.433 136.936 424.127 137.081 423.716H139.847C139.625 424.783 139.086 425.622 138.231 426.233C137.375 426.833 136.286 427.133 134.964 427.133ZM132.364 420.816H137.231C137.142 420.183 136.897 419.71 136.497 419.399C136.097 419.077 135.559 418.916 134.881 418.916C134.203 418.916 133.647 419.077 133.214 419.399C132.792 419.722 132.509 420.194 132.364 420.816Z" fill="#F5F2EA"/>
<rect x="293.545" width="34.1996" height="34.1361" rx="17.0681" fill="#2C783A"/>
<path d="M316.942 11.3689L308.042 20.2686L303.842 15.9692L302.441 17.4692L308.042 23.0689L318.341 12.7686L316.942 11.3689Z" fill="#F5F2EA"/>
<rect x="286.421" y="455.429" width="34.1996" height="34.1361" rx="17.0681" fill="#2C783A"/>
<path d="M309.818 466.798L300.918 475.698L296.718 471.398L295.317 472.898L300.918 478.498L311.217 468.198L309.818 466.798Z" fill="#F5F2EA"/>
<path d="M491.606 378.042C491.691 378.588 492.202 378.962 492.748 378.877L501.644 377.505C502.189 377.421 502.563 376.91 502.479 376.364C502.394 375.818 501.883 375.444 501.337 375.529L493.43 376.749L492.202 368.844C492.117 368.299 491.606 367.925 491.06 368.009C490.515 368.093 490.141 368.604 490.225 369.149L491.606 378.042ZM527.898 186.324L526.934 186.588C545.684 254.798 530.583 324.304 491.787 377.299L492.595 377.889L493.402 378.48C532.542 325.016 547.782 254.884 528.863 186.06L527.898 186.324ZM523.516 172.195L522.571 172.522C524.167 177.129 525.623 181.819 526.934 186.588L527.898 186.324L528.863 186.06C527.541 181.249 526.071 176.518 524.461 171.869L523.516 172.195Z" fill="#2C783A"/>
<path d="M93.3296 170.59C93.0917 170.092 92.4945 169.88 91.9956 170.117L83.8652 173.981C83.3662 174.218 83.1546 174.814 83.3924 175.313C83.6302 175.811 84.2274 176.023 84.7264 175.786L91.9534 172.351L95.3982 179.57C95.636 180.068 96.2333 180.28 96.7322 180.043C97.2311 179.806 97.4428 179.21 97.205 178.711L93.3296 170.59ZM114.081 365.472L114.927 364.94C76.9474 304.816 71.2954 233.528 93.3694 171.354L92.4262 171.02L91.4829 170.685C69.2129 233.41 74.9134 305.341 113.234 366.005L114.081 365.472ZM120.702 375.371L121.519 374.795C119.249 371.587 117.05 368.301 114.927 364.94L114.081 365.472L113.234 366.005C115.376 369.396 117.594 372.71 119.884 375.948L120.702 375.371Z" fill="#2C783A"/>
<rect x="518.979" y="247.398" width="34.1996" height="34.1361" rx="17.0681" fill="#2C783A"/>
<path d="M542.376 258.767L533.477 267.667L529.277 263.367L527.876 264.867L533.477 270.467L543.776 260.167L542.376 258.767Z" fill="#F5F2EA"/>
<rect x="65.1191" y="247.398" width="34.1996" height="34.1361" rx="17.0681" fill="#2C783A"/>
<path d="M88.5159 258.767L79.6162 267.667L75.4162 263.367L74.0156 264.867L79.6163 270.467L89.9156 260.167L88.5159 258.767Z" fill="#F5F2EA"/>
<path d="M342.371 240.623C342.344 240.605 342.313 240.591 342.282 240.582C342.251 240.573 342.214 240.568 342.178 240.568C342.116 240.568 342.037 240.584 341.946 240.617C341.702 240.704 341.365 240.899 340.988 241.143C340.611 241.388 340.194 241.684 339.789 241.972C339.738 242.008 339.688 242.045 339.637 242.08C339.556 242.139 339.475 242.197 339.395 242.254C339.359 242.279 339.324 242.303 339.29 242.328C339.019 242.521 338.767 242.698 338.551 242.84C338.513 242.865 338.475 242.89 338.439 242.913C338.332 242.982 338.235 243.038 338.153 243.083C338.016 243.155 337.879 243.221 337.744 243.288C337.639 243.339 337.535 243.389 337.43 243.437C336.908 243.676 336.387 243.879 335.867 244.041C335.676 244.099 335.486 244.154 335.295 244.202C334.155 244.492 333.012 244.604 331.845 244.554C331.63 244.545 331.414 244.529 331.197 244.51C330.845 244.478 330.49 244.432 330.133 244.372C329.711 244.301 329.283 244.212 328.853 244.106C328.836 244.103 328.816 244.097 328.792 244.09C328.792 244.09 328.791 244.09 328.789 244.09C328.765 244.083 328.737 244.076 328.706 244.067C328.266 243.94 327.22 243.605 327.042 243.437C327.042 243.437 327.042 243.437 327.041 243.433L327.183 243.196C327.22 243.199 327.261 243.206 327.299 243.21V243.206C327.299 243.206 327.308 243.206 327.312 243.206C327.737 243.339 328.177 243.373 328.63 243.502C329.262 243.683 329.897 243.894 330.543 243.989C330.621 244.002 330.697 244.01 330.774 244.018C331.399 244.08 332.038 244.08 332.684 244.023C332.9 244.003 333.115 243.979 333.332 243.948C333.441 243.933 333.548 243.917 333.657 243.897C334.09 243.823 334.522 243.725 334.954 243.605C335.061 243.575 335.168 243.543 335.275 243.511C335.49 243.446 335.704 243.375 335.916 243.299C336.235 243.183 336.551 243.058 336.864 242.921C337.385 242.693 337.896 242.433 338.39 242.146C338.686 241.974 338.977 241.792 339.261 241.6C339.733 241.282 340.188 240.936 340.617 240.568C340.957 240.276 341.228 240.049 341.373 239.736C341.402 239.674 341.427 239.61 341.445 239.539C341.468 239.454 341.482 239.362 341.486 239.261C341.492 239.165 341.488 239.061 341.476 238.946C341.464 238.82 341.441 238.685 341.406 238.533C341.372 238.386 341.327 238.273 341.275 238.19C341.248 238.147 341.219 238.113 341.188 238.085C341.157 238.057 341.126 238.035 341.092 238.02C341.042 237.997 340.988 237.986 340.933 237.986C340.858 237.986 340.781 238.007 340.7 238.041C340.661 238.059 340.62 238.078 340.58 238.103C340.56 238.115 340.541 238.128 340.52 238.14C340.448 238.188 340.376 238.244 340.306 238.305C340.291 238.319 340.274 238.333 340.258 238.347C340.143 238.453 340.035 238.569 339.945 238.678C339.923 238.705 339.901 238.731 339.882 238.756C339.855 238.79 339.831 238.824 339.808 238.854C339.333 239.509 339.134 240.054 338.665 240.619C338.593 240.706 338.514 240.793 338.428 240.881C338.384 240.926 338.339 240.97 338.291 241.014C338.192 241.106 338.092 241.197 337.991 241.283C337.947 241.322 337.902 241.358 337.857 241.395C337.803 241.439 337.751 241.483 337.697 241.526C337.635 241.575 337.573 241.623 337.511 241.671C337.483 241.692 337.453 241.715 337.423 241.737C336.514 242.413 335.525 242.905 334.495 243.201C334.471 243.208 334.448 243.215 334.424 243.221C334.345 243.242 334.268 243.263 334.189 243.283C334.141 243.295 334.094 243.306 334.046 243.316C333.983 243.33 333.918 243.345 333.854 243.359C333.787 243.373 333.719 243.385 333.65 243.398C333.6 243.407 333.551 243.415 333.501 243.424C333.475 243.428 333.446 243.431 333.42 243.437C333.305 243.454 333.192 243.469 333.078 243.483C333.039 243.488 332.998 243.49 332.958 243.493C332.857 243.504 332.753 243.511 332.652 243.518C332.61 243.52 332.567 243.522 332.525 243.525C332.423 243.531 332.322 243.532 332.22 243.534C332.179 243.534 332.138 243.534 332.097 243.534C331.991 243.534 331.886 243.532 331.781 243.527C331.744 243.527 331.708 243.525 331.672 243.523C331.558 243.518 331.444 243.509 331.33 243.5C331.303 243.499 331.275 243.497 331.248 243.493C331.109 243.481 330.973 243.463 330.836 243.446C330.833 243.446 330.829 243.446 330.826 243.446C330.534 243.405 330.244 243.348 329.956 243.281C329.941 243.277 329.927 243.274 329.911 243.268C329.786 243.238 329.66 243.205 329.534 243.169C329.503 243.16 329.474 243.152 329.443 243.143C329.333 243.111 329.223 243.075 329.112 243.04C329.077 243.028 329.042 243.017 329.007 243.005C328.901 242.967 328.795 242.93 328.689 242.891C328.654 242.879 328.62 242.865 328.585 242.851C328.477 242.808 328.37 242.764 328.263 242.719C328.232 242.707 328.202 242.693 328.171 242.681C328.054 242.629 327.937 242.574 327.82 242.519C327.8 242.511 327.782 242.502 327.762 242.493C327.625 242.426 327.49 242.356 327.354 242.284C327.252 242.229 327.054 242.054 326.939 242.05C326.931 242.045 326.921 242.039 326.912 242.034C326.798 241.965 326.684 241.896 326.569 241.823C326.503 241.781 326.437 241.737 326.372 241.692C326.325 241.661 326.277 241.63 326.231 241.599C326.046 241.471 324.963 240.621 325.229 240.265C325.229 240.265 325.229 240.265 325.23 240.265C325.232 240.265 325.233 240.265 325.234 240.265C325.33 240.302 325.425 240.346 325.518 240.398C325.527 240.403 325.536 240.408 325.545 240.414C326.167 240.761 326.725 241.342 327.46 241.225C327.511 241.218 327.562 241.207 327.614 241.191C327.88 241.115 328.144 240.95 328.403 240.745C328.531 240.642 328.658 240.529 328.782 240.412C329.403 239.826 329.959 239.132 330.352 239.079C330.38 239.075 330.407 239.073 330.435 239.071C330.463 239.07 330.491 239.071 330.519 239.071C330.548 239.071 330.577 239.075 330.606 239.079C330.663 239.086 330.723 239.094 330.781 239.103C330.869 239.117 330.957 239.13 331.046 239.133C331.28 239.141 331.51 239.077 331.711 238.756C331.801 238.613 331.921 238.294 332.035 237.926C332.059 237.848 332.082 237.768 332.106 237.688C332.133 237.593 332.159 237.497 332.183 237.402C332.205 237.322 332.224 237.242 332.243 237.164C332.257 237.102 332.271 237.04 332.284 236.98C332.309 236.86 332.33 236.746 332.346 236.644C332.354 236.592 332.36 236.544 332.365 236.498C332.37 236.454 332.374 236.412 332.375 236.374C332.377 236.337 332.377 236.304 332.375 236.273C332.365 236.132 332.319 236.001 332.244 235.882C332.226 235.852 332.205 235.824 332.182 235.795C332.147 235.751 332.107 235.709 332.065 235.668C332.042 235.645 332.018 235.624 331.993 235.602C331.917 235.537 331.831 235.475 331.737 235.416C331.702 235.393 331.664 235.372 331.627 235.351C331.287 235.158 330.871 235.005 330.472 234.873C330.428 234.859 330.383 234.844 330.339 234.83C329.856 234.674 329.412 234.545 329.17 234.407C328.874 234.237 328.631 233.764 328.439 233.637C328.103 233.415 325.963 232.746 325.786 232.974C325.792 233.212 325.782 233.481 325.751 233.743C325.728 233.939 325.693 234.134 325.644 234.31C325.627 234.368 325.61 234.425 325.59 234.48C325.563 234.554 325.541 234.642 325.504 234.688C325.467 234.735 325.419 234.742 325.34 234.657C325.319 234.634 325.304 234.41 325.288 234.125C325.263 233.649 325.239 232.997 325.201 232.801C325.151 232.553 324.927 231.906 324.712 231.476C324.693 231.437 324.673 231.4 324.654 231.365C324.616 231.294 324.578 231.232 324.543 231.184C324.508 231.134 324.474 231.099 324.444 231.078C324.307 230.986 324.176 231.012 324.05 231.111C323.913 231.221 323.782 231.421 323.659 231.655C323.616 231.738 323.572 231.827 323.53 231.915C323.497 231.986 323.465 232.057 323.432 232.128C323.404 232.19 323.377 232.254 323.349 232.314C323.333 232.349 323.318 232.385 323.302 232.42C323.17 232.723 323.048 232.99 322.94 233.118C322.769 233.32 322.461 233.481 322.151 233.638C322.09 233.668 322.031 233.699 321.97 233.729C321.894 233.768 321.819 233.807 321.749 233.846C321.723 233.86 321.699 233.874 321.675 233.888C321.591 233.938 321.51 233.989 321.441 234.042C321.198 234.23 320.965 234.465 320.741 234.733C320.198 235.383 319.7 236.224 319.217 237.038C318.834 237.683 318.463 238.308 318.086 238.806C318.085 238.824 318.086 238.839 318.088 238.857C318.094 238.891 318.109 238.926 318.133 238.96C318.266 239.158 318.645 239.341 318.827 239.431C318.839 239.436 318.849 239.442 318.857 239.447C318.865 239.45 318.875 239.456 318.882 239.459C318.991 239.516 319.101 239.566 319.211 239.613C319.238 239.626 319.266 239.636 319.293 239.649C319.4 239.693 319.509 239.736 319.619 239.775C319.621 239.775 319.623 239.775 319.625 239.776C319.739 239.817 319.853 239.852 319.969 239.886C319.996 239.893 320.023 239.902 320.05 239.909C320.155 239.939 320.261 239.968 320.367 239.994C320.374 239.994 320.381 239.998 320.387 239.999C320.387 239.999 320.388 239.999 320.39 239.999C320.556 240.04 320.723 240.077 320.891 240.113C320.946 240.141 320.989 240.182 321.016 240.237C321.018 240.246 321.018 240.256 321.016 240.265C320.987 240.456 320.412 240.617 320.206 240.662C320.206 240.662 320.203 240.662 320.202 240.662C320.189 240.665 320.178 240.667 320.168 240.669C320.167 240.669 320.165 240.669 320.164 240.669C320.155 240.669 320.147 240.672 320.143 240.672C319.987 240.692 319.828 240.701 319.664 240.702C319.34 240.704 319.004 240.678 318.665 240.651C318.5 240.639 318.335 240.626 318.17 240.616C318.081 240.61 317.992 240.607 317.903 240.605C317.734 240.6 317.567 240.602 317.401 240.612C317.221 240.625 317.044 240.648 316.87 240.687C316.742 240.715 316.615 240.754 316.49 240.802C316.452 240.816 316.414 240.833 316.376 240.849C316.321 240.874 316.266 240.899 316.212 240.927C316.136 240.968 316.066 241.027 315.996 241.09C315.947 241.136 315.9 241.184 315.854 241.232C315.844 241.243 315.834 241.251 315.824 241.262C315.713 241.381 315.606 241.498 315.494 241.568C315.311 241.687 315.12 241.795 314.931 241.903C314.598 242.093 314.262 242.277 313.943 242.496C313.939 242.503 313.939 242.511 313.94 242.521C313.949 242.571 314.024 242.659 314.144 242.776C314.167 242.799 314.193 242.824 314.221 242.849C314.303 242.925 314.4 243.008 314.509 243.098C314.581 243.159 314.657 243.221 314.738 243.284C314.858 243.38 314.985 243.479 315.116 243.58C315.855 244.147 316.699 244.735 316.85 244.804C316.888 244.822 316.928 244.837 316.967 244.853C317.046 244.885 317.128 244.912 317.212 244.937C317.254 244.949 317.295 244.961 317.337 244.972C317.591 245.041 317.854 245.1 318.098 245.185C318.139 245.199 318.178 245.215 318.218 245.231C318.376 245.296 318.524 245.376 318.654 245.486C318.686 245.514 318.717 245.542 318.747 245.574C317.959 245.85 317.2 245.927 316.448 245.822C315.862 245.741 315.282 245.551 314.694 245.264C314.541 245.19 314.398 245.119 314.262 245.05C314.194 245.016 314.128 244.983 314.063 244.949C313.98 244.907 313.901 244.866 313.823 244.825C313.72 244.772 313.621 244.721 313.527 244.671C313.305 244.556 313.103 244.453 312.913 244.363C312.295 244.071 311.792 243.913 311.083 243.922C310.919 243.924 310.744 243.934 310.555 243.954C310.491 243.961 310.426 243.968 310.36 243.977C310.226 243.995 310.086 244.016 309.937 244.042C309.712 244.081 309.469 244.129 309.204 244.188L307.241 244.806C307.502 245.137 307.76 245.484 308.019 245.838C308.363 246.311 308.71 246.794 309.067 247.265C309.247 247.501 309.427 247.733 309.612 247.958C310.26 248.746 310.954 249.454 311.743 249.945C311.815 249.989 312.423 250.221 312.888 250.476C312.938 250.504 312.989 250.533 313.036 250.561C313.13 250.618 313.212 250.676 313.277 250.733C313.405 250.846 313.462 250.952 313.383 251.037C312.705 251.011 311.88 251.037 311.218 250.88C309.433 250.458 308.17 248.879 306.801 247.501C305.979 246.676 305.119 245.923 304.084 245.537C303.85 245.45 303.628 245.385 303.414 245.337C303.342 245.321 303.273 245.307 303.202 245.294C302.784 245.22 302.392 245.201 301.99 245.19C301.924 245.188 301.856 245.186 301.788 245.185C301.653 245.181 301.516 245.177 301.376 245.172C301.166 245.163 300.948 245.151 300.72 245.128L296.849 244.731C298.225 246.233 299.396 248.232 300.852 249.644C300.926 249.715 300.999 249.784 301.073 249.851C301.37 250.12 301.679 250.364 302.005 250.575C302.087 250.628 302.169 250.678 302.252 250.726C302.753 251.014 303.294 251.22 303.887 251.314C303.762 251.539 303.506 251.655 303.216 251.71C303.175 251.719 303.133 251.724 303.091 251.732C302.964 251.749 302.832 251.756 302.708 251.758C302.499 251.76 302.303 251.746 302.158 251.73C301.198 251.632 300.356 251.163 299.556 250.524C299.467 250.453 299.378 250.38 299.29 250.304C297.354 248.656 295.618 246.118 292.968 245.603C292.732 245.556 292.521 245.567 292.322 245.606C292.072 245.654 291.84 245.746 291.6 245.831C291.561 245.845 291.521 245.858 291.482 245.872C291.324 245.923 291.159 245.967 290.982 245.99C290.751 246.019 290.452 245.983 290.23 246.066C290.199 246.068 290.169 246.072 290.138 246.074C290.138 246.074 290.137 246.074 290.136 246.074C289.928 246.049 289.694 246.105 289.484 246.116C289.086 246.136 288.688 246.146 288.29 246.16C288.081 246.167 287.873 246.176 287.664 246.189C287.64 246.189 287.615 246.192 287.591 246.194C287.542 246.198 287.492 246.201 287.443 246.205C287.399 246.208 287.355 246.212 287.312 246.215C287.276 246.219 287.241 246.221 287.206 246.224C287.148 246.229 287.089 246.236 287.031 246.244C287.007 246.247 286.984 246.249 286.96 246.251C286.885 246.26 286.812 246.27 286.739 246.281C286.729 246.281 286.72 246.283 286.71 246.284C286.629 246.297 286.547 246.311 286.465 246.327C286.437 246.332 286.407 246.339 286.379 246.345C286.327 246.355 286.274 246.366 286.224 246.378C286.214 246.38 286.204 246.382 286.194 246.385C286.17 246.391 286.146 246.398 286.122 246.405C286.071 246.417 286.02 246.431 285.97 246.445C285.955 246.449 285.943 246.453 285.929 246.458C285.09 246.7 284.218 247.157 283.151 248.039C283.109 248.075 283.067 248.108 283.024 248.144C282.992 248.172 282.958 248.2 282.926 248.229C282.839 248.303 282.753 248.377 282.669 248.454C282.464 248.638 282.264 248.834 282.069 249.04C281.997 249.116 281.925 249.194 281.854 249.272C281.702 249.44 281.551 249.614 281.401 249.791C281.212 250.016 281.025 250.244 280.837 250.474C280.683 250.664 280.528 250.855 280.373 251.043C280.311 251.119 280.248 251.193 280.186 251.268C280.062 251.416 279.937 251.565 279.81 251.709C278.733 252.936 277.567 253.943 276.01 253.986C275.734 253.993 275.224 253.931 274.746 253.851C274.64 253.834 274.534 253.816 274.434 253.796C274.383 253.788 274.335 253.777 274.287 253.768C274.145 253.74 274.014 253.711 273.906 253.685C273.871 253.676 273.837 253.667 273.808 253.658C273.642 253.612 273.486 253.552 273.335 253.485C273.184 253.417 273.037 253.345 272.892 253.276C272.6 253.138 272.312 253.017 271.991 252.994C271.979 252.994 271.969 252.998 271.96 253.007C271.916 253.046 271.915 253.173 271.925 253.26C271.929 253.295 271.935 253.324 271.939 253.34C271.959 253.398 272.008 253.469 272.079 253.549C272.131 253.609 272.197 253.674 272.271 253.742C272.296 253.765 272.321 253.788 272.348 253.811C272.456 253.904 272.578 254.004 272.711 254.105C272.743 254.129 272.777 254.156 272.811 254.181C272.879 254.232 272.949 254.282 273.02 254.333C273.055 254.358 273.091 254.383 273.127 254.409C273.27 254.508 273.417 254.607 273.558 254.698C273.593 254.721 273.628 254.744 273.664 254.765C273.768 254.831 273.868 254.894 273.964 254.951C274.06 255.008 274.148 255.059 274.228 255.103C274.362 255.176 274.472 255.231 274.546 255.257C275.931 255.76 277.086 255.663 278.103 255.226C278.167 255.199 278.23 255.169 278.292 255.139C278.542 255.018 278.785 254.878 279.021 254.723C279.138 254.645 279.255 254.561 279.369 254.476C279.598 254.305 279.822 254.119 280.041 253.924C280.096 253.874 280.15 253.825 280.205 253.775C280.367 253.625 280.528 253.469 280.687 253.309C280.741 253.256 280.793 253.203 280.845 253.15C281.003 252.989 281.16 252.824 281.315 252.66C281.42 252.55 281.523 252.438 281.626 252.328C281.729 252.219 281.832 252.107 281.936 251.997C282.195 251.723 282.453 251.45 282.714 251.188C283.027 250.874 283.346 250.577 283.675 250.31C283.73 250.265 283.785 250.221 283.84 250.178C284.558 249.621 285.327 249.212 286.197 249.091C286.576 249.038 287.024 249.05 287.468 249.045C287.769 249.042 288.067 249.027 288.343 248.985C288.476 248.964 288.606 248.939 288.726 248.902C288.997 248.815 289.254 248.409 289.457 248.184C289.599 248.027 289.728 247.892 289.818 247.834C289.845 247.821 289.873 247.814 289.9 247.805C289.907 247.829 289.911 247.853 289.913 247.878C289.876 248.068 289.836 248.257 289.794 248.447C289.755 248.622 289.714 248.795 289.671 248.967C289.667 248.987 289.663 249.004 289.657 249.024C289.616 249.19 289.571 249.355 289.526 249.518C289.519 249.545 289.51 249.573 289.503 249.599C289.458 249.761 289.41 249.92 289.362 250.078C289.352 250.108 289.344 250.136 289.334 250.166C289.285 250.324 289.232 250.481 289.179 250.637C289.169 250.664 289.16 250.69 289.15 250.717C289.094 250.878 289.036 251.037 288.974 251.195C288.968 251.207 288.964 251.22 288.959 251.234C288.896 251.393 288.832 251.551 288.764 251.707C288.758 251.719 288.754 251.732 288.748 251.744C288.061 253.324 287.086 254.719 285.823 255.569C285.823 255.569 285.823 255.569 285.821 255.569C285.741 255.624 285.658 255.675 285.574 255.725C285.562 255.732 285.549 255.741 285.535 255.748C285.445 255.801 285.353 255.852 285.261 255.898C284.2 256.44 283.14 256.545 282.073 256.885C282.003 256.908 281.931 256.931 281.86 256.956C281.778 256.984 281.701 257.011 281.626 257.039C281.476 257.094 281.338 257.147 281.211 257.214C281.18 257.23 281.149 257.248 281.118 257.267C280.94 257.375 280.786 257.515 280.651 257.726C280.641 257.74 280.632 257.756 280.622 257.772C280.56 257.875 280.502 257.992 280.447 258.13C280.423 258.19 280.397 258.268 280.367 258.362C280.322 258.502 280.271 258.677 280.215 258.881C280.14 259.152 280.056 259.472 279.968 259.823C279.924 259.998 279.879 260.182 279.832 260.372C279.694 260.94 279.551 261.56 279.414 262.171C279.256 262.885 279.108 263.588 278.992 264.183C278.86 264.864 278.769 265.408 278.754 265.672C278.692 266.696 278.892 267.786 279.318 268.302C279.344 268.332 279.369 268.36 279.396 268.387C279.53 268.518 279.682 268.596 279.855 268.603C279.855 268.603 279.856 268.603 279.857 268.603C280.165 268.615 280.535 268.406 280.958 267.877L282.099 261.178C282.484 261.229 282.868 261.321 283.252 261.418C283.38 261.45 283.507 261.484 283.635 261.518C284.148 261.65 284.66 261.774 285.178 261.819C286.325 261.914 287.638 261.781 288.889 261.48C288.939 261.468 288.99 261.456 289.039 261.443C289.774 261.257 290.484 261.015 291.121 260.726C292.395 260.149 293.49 259.237 294.591 258.365C294.769 258.225 294.945 258.086 295.123 257.949C295.251 257.85 295.38 257.754 295.51 257.659C296.157 257.184 296.825 256.759 297.547 256.456C298.06 256.242 298.597 256.076 299.134 255.923C299.348 255.861 299.563 255.803 299.776 255.744C299.882 255.714 299.989 255.684 300.093 255.654C299.704 254.999 299.07 254.657 298.582 254.119C298.517 254.048 298.221 253.703 297.998 253.387C297.948 253.318 297.902 253.249 297.862 253.185C297.842 253.154 297.824 253.123 297.808 253.095C297.745 252.98 297.715 252.891 297.748 252.854C297.791 252.833 297.831 252.822 297.869 252.821C298.134 252.803 298.273 253.18 298.333 253.219C299.27 253.821 300.217 254.507 301.211 255.068C301.376 255.162 301.543 255.252 301.712 255.337C301.88 255.422 302.049 255.504 302.221 255.58C303.366 256.086 304.608 256.462 305.908 256.706C306.123 256.747 306.342 256.784 306.562 256.818C307.001 256.885 307.446 256.938 307.895 256.975C308.343 257.014 308.796 257.037 309.252 257.048C309.479 257.053 309.708 257.055 309.937 257.053C310.622 257.048 311.314 257.009 312.003 256.94C312.233 256.917 312.463 256.89 312.691 256.86C313.65 256.734 314.604 256.548 315.538 256.304C315.946 256.198 316.349 256.081 316.749 255.952C316.967 255.881 317.185 255.806 317.401 255.728C317.832 255.573 318.259 255.404 318.675 255.222C320.136 254.584 321.499 253.786 322.7 252.828C322.713 252.817 322.728 252.805 322.748 252.789C322.796 252.75 322.864 252.691 322.941 252.624C322.993 252.58 323.048 252.532 323.109 252.479C323.147 252.445 323.185 252.412 323.225 252.376C323.621 252.026 324.09 251.595 324.115 251.521L322.327 250.545C322.226 250.474 322.106 250.384 321.976 250.279C321.847 250.175 321.708 250.055 321.569 249.925C321.476 249.838 321.385 249.748 321.293 249.656C321.203 249.562 321.114 249.467 321.03 249.371C320.781 249.081 320.575 248.781 320.483 248.514C320.45 248.42 320.438 248.36 320.442 248.314C320.446 248.268 320.467 248.234 320.504 248.193C320.528 248.167 320.559 248.137 320.596 248.096C320.69 248.213 320.788 248.326 320.886 248.436C320.926 248.48 320.968 248.521 321.008 248.565C321.067 248.627 321.125 248.689 321.186 248.749C321.239 248.803 321.294 248.854 321.349 248.903C321.397 248.948 321.444 248.992 321.492 249.034C321.557 249.091 321.622 249.144 321.688 249.199C321.727 249.231 321.766 249.263 321.805 249.293C321.88 249.351 321.955 249.406 322.029 249.46C322.061 249.483 322.092 249.504 322.123 249.525C322.206 249.582 322.291 249.637 322.375 249.69C322.398 249.704 322.422 249.718 322.444 249.732C322.538 249.789 322.632 249.842 322.727 249.892C322.739 249.899 322.753 249.906 322.766 249.911C322.869 249.964 322.974 250.016 323.079 250.063C323.091 250.076 323.099 250.09 323.112 250.099C323.154 250.129 323.201 250.136 323.247 250.136C324.162 250.511 325.138 250.642 326.129 250.51C326.142 250.51 326.155 250.508 326.167 250.506C326.308 250.487 326.451 250.462 326.592 250.43C327.931 250.138 329.458 249.718 330.981 249.252C332.502 248.787 334.019 248.277 335.336 247.804C336.325 247.45 337.823 246.865 339.207 246.043C339.392 245.934 339.574 245.82 339.753 245.702C339.932 245.583 340.107 245.461 340.278 245.333C340.449 245.206 340.614 245.075 340.774 244.94C341.092 244.669 341.385 244.381 341.64 244.076C342.087 243.541 342.419 242.953 342.573 242.31C342.587 242.25 342.601 242.179 342.614 242.105C342.617 242.091 342.618 242.078 342.621 242.064C342.632 241.986 342.643 241.901 342.65 241.815C342.659 241.721 342.663 241.623 342.663 241.526C342.665 241.138 342.595 240.756 342.375 240.617L342.371 240.623Z" fill="#2C783A"/>
<path d="M381.883 167.157L361.443 215.538C361.01 216.561 359.977 217.2 358.868 217.123L304.238 213.404C301.691 213.229 300.887 209.864 303.086 208.555L320.287 198.322L305.927 174.649L297.655 161.005C295.473 157.409 292.435 154.51 288.89 152.516C285.345 150.52 281.295 149.422 277.095 149.422H334.851C343.201 149.422 350.943 153.783 355.279 160.929L362.666 173.11L378.153 163.895C380.318 162.609 382.864 164.836 381.883 167.157Z" fill="#2C783A"/>
<path d="M305.927 174.649L278.707 219.53C277.363 221.742 274.494 222.459 272.271 221.136L237.999 200.748C235.745 199.406 235.018 196.484 236.377 194.239L256.534 161.005C260.896 153.81 268.689 149.422 277.093 149.422C281.294 149.422 285.343 150.52 288.888 152.516C292.433 154.51 295.471 157.409 297.654 161.005L305.925 174.649H305.927Z" fill="#1E5E35"/>
<path d="M193.413 225.985L245.377 218.794C246.477 218.644 247.554 219.205 248.055 220.197L272.837 269.096C273.992 271.379 271.517 273.791 269.27 272.57L251.685 263.014L238.732 287.486L231.267 301.589C229.299 305.307 228.372 309.406 228.473 313.476C228.576 317.548 229.708 321.594 231.858 325.206L202.285 275.522C198.011 268.341 197.787 259.444 201.697 252.058L208.361 239.466L192.526 230.861C190.314 229.658 190.921 226.329 193.412 225.983L193.413 225.985Z" fill="#52A867"/>
<path d="M295.897 332.557C295.9 335.181 293.766 337.307 291.146 337.283L252.32 336.961C243.915 336.893 236.16 332.433 231.855 325.206C229.705 321.592 228.575 317.548 228.472 313.476C228.367 309.406 229.296 305.307 231.264 301.589L238.729 287.488L291.16 287.925C293.746 287.946 295.83 290.046 295.836 292.637L295.897 332.558V332.557Z" fill="#1E5E35"/>
<path d="M336.343 355.806L305.736 313.14C305.089 312.237 305.082 311.021 305.726 310.114L337.338 265.339C338.815 263.251 342.1 264.316 342.07 266.878L341.841 286.912L369.499 286.961L385.437 286.989C389.639 286.996 393.692 285.904 397.24 283.914C400.786 281.922 403.832 279.031 406.019 275.44L375.95 324.823C371.604 331.961 363.852 336.312 355.504 336.297L341.274 336.273L341.066 354.315C341.037 356.835 337.814 357.852 336.344 355.807L336.343 355.806Z" fill="#2E8A49"/>
<path d="M382.611 215.29C384.927 214.064 387.8 214.96 389.003 217.292L406.841 251.829C410.704 259.305 410.388 268.254 406.014 275.442C403.827 279.032 400.783 281.923 397.235 283.914C393.69 285.907 389.636 286.998 385.434 286.991L369.497 286.963L345.408 240.321C344.219 238.022 345.101 235.195 347.386 233.982L382.611 215.291V215.29Z" fill="#1E5E35"/>
</svg>
