<svg width="594" height="314" viewBox="0 0 594 314" fill="none" xmlns="http://www.w3.org/2000/svg">
<path d="M3.31354 60.2953C3.57563 60.1811 3.87555 60.0963 4.17259 60.0515C4.46956 60.0066 4.81776 59.9923 5.16294 60.0179C5.7471 60.0612 6.48168 60.2359 7.31262 60.5515C9.56115 61.3732 12.6259 63.0709 16.0347 65.1684C19.4435 67.2659 23.2088 69.7775 26.8585 72.2271C27.3168 72.5285 27.7608 72.8421 28.219 73.1434C28.9566 73.6393 29.6808 74.1341 30.406 74.6157C30.7241 74.8264 31.0422 75.0371 31.3471 75.2469C33.7887 76.885 36.0667 78.3907 38.0191 79.6049C38.3638 79.8176 38.7085 80.0304 39.0276 80.2278C39.9982 80.8211 40.8827 81.3145 41.6281 81.7039C42.8755 82.3445 44.1268 82.9318 45.364 83.5315C46.3178 83.9899 47.2727 84.435 48.2285 84.8668C53.0078 87.0257 57.7935 88.9178 62.6028 90.4907C64.3626 91.0623 66.1244 91.6072 67.8901 92.099C78.4558 95.0744 89.1475 96.7088 100.155 97.15C102.178 97.2331 104.218 97.2639 106.273 97.2691C109.597 97.2747 112.968 97.1769 116.36 96.9737C120.369 96.736 124.441 96.3692 128.55 95.8715C128.711 95.8567 128.9 95.8306 129.129 95.7941C129.129 95.7941 129.143 95.7951 129.156 95.7961C129.386 95.7596 129.655 95.7261 129.952 95.6812C134.165 95.0308 144.189 93.2467 145.956 92.1075C145.956 92.1075 145.956 92.1075 145.971 92.0819L144.762 90.2009C144.415 90.2019 144.026 90.2266 143.665 90.2266L143.667 90.2C143.667 90.2 143.588 90.1941 143.548 90.1912C139.478 90.8923 135.317 90.838 130.983 91.4929C124.935 92.4084 118.843 93.548 112.71 93.8155C111.973 93.8544 111.251 93.8678 110.53 93.8679C104.614 93.8975 98.5998 93.4519 92.5508 92.5759C90.5303 92.2791 88.5261 91.9435 86.4983 91.566C85.4849 91.3705 84.4848 91.1761 83.4734 90.9541C79.4389 90.0937 75.4305 89.0614 71.4349 87.8563C70.4427 87.5555 69.4514 87.2414 68.4601 86.9273C66.4786 86.2858 64.5 85.6045 62.5509 84.8852C59.6145 83.7986 56.7105 82.6342 53.8391 81.392C49.0672 79.3139 44.4059 77.0032 39.9188 74.505C37.2264 73.0087 34.5929 71.4365 32.0307 69.8028C27.7605 67.08 23.6777 64.1705 19.8466 61.1058C16.8095 58.6749 14.3865 56.7841 13.1934 54.3294C12.9624 53.8444 12.7589 53.348 12.6257 52.8033C12.4606 52.1494 12.3791 51.4482 12.3953 50.6873C12.3955 49.9654 12.4934 49.1839 12.6636 48.3275C12.8531 47.3923 13.1404 46.3975 13.557 45.2787C13.9574 44.1987 14.4453 43.3792 14.9828 42.7907C15.2587 42.4903 15.5429 42.2573 15.8507 42.0662C16.1586 41.8751 16.4625 41.7372 16.7901 41.6411C17.2808 41.5037 17.7912 41.4613 18.309 41.4997C19.0126 41.5518 19.731 41.7654 20.469 42.0741C20.8309 42.2347 21.2051 42.4094 21.5631 42.6231C21.742 42.73 21.921 42.8368 22.1133 42.9446C22.7638 43.3538 23.4093 43.8294 24.0263 44.3297C24.1645 44.4469 24.316 44.5651 24.4541 44.6823C25.4837 45.5607 26.4286 46.4997 27.2172 47.387C27.4149 47.6022 27.5992 47.8164 27.7713 48.0163C28.0048 48.2877 28.2118 48.557 28.4075 48.7988C32.5171 54.0499 34.0857 58.2838 38.1791 62.8518C38.8079 63.5535 39.5032 64.2601 40.2638 64.9849C40.6507 65.3478 41.0509 65.7117 41.4777 66.0776C42.3558 66.8378 43.2482 67.5858 44.1558 68.3081C44.5457 68.6311 44.9508 68.9285 45.355 69.2392C45.8349 69.609 46.3014 69.9778 46.7823 70.3343C47.3389 70.7499 47.8965 71.1521 48.454 71.5544C48.7077 71.7336 48.9737 71.9272 49.2407 72.1074C57.4143 77.82 66.4472 82.2059 75.9744 85.1444C76.1961 85.2143 76.4046 85.2832 76.6274 85.3399C77.359 85.5545 78.0773 85.7681 78.81 85.9695C79.2545 86.096 79.6867 86.2083 80.1322 86.3215C80.7218 86.4721 81.3246 86.6237 81.9141 86.7744C82.5435 86.9279 83.1739 87.0682 83.8175 87.2095C84.2773 87.3104 84.737 87.4113 85.1967 87.5122C85.447 87.5575 85.7106 87.6038 85.9599 87.6624C87.0254 87.875 88.0796 88.0601 89.1472 88.2461C89.5159 88.3135 89.8999 88.3554 90.2697 88.4095C91.2197 88.5601 92.185 88.6851 93.1369 88.8091C93.5342 88.8519 93.9315 88.8947 94.3278 88.9508C95.2807 89.0615 96.2357 89.1456 97.1906 89.2298C97.5756 89.2583 97.9606 89.2868 98.3456 89.3153C99.3414 89.3891 100.338 89.4496 101.323 89.4825C101.669 89.5081 102.015 89.5204 102.348 89.5317C103.426 89.5714 104.506 89.5846 105.587 89.5978C105.84 89.6032 106.106 89.6096 106.361 89.6017C107.669 89.605 108.966 89.5675 110.264 89.5299C110.29 89.5319 110.33 89.5348 110.357 89.5368C113.128 89.4346 115.881 89.2108 118.627 88.9062C118.775 88.8904 118.909 88.8737 119.058 88.8446C120.257 88.7061 121.457 88.541 122.658 88.3627C122.955 88.3178 123.239 88.272 123.536 88.2272C124.589 88.0646 125.645 87.8754 126.7 87.6862C127.039 87.6177 127.377 87.5625 127.715 87.494C128.732 87.2886 129.748 87.0831 130.766 86.8644C131.104 86.7959 131.431 86.7131 131.771 86.6314C132.803 86.387 133.837 86.1294 134.871 85.8717C135.17 85.8003 135.456 85.7146 135.755 85.6431C136.886 85.3392 138.018 85.0087 139.151 84.6781C139.341 84.6254 139.519 84.5717 139.71 84.519C141.035 84.1092 142.348 83.685 143.663 83.2343C144.649 82.893 146.619 81.7153 147.696 81.7684C147.779 81.7344 147.875 81.7014 147.957 81.6675C149.071 81.2286 150.185 80.7897 151.301 80.3242C151.948 80.0514 152.597 79.7652 153.232 79.478C153.688 79.2712 154.156 79.0786 154.612 78.8717C156.422 78.0432 167.078 72.4155 164.78 69.5581C164.78 69.5581 164.78 69.5581 164.767 69.5571C164.754 69.5561 164.74 69.5551 164.727 69.5541C163.803 69.7665 162.889 70.033 161.985 70.3536C161.902 70.3876 161.806 70.4206 161.723 70.4546C155.675 72.6269 150.108 76.5995 143.256 75.2094C142.782 75.1208 142.31 75.0056 141.828 74.8496C139.361 74.0919 136.97 72.6714 134.655 70.9491C133.504 70.0884 132.372 69.1489 131.268 68.1848C125.753 63.3509 120.908 57.7513 117.247 57.0789C116.983 57.0327 116.732 57.0007 116.468 56.9677C116.203 56.9347 115.937 56.9284 115.671 56.9087C115.406 56.889 115.125 56.895 114.857 56.9019C114.309 56.9147 113.746 56.9399 113.197 56.966C112.353 57.0104 111.523 57.0425 110.685 57.0071C108.477 56.897 106.348 56.258 104.641 53.7118C103.871 52.5718 102.92 50.0949 102.05 47.2496C101.867 46.6478 101.699 46.0338 101.518 45.4187C101.319 44.682 101.12 43.9454 100.947 43.2106C100.793 42.5976 100.651 41.9855 100.522 41.3876C100.423 40.9124 100.325 40.4372 100.239 39.9763C100.067 39.0545 99.9311 38.1887 99.8422 37.4068C99.7911 37.0153 99.7646 36.6523 99.7371 36.3027C99.7219 35.9673 99.7057 35.6453 99.7131 35.3651C99.7205 35.0849 99.7392 34.8322 99.7692 34.6072C99.941 33.5504 100.452 32.5989 101.222 31.7602C101.411 31.547 101.626 31.349 101.854 31.152C102.211 30.8442 102.606 30.5526 103.027 30.2763C103.252 30.1192 103.49 29.9764 103.74 29.8345C104.494 29.3957 105.338 28.9903 106.247 28.6164C106.592 28.4682 106.962 28.3352 107.319 28.2012C110.626 26.989 114.627 26.1357 118.458 25.4169C118.878 25.341 119.31 25.2661 119.73 25.1902C124.357 24.3566 128.611 23.6958 130.958 22.8269C133.841 21.757 136.387 18.3762 138.264 17.5526C141.547 16.1247 162.059 12.591 163.592 14.4291C163.407 16.2069 163.35 18.2348 163.496 20.2243C163.599 21.7159 163.823 23.203 164.19 24.5538C164.317 25.0044 164.444 25.4417 164.6 25.8676C164.811 26.4447 164.974 27.1253 165.293 27.4966C165.613 27.8678 166.06 27.9545 166.851 27.3713C167.063 27.2132 167.333 25.5487 167.638 23.4189C168.142 19.8599 168.73 14.9836 169.198 13.5343C169.801 11.7073 172.271 7.01057 174.528 3.92911C174.736 3.65036 174.943 3.38492 175.135 3.13178C175.533 2.62649 175.926 2.18768 176.284 1.85328C176.644 1.50558 176.982 1.26326 177.273 1.12437C178.612 0.528378 179.832 0.819299 180.958 1.65143C182.185 2.57121 183.308 4.16516 184.333 6.00584C184.698 6.66125 185.061 7.35656 185.41 8.05088C185.676 8.60535 185.942 9.15982 186.208 9.71429C186.439 10.1993 186.655 10.6967 186.887 11.1684C187.014 11.4452 187.14 11.7219 187.266 11.9987C188.346 14.3648 189.339 16.4571 190.29 17.4902C191.784 19.1249 194.589 20.5493 197.422 21.9491C197.976 22.2174 198.517 22.4848 199.071 22.7531C199.766 23.0988 200.448 23.4434 201.091 23.7851C201.322 23.9092 201.54 24.0323 201.757 24.1554C202.526 24.5867 203.255 25.0283 203.876 25.4754C206.055 27.054 208.114 28.9847 210.076 31.1488C214.826 36.4072 219.045 43.0702 223.132 49.5228C226.371 54.6292 229.515 59.5815 232.783 63.5803C232.787 63.7143 232.765 63.833 232.741 63.9649C232.67 64.2136 232.504 64.4687 232.259 64.7047C230.901 66.1014 227.228 67.2063 225.465 67.7575C225.356 67.7895 225.26 67.8225 225.178 67.8565C225.096 67.8772 225 67.9102 224.932 67.9319C223.878 68.2816 222.815 68.5771 221.753 68.8594C221.494 68.9338 221.222 68.9939 220.963 69.0683C219.93 69.3259 218.884 69.5693 217.826 69.7851C217.813 69.7841 217.787 69.7822 217.772 69.7945C216.674 70.0206 215.579 70.2068 214.472 70.3788C214.216 70.4133 213.958 70.4611 213.702 70.4956C212.69 70.6478 211.678 70.7868 210.668 70.9125C210.601 70.9076 210.533 70.9292 210.479 70.9386C210.479 70.9386 210.466 70.9376 210.452 70.9366C208.863 71.1264 207.276 71.2895 205.676 71.4384C205.143 71.6128 204.708 71.8881 204.426 72.2816C204.407 72.3471 204.402 72.4268 204.41 72.4943C204.582 73.951 209.896 75.5613 211.81 76.0373C211.81 76.0373 211.836 76.0393 211.85 76.0402C211.967 76.0757 212.072 76.0968 212.164 76.117C212.178 76.118 212.191 76.119 212.204 76.12C212.284 76.1259 212.362 76.1584 212.401 76.1613C213.851 76.4158 215.346 76.5934 216.885 76.7208C219.938 76.9604 223.112 76.995 226.313 77.0317C227.874 77.0537 229.434 77.0757 230.993 77.111C231.833 77.1331 232.671 77.1685 233.508 77.2172C235.104 77.2953 236.67 77.4247 238.231 77.6205C239.91 77.8385 241.57 78.1353 243.181 78.5488C244.374 78.8511 245.547 79.2321 246.689 79.6777C247.039 79.8106 247.388 79.9701 247.737 80.1163C248.241 80.3408 248.745 80.5654 249.234 80.8155C249.928 81.1744 250.56 81.6624 251.175 82.1892C251.614 82.5694 252.025 82.9608 252.437 83.3523C252.524 83.4389 252.612 83.5123 252.699 83.599C253.682 84.5675 254.626 85.5198 255.635 86.1294C257.295 87.1481 259.027 88.092 260.746 89.0348C263.774 90.6897 266.831 92.3066 269.71 94.1777C269.745 94.2338 269.742 94.287 269.722 94.3658C269.615 94.7322 268.862 95.3448 267.669 96.1388C267.43 96.2949 267.177 96.4633 266.898 96.6298C266.086 97.1445 265.123 97.7015 264.051 98.3039C263.34 98.7058 262.589 99.1181 261.797 99.5406C260.615 100.175 259.365 100.831 258.074 101.497C250.802 105.237 242.536 109.063 241.077 109.476C240.708 109.583 240.328 109.675 239.947 109.767C239.186 109.951 238.401 110.094 237.604 110.222C237.199 110.285 236.807 110.35 236.403 110.4C233.975 110.741 231.473 110.997 229.129 111.465C228.736 111.543 228.355 111.635 227.975 111.727C226.451 112.109 225.013 112.604 223.73 113.338C223.409 113.528 223.101 113.719 222.805 113.938C230.059 116.561 237.16 117.662 244.294 117.402C249.849 117.198 255.411 116.18 261.107 114.436C262.582 113.984 263.976 113.553 265.289 113.128C265.945 112.923 266.587 112.717 267.217 112.509C268.024 112.248 268.79 111.997 269.543 111.746C270.541 111.419 271.499 111.102 272.416 110.796C274.565 110.086 276.52 109.455 278.363 108.91C284.341 107.147 289.155 106.314 295.828 106.875C297.367 107.002 299.007 107.204 300.775 107.482C301.369 107.58 301.976 107.678 302.595 107.791C303.846 108.017 305.148 108.274 306.541 108.578C308.63 109.027 310.887 109.555 313.351 110.179L331.474 116.187C328.834 118.492 326.211 120.918 323.585 123.397C320.082 126.707 316.547 130.095 312.926 133.383C311.109 135.026 309.281 136.642 307.416 138.202C300.884 143.667 293.958 148.502 286.264 151.635C285.562 151.917 279.711 153.235 275.201 154.826C274.708 155.003 274.214 155.181 273.76 155.361C272.839 155.721 272.036 156.102 271.394 156.482C270.123 157.244 269.533 158.002 270.229 158.696C276.616 158.968 284.368 159.743 290.683 159.021C307.712 157.101 320.473 146.121 334.117 136.731C342.303 131.107 350.82 126.057 360.767 123.879C363.019 123.391 365.14 123.053 367.184 122.844C367.87 122.774 368.528 122.716 369.199 122.672C373.17 122.405 376.872 122.532 380.662 122.733C381.287 122.766 381.925 122.8 382.563 122.834C383.84 122.901 385.129 122.97 386.447 123.028C388.43 123.108 390.481 123.166 392.645 123.153L429.282 122.873C415.503 133.189 403.371 147.384 388.885 156.966C388.155 157.446 387.426 157.914 386.698 158.368C383.747 160.181 380.704 161.801 377.52 163.156C376.72 163.498 375.923 163.813 375.113 164.114C370.239 165.932 365.04 167.097 359.412 167.389C360.455 169.164 362.806 170.221 365.497 170.835C365.877 170.93 366.273 170.999 366.667 171.082C367.852 171.303 369.083 171.448 370.25 171.548C372.214 171.707 374.067 171.737 375.444 171.719C384.526 171.656 392.713 168.72 400.596 164.478C401.472 164.008 402.349 163.525 403.214 163.014C422.346 151.985 440.088 134.141 465.308 132.119C467.55 131.938 469.536 132.165 471.386 132.596C473.71 133.13 475.836 133.982 478.045 134.788C478.409 134.922 478.774 135.042 479.138 135.176C480.596 135.672 482.125 136.119 483.772 136.415C485.933 136.789 488.768 136.732 490.806 137.511C491.097 137.546 491.374 137.593 491.665 137.628C491.665 137.628 491.678 137.629 491.691 137.63C493.657 137.589 495.829 138.178 497.801 138.404C501.534 138.828 505.272 139.185 509.008 139.569C510.969 139.767 512.916 139.978 514.874 140.217C515.1 140.234 515.337 140.278 515.561 140.308C516.024 140.369 516.487 140.43 516.95 140.491C517.359 140.548 517.769 140.605 518.178 140.662C518.508 140.714 518.839 140.751 519.169 140.803C519.711 140.883 520.264 140.977 520.805 141.071C521.028 141.114 521.24 141.143 521.464 141.173C522.163 141.292 522.848 141.423 523.532 141.554C523.625 141.561 523.704 141.58 523.796 141.6C524.559 141.75 525.321 141.914 526.082 142.09C526.345 142.15 526.619 142.224 526.882 142.283C527.367 142.399 527.853 142.516 528.324 142.644C528.416 142.664 528.508 142.684 528.599 142.718C528.821 142.774 529.043 142.844 529.265 142.914C529.736 143.043 530.206 143.185 530.676 143.326C530.807 143.363 530.924 143.398 531.054 143.448C538.805 145.854 546.756 149.892 556.302 157.257C556.681 157.553 557.06 157.835 557.439 158.13C557.729 158.366 558.031 158.602 558.321 158.837C559.09 159.456 559.858 160.074 560.612 160.705C562.435 162.23 564.211 163.846 565.929 165.524C566.563 166.146 567.197 166.781 567.818 167.415C569.158 168.785 570.482 170.193 571.791 171.627C573.445 173.447 575.083 175.293 576.721 177.153C578.063 178.683 579.417 180.227 580.773 181.744C581.314 182.359 581.857 182.961 582.4 183.563C583.485 184.766 584.584 185.971 585.699 187.136C595.147 197.101 605.552 205.479 620.172 206.883C622.771 207.129 627.598 207.019 632.143 206.754C633.148 206.695 634.154 206.636 635.107 206.559C635.59 206.528 636.048 206.482 636.504 206.449C637.861 206.335 639.111 206.214 640.135 206.09C640.472 206.048 640.795 206.005 641.079 205.959C642.658 205.728 644.165 205.385 645.623 204.985C647.081 204.585 648.502 204.143 649.908 203.725C652.733 202.892 655.508 202.188 658.535 202.239C658.655 202.248 658.745 202.281 658.82 202.354C659.21 202.677 659.152 203.635 659.011 204.28C658.952 204.542 658.883 204.751 658.834 204.868C658.616 205.293 658.112 205.79 657.404 206.34C656.879 206.755 656.218 207.201 655.491 207.655C655.239 207.81 654.987 207.965 654.722 208.12C653.661 208.749 652.451 209.408 651.146 210.074C650.827 210.237 650.494 210.413 650.161 210.576C649.496 210.914 648.804 211.237 648.112 211.574C647.766 211.735 647.42 211.897 647.06 212.071C645.664 212.716 644.228 213.358 642.851 213.938C642.506 214.086 642.161 214.234 641.817 214.369C640.799 214.789 639.82 215.197 638.886 215.556C637.952 215.915 637.1 216.239 636.319 216.516C635.017 216.967 633.951 217.303 633.246 217.451C619.929 220.261 609.123 218.725 599.794 214.732C599.211 214.488 598.631 214.218 598.063 213.948C595.78 212.87 593.575 211.651 591.444 210.316C590.386 209.65 589.33 208.943 588.302 208.225C586.247 206.776 584.239 205.224 582.29 203.609C581.799 203.198 581.323 202.788 580.832 202.378C579.389 201.134 577.963 199.852 576.551 198.544C576.076 198.108 575.614 197.673 575.153 197.237C573.755 195.917 572.373 194.572 571.005 193.227C570.083 192.33 569.176 191.42 568.268 190.524C567.36 189.628 566.453 188.718 565.531 187.821C563.255 185.58 560.977 183.353 558.666 181.203C555.893 178.631 553.058 176.175 550.114 173.938C549.621 173.567 549.127 173.197 548.633 172.839C542.186 168.15 535.178 164.543 527.067 163.032C523.525 162.369 519.31 162.15 515.13 161.8C512.305 161.564 509.511 161.25 506.933 160.739C505.696 160.487 504.489 160.21 503.381 159.847C500.88 159.007 498.69 155.783 496.903 153.953C495.65 152.67 494.516 151.57 493.699 151.068C493.454 150.956 493.192 150.883 492.945 150.798C492.866 150.966 492.812 151.149 492.785 151.335C493.025 152.783 493.291 154.233 493.584 155.685C493.858 157.029 494.147 158.361 494.449 159.68C494.478 159.829 494.508 159.965 494.551 160.115C494.843 161.394 495.176 162.662 495.511 163.916C495.562 164.121 495.626 164.339 495.678 164.544C496.013 165.785 496.376 167.015 496.739 168.232C496.815 168.465 496.879 168.684 496.956 168.917C497.333 170.134 497.736 171.354 498.154 172.562C498.232 172.768 498.297 172.973 498.375 173.18C498.816 174.429 499.272 175.666 499.769 176.892C499.815 176.99 499.848 177.086 499.893 177.196C500.388 178.436 500.912 179.664 501.462 180.882C501.508 180.979 501.541 181.075 501.587 181.172C507.174 193.511 515.572 204.668 526.981 211.931C526.981 211.931 526.981 211.931 526.995 211.932C527.721 212.4 528.476 212.843 529.231 213.274C529.347 213.336 529.461 213.411 529.59 213.474C530.41 213.936 531.245 214.386 532.082 214.795C541.764 219.604 551.677 221.127 561.525 224.423C562.176 224.645 562.84 224.868 563.49 225.104C564.244 225.373 564.96 225.627 565.647 225.892C567.024 226.408 568.296 226.904 569.453 227.497C569.736 227.639 570.019 227.793 570.3 227.961C571.913 228.896 573.282 230.054 574.439 231.73C574.524 231.844 574.595 231.969 574.679 232.096C575.206 232.91 575.685 233.828 576.126 234.904C576.319 235.372 576.527 235.976 576.754 236.702C577.101 237.783 577.482 239.135 577.899 240.704C578.452 242.79 579.057 245.255 579.699 247.949C580.013 249.296 580.335 250.71 580.668 252.166C581.653 256.53 582.649 261.283 583.597 265.966C584.687 271.434 585.689 276.816 586.447 281.364C587.316 286.576 587.863 290.721 587.862 292.713C587.877 300.441 585.385 308.492 581.089 312.064C580.833 312.272 580.578 312.467 580.311 312.648C578.977 313.539 577.5 314.017 575.876 313.95C575.876 313.95 575.863 313.949 575.85 313.949C572.949 313.827 569.587 312 565.898 307.73L558.898 256.636C555.245 256.753 551.582 257.176 547.917 257.64C546.691 257.79 545.477 257.954 544.251 258.117C539.357 258.757 534.469 259.331 529.572 259.302C518.725 259.221 506.452 257.309 494.844 254.176C494.386 254.048 493.915 253.92 493.457 253.792C486.643 251.884 480.1 249.567 474.273 246.956C462.606 241.734 452.811 234.123 442.94 226.814C441.345 225.639 439.763 224.466 438.166 223.318C437.013 222.484 435.858 221.677 434.69 220.868C428.86 216.853 422.817 213.197 416.188 210.42C411.488 208.454 406.522 206.829 401.562 205.312C399.579 204.697 397.593 204.109 395.621 203.521C394.642 203.222 393.65 202.921 392.684 202.622C396.713 197.974 402.864 195.849 407.757 192.148C408.407 191.661 411.387 189.275 413.66 187.064C414.163 186.58 414.64 186.093 415.047 185.642C415.251 185.417 415.44 185.203 415.602 185.002C416.263 184.182 416.591 183.537 416.307 183.236C415.907 183.046 415.541 182.938 415.184 182.898C412.697 182.58 411.187 185.316 410.594 185.566C401.444 189.434 392.154 193.919 382.495 197.442C380.89 198.032 379.273 198.594 377.632 199.114C376.005 199.635 374.367 200.128 372.705 200.58C361.656 203.585 349.764 205.538 337.4 206.467C335.346 206.623 333.268 206.749 331.178 206.848C327.012 207.048 322.8 207.137 318.557 207.103C314.314 207.083 310.039 206.94 305.745 206.702C303.605 206.584 301.453 206.438 299.303 206.265C292.854 205.747 286.37 204.972 279.93 203.974C277.779 203.641 275.629 203.281 273.495 202.896C264.551 201.284 255.679 199.223 247.026 196.736C243.248 195.654 239.516 194.496 235.831 193.247C233.813 192.562 231.81 191.852 229.822 191.117C225.846 189.646 221.93 188.086 218.115 186.426C204.729 180.621 192.348 173.674 181.583 165.644C181.469 165.555 181.33 165.451 181.153 165.318C180.723 164.992 180.118 164.506 179.426 163.947C178.959 163.578 178.468 163.181 177.927 162.739C177.587 162.46 177.247 162.181 176.895 161.888C173.359 158.978 169.191 155.421 168.994 154.845L186.357 148.765C187.353 148.304 188.531 147.709 189.811 147.015C191.077 146.32 192.459 145.514 193.832 144.639C194.756 144.053 195.669 143.439 196.584 142.811C197.485 142.169 198.375 141.513 199.212 140.853C201.723 138.847 203.828 136.744 204.84 134.8C205.197 134.118 205.35 133.674 205.336 133.326C205.322 132.977 205.141 132.71 204.819 132.378C204.608 132.162 204.333 131.915 204.01 131.583C203.055 132.395 202.076 133.178 201.086 133.933C200.69 134.238 200.269 134.515 199.872 134.819C199.28 135.243 198.701 135.669 198.097 136.078C197.563 136.44 197.017 136.787 196.471 137.121C195.995 137.42 195.532 137.72 195.057 138.006C194.415 138.386 193.775 138.739 193.12 139.105C192.731 139.317 192.355 139.53 191.966 139.728C191.23 140.115 190.496 140.475 189.763 140.822C189.458 140.973 189.154 141.111 188.85 141.249C188.035 141.616 187.208 141.969 186.382 142.309C186.162 142.4 185.928 142.49 185.708 142.58C184.8 142.941 183.881 143.274 182.964 143.58C182.84 143.625 182.704 143.668 182.581 143.699C181.582 144.026 180.571 144.339 179.549 144.624C179.436 144.709 179.349 144.81 179.224 144.867C178.809 145.064 178.367 145.085 177.929 145.052C169.117 147.233 159.857 147.537 150.611 145.849C150.491 145.84 150.373 145.818 150.254 145.796C148.937 145.551 147.61 145.266 146.3 144.928C133.864 141.801 119.732 137.585 105.666 133.027C91.6134 128.47 77.625 123.583 65.5013 119.115C56.3916 115.766 42.6305 110.335 30.0636 103.2C28.3854 102.247 26.7358 101.269 25.1157 100.254C23.4957 99.2377 21.9174 98.1983 20.3818 97.122C18.8463 96.0456 17.3659 94.9466 15.9405 93.8249C13.0908 91.5683 10.5032 89.1974 8.26967 86.7324C4.35856 82.4052 1.5657 77.7597 0.476158 72.8259C0.376899 72.364 0.283551 71.8223 0.205442 71.255C0.186785 71.1467 0.180411 71.0527 0.161693 70.9443C0.0988237 70.3514 0.0399561 69.7053 0.0218203 69.0489C-0.00564429 68.3383 0.00873008 67.6041 0.0629129 66.8728C0.265388 63.9599 1.12874 61.1361 3.27668 60.2525L3.31354 60.2953Z" fill="white"/>
</svg>
