<svg width="843" height="172" viewBox="0 0 843 172" fill="none" xmlns="http://www.w3.org/2000/svg">
<path d="M838.032 76.3046C837.697 76.1587 837.314 76.0505 836.935 75.9933C836.556 75.936 836.111 75.9177 835.67 75.9504C834.924 76.0056 833.987 76.2288 832.926 76.6317C830.055 77.6808 826.142 79.8483 821.79 82.5264C817.437 85.2044 812.63 88.4112 807.97 91.5388C807.385 91.9235 806.818 92.324 806.233 92.7087C805.291 93.3418 804.367 93.9736 803.441 94.5884C803.035 94.8575 802.628 95.1265 802.239 95.3943C799.122 97.4859 796.213 99.4083 793.721 100.959C793.28 101.23 792.84 101.502 792.433 101.754C791.194 102.511 790.064 103.141 789.113 103.638C787.52 104.456 785.922 105.206 784.343 105.972C783.125 106.557 781.906 107.125 780.685 107.677C774.583 110.433 768.473 112.849 762.333 114.857C760.086 115.587 757.837 116.283 755.582 116.911C742.092 120.71 728.441 122.796 714.388 123.36C711.805 123.466 709.2 123.505 706.576 123.512C702.332 123.519 698.028 123.394 693.697 123.134C688.578 122.831 683.379 122.363 678.134 121.727C677.928 121.708 677.687 121.675 677.393 121.628C677.393 121.628 677.376 121.63 677.36 121.631C677.066 121.584 676.722 121.542 676.343 121.484C670.964 120.654 658.166 118.376 655.91 116.922C655.91 116.922 655.91 116.922 655.891 116.889L657.434 114.487C657.878 114.488 658.374 114.52 658.834 114.52L658.832 114.486C658.832 114.486 658.933 114.479 658.984 114.475C664.181 115.37 669.494 115.301 675.027 116.137C682.749 117.306 690.526 118.761 698.358 119.102C699.299 119.152 700.22 119.169 701.141 119.169C708.694 119.207 716.373 118.638 724.096 117.519C726.676 117.141 729.235 116.712 731.824 116.23C733.118 115.981 734.394 115.732 735.686 115.449C740.837 114.35 745.955 113.032 751.056 111.494C752.323 111.11 753.589 110.709 754.854 110.308C757.384 109.488 759.91 108.619 762.399 107.7C766.148 106.313 769.856 104.826 773.522 103.24C779.615 100.587 785.566 97.6368 791.295 94.4471C794.733 92.5366 798.095 90.5294 801.366 88.4435C806.818 84.967 812.031 81.2523 816.923 77.3394C820.8 74.2357 823.894 71.8216 825.417 68.6875C825.712 68.0682 825.972 67.4344 826.142 66.739C826.353 65.9041 826.457 65.0088 826.436 64.0374C826.436 63.1156 826.311 62.1178 826.094 61.0244C825.852 59.8304 825.485 58.5603 824.953 57.1317C824.442 55.7528 823.819 54.7066 823.133 53.9551C822.78 53.5716 822.417 53.2742 822.024 53.0302C821.631 52.7862 821.243 52.6101 820.825 52.4874C820.199 52.312 819.547 52.2578 818.886 52.3068C817.987 52.3734 817.07 52.6462 816.128 53.0403C815.666 53.2452 815.188 53.4684 814.731 53.7412C814.503 53.8776 814.274 54.0141 814.029 54.1517C813.198 54.6741 812.374 55.2814 811.586 55.9201C811.41 56.0698 811.216 56.2207 811.04 56.3703C809.725 57.4918 808.519 58.6907 807.512 59.8236C807.26 60.0984 807.024 60.3719 806.805 60.6271C806.506 60.9735 806.242 61.3174 805.992 61.6261C800.745 68.3306 798.743 73.7363 793.516 79.5687C792.713 80.4645 791.826 81.3667 790.855 82.2921C790.361 82.7555 789.85 83.2201 789.305 83.6872C788.183 84.6579 787.044 85.6128 785.885 86.5351C785.388 86.9475 784.87 87.3272 784.354 87.7239C783.742 88.196 783.146 88.6669 782.532 89.122C781.821 89.6526 781.109 90.1663 780.398 90.6799C780.074 90.9087 779.734 91.1558 779.393 91.3859C768.957 98.6796 757.424 104.279 745.26 108.031C744.977 108.12 744.711 108.208 744.427 108.281C743.492 108.555 742.575 108.828 741.64 109.085C741.072 109.246 740.521 109.389 739.952 109.534C739.199 109.726 738.429 109.92 737.677 110.112C736.873 110.308 736.068 110.487 735.246 110.668C734.659 110.797 734.072 110.926 733.485 111.054C733.166 111.112 732.829 111.171 732.511 111.246C731.151 111.518 729.805 111.754 728.442 111.991C727.971 112.077 727.481 112.131 727.008 112.2C725.796 112.392 724.563 112.552 723.348 112.71C722.84 112.765 722.333 112.819 721.827 112.891C720.61 113.032 719.391 113.14 718.172 113.247C717.68 113.284 717.189 113.32 716.697 113.357C715.426 113.451 714.153 113.528 712.895 113.57C712.455 113.603 712.013 113.618 711.588 113.633C710.211 113.683 708.831 113.7 707.452 113.717C707.129 113.724 706.789 113.732 706.464 113.722C704.794 113.726 703.137 113.678 701.48 113.63C701.446 113.633 701.396 113.637 701.362 113.639C697.824 113.509 694.309 113.223 690.803 112.834C690.614 112.814 690.442 112.793 690.252 112.755C688.722 112.579 687.189 112.368 685.655 112.14C685.276 112.083 684.914 112.024 684.535 111.967C683.19 111.76 681.843 111.518 680.495 111.276C680.063 111.189 679.632 111.119 679.199 111.031C677.901 110.769 676.603 110.506 675.305 110.227C674.872 110.14 674.455 110.034 674.021 109.93C672.703 109.618 671.383 109.289 670.063 108.96C669.682 108.869 669.316 108.759 668.934 108.668C667.49 108.28 666.045 107.858 664.599 107.436C664.355 107.369 664.128 107.3 663.885 107.233C662.193 106.709 660.516 106.168 658.838 105.592C657.578 105.157 655.064 103.653 653.688 103.721C653.583 103.677 653.46 103.635 653.355 103.592C651.933 103.032 650.51 102.471 649.086 101.877C648.259 101.529 647.431 101.163 646.62 100.797C646.038 100.532 645.44 100.286 644.858 100.022C642.547 98.9646 628.942 91.7793 631.876 88.131C631.876 88.131 631.876 88.131 631.893 88.1297C631.91 88.1285 631.927 88.1272 631.944 88.126C633.123 88.3971 634.29 88.7373 635.445 89.1467C635.55 89.1901 635.673 89.2323 635.778 89.2757C643.5 92.0492 650.608 97.1213 659.357 95.3465C659.962 95.2334 660.565 95.0863 661.181 94.8871C664.33 93.9197 667.383 92.1061 670.339 89.907C671.809 88.8081 673.254 87.6086 674.662 86.3776C681.704 80.2059 687.89 73.0564 692.565 72.198C692.901 72.1389 693.222 72.0981 693.56 72.056C693.897 72.0139 694.238 72.0057 694.577 71.9806C694.916 71.9555 695.274 71.9631 695.616 71.9719C696.316 71.9883 697.034 72.0205 697.735 72.0539C698.813 72.1105 699.873 72.1515 700.943 72.1063C703.762 71.9658 706.48 71.1499 708.659 67.8989C709.642 66.4434 710.857 63.281 711.968 59.6482C712.201 58.8799 712.416 58.0958 712.647 57.3106C712.901 56.37 713.155 55.4294 713.376 54.4913C713.573 53.7086 713.754 52.9271 713.919 52.1638C714.044 51.5571 714.17 50.9503 714.28 50.3618C714.499 49.1849 714.673 48.0795 714.787 47.0811C714.852 46.5813 714.886 46.1179 714.921 45.6715C714.94 45.2433 714.961 44.8321 714.951 44.4743C714.942 44.1166 714.918 43.794 714.88 43.5067C714.66 42.1574 714.008 40.9426 713.025 39.8718C712.784 39.5995 712.509 39.3467 712.218 39.0952C711.763 38.7022 711.258 38.3299 710.72 37.9771C710.433 37.7766 710.13 37.5942 709.809 37.4131C708.847 36.8528 707.769 36.3352 706.609 35.8579C706.169 35.6686 705.696 35.4988 705.24 35.3277C701.018 33.78 695.91 32.6906 691.018 31.7728C690.483 31.6759 689.93 31.5803 689.395 31.4834C683.487 30.419 678.055 29.5754 675.059 28.466C671.378 27.1 668.127 22.7834 665.731 21.7319C661.539 19.9088 635.35 15.397 633.393 17.7439C633.629 20.0137 633.702 22.6029 633.515 25.143C633.383 27.0474 633.098 28.9462 632.629 30.6708C632.467 31.2461 632.304 31.8044 632.106 32.3483C631.837 33.0851 631.628 33.954 631.22 34.4281C630.812 34.9021 630.241 35.0127 629.231 34.2682C628.961 34.0663 628.616 31.9411 628.227 29.2218C627.583 24.6778 626.832 18.4519 626.235 16.6015C625.466 14.2687 622.312 8.27213 619.429 4.33781C619.164 3.98192 618.901 3.643 618.655 3.3198C618.147 2.67466 617.645 2.11441 617.188 1.68745C616.729 1.24351 616.297 0.934136 615.926 0.756796C614.216 -0.00414232 612.658 0.367298 611.22 1.42974C609.654 2.60409 608.22 4.6392 606.911 6.98932C606.445 7.82614 605.982 8.71388 605.536 9.60037C605.197 10.3083 604.857 11.0162 604.518 11.7242C604.223 12.3435 603.946 12.9785 603.65 13.5808C603.488 13.9341 603.327 14.2874 603.166 14.6408C601.788 17.6618 600.52 20.3332 599.305 21.6522C597.397 23.7394 593.817 25.558 590.199 27.3452C589.492 27.6878 588.801 28.0292 588.094 28.3718C587.206 28.8131 586.335 29.2531 585.515 29.6894C585.22 29.8478 584.942 30.005 584.664 30.1621C583.682 30.7128 582.753 31.2767 581.96 31.8475C579.178 33.863 576.548 36.3281 574.043 39.0912C567.978 45.805 562.592 54.312 557.374 62.5506C553.238 69.0702 549.224 75.3932 545.051 80.4988C545.047 80.6698 545.075 80.8213 545.105 80.9898C545.196 81.3074 545.408 81.6331 545.72 81.9343C547.454 83.7176 552.144 85.1283 554.394 85.832C554.534 85.8729 554.656 85.9151 554.762 85.9585C554.866 85.9849 554.988 86.027 555.076 86.0547C556.421 86.5012 557.778 86.8786 559.135 87.239C559.465 87.3339 559.812 87.4107 560.143 87.5057C561.463 87.8346 562.798 88.1453 564.148 88.4209C564.165 88.4196 564.199 88.4171 564.217 88.4328C565.619 88.7215 567.017 88.9593 568.431 89.1789C568.758 89.2229 569.086 89.284 569.413 89.328C570.706 89.5224 571.997 89.6998 573.288 89.8603C573.372 89.854 573.46 89.8817 573.529 89.8936C573.529 89.8936 573.546 89.8924 573.563 89.8911C575.592 90.1334 577.618 90.3417 579.661 90.5317C580.342 90.7544 580.896 91.1059 581.257 91.6083C581.281 91.6919 581.288 91.7938 581.278 91.8799C581.057 93.7397 574.273 95.7957 571.829 96.4035C571.829 96.4035 571.796 96.406 571.779 96.4072C571.629 96.4525 571.494 96.4795 571.377 96.5053C571.36 96.5065 571.343 96.5078 571.326 96.509C571.224 96.5166 571.125 96.5581 571.074 96.5618C569.224 96.8867 567.314 97.1135 565.349 97.2762C561.452 97.582 557.399 97.6263 553.312 97.6731C551.32 97.7012 549.328 97.7293 547.337 97.7744C546.265 97.8026 545.195 97.8477 544.125 97.9099C542.088 98.0097 540.089 98.1748 538.096 98.4249C535.952 98.7032 533.833 99.0822 531.775 99.6101C530.253 99.996 528.755 100.483 527.297 101.051C526.85 101.221 526.405 101.425 525.958 101.611C525.315 101.898 524.671 102.185 524.047 102.504C523.161 102.962 522.355 103.585 521.57 104.258C521.009 104.743 520.483 105.243 519.958 105.743C519.847 105.854 519.735 105.947 519.623 106.058C518.369 107.295 517.163 108.511 515.875 109.289C513.755 110.589 511.544 111.795 509.349 112.998C505.483 115.111 501.58 117.176 497.905 119.565C497.859 119.636 497.864 119.704 497.888 119.805C498.025 120.273 498.987 121.055 500.511 122.068C500.815 122.268 501.138 122.483 501.494 122.695C502.532 123.353 503.76 124.064 505.13 124.833C506.037 125.346 506.996 125.872 508.008 126.412C509.517 127.222 511.113 128.059 512.761 128.91C522.045 133.685 532.6 138.57 534.462 139.097C534.933 139.233 535.419 139.351 535.905 139.468C536.876 139.704 537.878 139.885 538.896 140.049C539.413 140.13 539.914 140.213 540.43 140.277C543.53 140.713 546.724 141.039 549.717 141.637C550.219 141.736 550.705 141.854 551.191 141.972C553.136 142.459 554.972 143.091 556.61 144.028C557.02 144.271 557.413 144.515 557.791 144.794C548.529 148.143 539.464 149.549 530.355 149.217C523.262 148.957 516.161 147.657 508.889 145.43C507.005 144.853 505.226 144.302 503.549 143.76C502.712 143.498 501.891 143.235 501.088 142.97C500.057 142.637 499.079 142.316 498.118 141.995C496.843 141.577 495.62 141.173 494.449 140.782C491.706 139.876 489.209 139.071 486.856 138.374C479.224 136.123 473.078 135.06 464.558 135.776C462.593 135.939 460.499 136.196 458.241 136.551C457.483 136.676 456.709 136.802 455.918 136.945C454.32 137.234 452.657 137.563 450.879 137.95C448.212 138.523 445.33 139.198 442.185 139.994L419.045 147.666C422.416 150.608 425.765 153.706 429.119 156.871C433.59 161.097 438.104 165.423 442.727 169.621C445.047 171.719 447.381 173.782 449.762 175.774C458.102 182.751 466.945 188.924 476.769 192.924C477.665 193.285 485.135 194.967 490.893 196.999C491.524 197.225 492.154 197.452 492.733 197.682C493.909 198.141 494.934 198.628 495.754 199.114C497.377 200.086 498.13 201.054 497.242 201.939C489.086 202.288 479.189 203.277 471.127 202.355C449.385 199.903 433.092 185.885 415.671 173.895C405.22 166.715 394.345 160.267 381.646 157.487C378.77 156.863 376.063 156.432 373.452 156.165C372.576 156.076 371.736 156.002 370.879 155.946C365.809 155.604 361.083 155.767 356.244 156.023C355.446 156.065 354.631 156.108 353.817 156.152C352.187 156.238 350.54 156.326 348.858 156.4C346.326 156.502 343.707 156.576 340.945 156.559L294.167 156.201C311.76 169.373 327.25 187.496 345.745 199.73C346.677 200.344 347.608 200.941 348.537 201.521C352.305 203.836 356.19 205.904 360.256 207.634C361.277 208.07 362.295 208.473 363.329 208.857C369.552 211.178 376.19 212.666 383.376 213.039C382.044 215.305 379.042 216.654 375.606 217.438C375.121 217.559 374.616 217.648 374.112 217.753C372.599 218.036 371.028 218.221 369.537 218.348C367.03 218.551 364.664 218.59 362.906 218.567C351.311 218.487 340.858 214.738 330.793 209.322C329.674 208.722 328.555 208.105 327.45 207.453C303.022 193.371 280.37 170.589 248.171 168.007C245.307 167.776 242.772 168.066 240.41 168.617C237.443 169.297 234.729 170.386 231.908 171.414C231.443 171.585 230.977 171.739 230.513 171.91C228.651 172.543 226.699 173.115 224.596 173.492C221.836 173.97 218.218 173.897 215.616 174.892C215.244 174.936 214.89 174.997 214.519 175.041C214.519 175.041 214.502 175.042 214.485 175.044C211.976 174.991 209.202 175.742 206.684 176.031C201.918 176.572 197.145 177.028 192.375 177.518C189.871 177.772 187.386 178.042 184.886 178.346C184.598 178.368 184.295 178.424 184.008 178.463C183.417 178.54 182.827 178.618 182.236 178.696C181.713 178.769 181.19 178.842 180.667 178.915C180.246 178.98 179.823 179.029 179.402 179.094C178.711 179.196 178.004 179.317 177.314 179.436C177.028 179.492 176.758 179.529 176.471 179.567C175.579 179.719 174.705 179.886 173.831 180.053C173.713 180.062 173.612 180.086 173.495 180.112C172.521 180.304 171.548 180.512 170.576 180.738C170.24 180.814 169.889 180.908 169.554 180.984C168.935 181.133 168.315 181.281 167.714 181.445C167.596 181.471 167.479 181.497 167.363 181.539C167.078 181.612 166.795 181.701 166.512 181.79C165.911 181.954 165.31 182.135 164.71 182.316C164.543 182.363 164.393 182.408 164.227 182.471C154.331 185.543 144.18 190.699 131.991 200.103C131.508 200.48 131.023 200.84 130.54 201.217C130.17 201.518 129.784 201.82 129.414 202.12C128.433 202.91 127.452 203.699 126.489 204.505C124.161 206.452 121.894 208.515 119.701 210.658C118.89 211.452 118.081 212.263 117.289 213.072C115.578 214.821 113.887 216.619 112.216 218.45C110.105 220.774 108.012 223.131 105.922 225.505C104.208 227.458 102.48 229.43 100.748 231.367C100.057 232.153 99.3637 232.921 98.6707 233.689C97.2847 235.226 95.8817 236.763 94.458 238.252C82.3961 250.974 69.1105 261.671 50.4439 263.464C47.1265 263.778 40.9633 263.637 35.1603 263.299C33.8764 263.223 32.5925 263.148 31.3752 263.05C30.7587 263.011 30.1748 262.951 29.5922 262.909C27.86 262.764 26.2635 262.61 24.9564 262.45C24.5263 262.397 24.1132 262.342 23.7509 262.284C21.735 261.989 19.8107 261.552 17.9491 261.041C16.0876 260.53 14.2731 259.965 12.4782 259.432C8.87122 258.368 5.32772 257.47 1.46353 257.534C1.31097 257.545 1.19483 257.588 1.09942 257.68C0.601613 258.093 0.675225 259.316 0.855514 260.139C0.931522 260.475 1.01945 260.742 1.08162 260.891C1.36044 261.433 2.00403 262.069 2.90818 262.77C3.57812 263.3 4.42135 263.869 5.35059 264.449C5.67205 264.647 5.99352 264.845 6.33194 265.042C7.68686 265.847 9.23202 266.688 10.8971 267.538C11.3046 267.746 11.7303 267.971 12.1547 268.178C13.0048 268.61 13.8876 269.023 14.7716 269.452C15.213 269.659 15.6543 269.865 16.1139 270.087C17.8964 270.911 19.7297 271.731 21.489 272.471C21.9291 272.66 22.3692 272.85 22.8081 273.022C24.109 273.557 25.3578 274.079 26.5507 274.537C27.7436 274.995 28.831 275.409 29.8286 275.762C31.4905 276.339 32.8517 276.767 33.752 276.956C50.7549 280.544 64.5515 278.583 76.4624 273.485C77.2063 273.173 77.9477 272.828 78.6722 272.485C81.587 271.108 84.4031 269.551 87.1232 267.847C88.4748 266.996 89.8226 266.094 91.1353 265.177C93.7593 263.327 96.3224 261.345 98.8114 259.283C99.4373 258.758 100.046 258.235 100.672 257.711C102.515 256.124 104.336 254.487 106.138 252.817C106.745 252.26 107.334 251.704 107.924 251.148C109.708 249.463 111.472 247.745 113.22 246.028C114.396 244.882 115.555 243.721 116.714 242.577C117.873 241.433 119.032 240.271 120.208 239.126C123.115 236.265 126.023 233.421 128.973 230.676C132.513 227.392 136.133 224.256 139.893 221.4C140.522 220.927 141.152 220.454 141.783 219.997C150.015 214.01 158.962 209.404 169.318 207.476C173.84 206.629 179.223 206.35 184.558 205.903C188.166 205.602 191.733 205.201 195.025 204.548C196.603 204.226 198.145 203.873 199.56 203.409C202.753 202.336 205.55 198.22 207.831 195.883C209.431 194.246 210.878 192.841 211.921 192.201C212.235 192.058 212.568 191.965 212.884 191.856C212.985 192.071 213.054 192.305 213.088 192.541C212.782 194.39 212.442 196.242 212.068 198.096C211.718 199.812 211.35 201.512 210.963 203.196C210.926 203.387 210.888 203.56 210.834 203.752C210.461 205.384 210.035 207.003 209.609 208.605C209.543 208.866 209.461 209.145 209.395 209.406C208.967 210.991 208.504 212.562 208.04 214.115C207.942 214.413 207.861 214.692 207.764 214.989C207.282 216.544 206.767 218.101 206.234 219.643C206.134 219.906 206.051 220.169 205.951 220.432C205.388 222.027 204.806 223.606 204.172 225.173C204.113 225.296 204.071 225.419 204.013 225.56C203.381 227.143 202.713 228.712 202.01 230.266C201.951 230.39 201.909 230.512 201.85 230.636C194.717 246.39 183.995 260.636 169.427 269.908C169.427 269.908 169.427 269.908 169.411 269.909C168.483 270.507 167.52 271.074 166.555 271.623C166.407 271.702 166.261 271.799 166.097 271.879C165.049 272.469 163.984 273.043 162.915 273.566C150.553 279.705 137.897 281.65 125.324 285.858C124.492 286.142 123.644 286.427 122.814 286.727C121.851 287.072 120.938 287.395 120.06 287.733C118.302 288.393 116.678 289.025 115.201 289.783C114.839 289.964 114.479 290.161 114.12 290.376C112.061 291.569 110.312 293.047 108.835 295.188C108.726 295.333 108.636 295.493 108.528 295.655C107.855 296.694 107.244 297.866 106.681 299.24C106.435 299.838 106.168 300.609 105.879 301.535C105.436 302.916 104.95 304.642 104.417 306.645C103.711 309.309 102.939 312.455 102.12 315.896C101.719 317.615 101.307 319.421 100.882 321.279C99.6249 326.851 98.3531 332.92 97.1428 338.899C95.7512 345.881 94.4707 352.752 93.5033 358.559C92.3942 365.213 91.6955 370.505 91.6965 373.048C91.6776 382.916 94.8595 393.195 100.345 397.755C100.671 398.021 100.996 398.271 101.337 398.501C103.041 399.638 104.927 400.25 107 400.164C107 400.164 107.017 400.163 107.034 400.162C110.738 400.007 115.03 397.675 119.74 392.222L128.678 326.986C133.342 327.136 138.018 327.677 142.698 328.269C144.263 328.46 145.812 328.67 147.379 328.878C153.626 329.695 159.867 330.428 166.12 330.391C179.969 330.287 195.639 327.846 210.46 323.846C211.045 323.683 211.646 323.519 212.231 323.356C220.93 320.919 229.284 317.962 236.724 314.628C251.62 307.96 264.126 298.242 276.729 288.911C278.765 287.411 280.785 285.913 282.824 284.448C284.296 283.383 285.771 282.352 287.262 281.319C294.706 276.193 302.421 271.525 310.885 267.979C316.886 265.469 323.226 263.395 329.559 261.458C332.092 260.673 334.627 259.921 337.145 259.172C338.395 258.789 339.662 258.405 340.895 258.023C335.751 252.089 327.897 249.376 321.65 244.65C320.82 244.029 317.015 240.982 314.113 238.159C313.47 237.541 312.862 236.92 312.342 236.344C312.082 236.056 311.84 235.784 311.634 235.526C310.789 234.479 310.37 233.657 310.734 233.271C311.244 233.029 311.711 232.892 312.168 232.841C315.342 232.435 317.271 235.928 318.027 236.247C329.711 241.185 341.571 246.912 353.903 251.409C355.953 252.162 358.018 252.88 360.112 253.544C362.19 254.209 364.282 254.84 366.404 255.416C380.511 259.253 395.694 261.747 411.479 262.933C414.102 263.131 416.755 263.293 419.424 263.419C424.743 263.674 430.12 263.788 435.537 263.745C440.955 263.719 446.413 263.536 451.895 263.233C454.628 263.081 457.376 262.895 460.12 262.674C468.355 262.013 476.633 261.024 484.856 259.749C487.603 259.324 490.347 258.865 493.071 258.372C504.492 256.314 515.818 253.683 526.866 250.509C531.69 249.127 536.454 247.648 541.16 246.053C543.737 245.179 546.294 244.273 548.832 243.334C553.909 241.455 558.908 239.463 563.779 237.344C580.871 229.933 596.678 221.064 610.423 210.811C610.568 210.698 610.745 210.565 610.971 210.395C611.52 209.978 612.292 209.358 613.177 208.644C613.772 208.173 614.399 207.665 615.091 207.102C615.524 206.746 615.958 206.389 616.408 206.015C620.922 202.3 626.244 197.758 626.496 197.023L604.326 189.26C603.056 188.671 601.551 187.912 599.917 187.026C598.3 186.139 596.536 185.109 594.783 183.993C593.603 183.244 592.437 182.46 591.27 181.658C590.118 180.839 588.983 180.002 587.915 179.159C584.708 176.597 582.021 173.912 580.729 171.43C580.272 170.559 580.077 169.993 580.095 169.548C580.113 169.103 580.344 168.761 580.756 168.338C581.025 168.062 581.376 167.746 581.788 167.323C583.007 168.359 584.257 169.359 585.521 170.324C586.028 170.713 586.565 171.066 587.071 171.455C587.827 171.996 588.566 172.539 589.338 173.062C590.02 173.524 590.717 173.967 591.413 174.393C592.021 174.775 592.612 175.158 593.219 175.523C594.039 176.008 594.856 176.46 595.692 176.927C596.189 177.197 596.669 177.469 597.165 177.722C598.105 178.216 599.043 178.676 599.979 179.119C600.368 179.312 600.756 179.488 601.144 179.664C602.184 180.133 603.24 180.584 604.295 181.018C604.576 181.133 604.875 181.248 605.156 181.364C606.315 181.824 607.488 182.249 608.659 182.64C608.817 182.697 608.991 182.752 609.148 182.792C610.423 183.21 611.714 183.609 613.019 183.973C613.163 184.082 613.275 184.21 613.434 184.284C613.964 184.535 614.528 184.561 615.088 184.52C626.339 187.305 638.162 187.692 649.967 185.537C650.119 185.526 650.271 185.497 650.422 185.469C652.103 185.157 653.797 184.792 655.47 184.361C671.349 180.368 689.391 174.986 707.351 169.166C725.293 163.347 743.153 157.108 758.632 151.404C770.263 147.128 787.833 140.193 803.878 131.084C806.021 129.867 808.127 128.619 810.195 127.322C812.264 126.025 814.279 124.698 816.239 123.324C818.2 121.95 820.09 120.546 821.91 119.114C825.548 116.233 828.852 113.206 831.704 110.059C836.697 104.534 840.263 98.6026 841.654 92.3033C841.781 91.7136 841.9 91.022 842 90.2976C842.024 90.1593 842.032 90.0392 842.056 89.9009C842.136 89.1439 842.211 88.319 842.234 87.4809C842.269 86.5736 842.251 85.6362 842.182 84.7025C841.923 80.9834 840.821 77.3781 838.079 76.2499L838.032 76.3046Z" fill="white"/>
</svg>
